<mxfile host="app.diagrams.net" modified="2021-12-05T02:59:32.398Z" agent="5.0 (Windows)" etag="VLYRBnYRtOQNoNRdtEEM" version="15.0.3" type="github">
  <diagram name="页-1" id="页-1">
    <mxGraphModel dx="1673" dy="485" grid="0" gridSize="10" guides="0" tooltips="1" connect="1" arrows="1" fold="1" page="0" pageScale="1" pageWidth="827" pageHeight="1169" math="0" shadow="0">
      <root>
        <mxCell id="0" />
        <mxCell id="1" value="连接线" parent="0" />
        <mxCell id="2" style="vsdxID=1;fillColor=none;gradientColor=none;labelBackgroundColor=none;rounded=0;strokeColor=none;html=1;whiteSpace=wrap;" parent="1" vertex="1">
          <mxGeometry x="604" y="467" width="524" height="477" as="geometry" />
        </mxCell>
        <mxCell id="3" style="vsdxID=2;fillColor=none;gradientColor=none;strokeColor=none;labelBackgroundColor=none;rounded=0;html=1;whiteSpace=wrap;" parent="2" vertex="1">
          <mxGeometry width="524" height="473" as="geometry" />
        </mxCell>
        <mxCell id="4" style="vsdxID=3;fillColor=#999999;gradientColor=none;shape=stencil(nZJLDsIwDERP420VHLpgXco9KjVtLEJSpeF3e2JZiMIiUth57DeWpTHobrXDYgDVmmI4mzuNyYI+AiJ5ayKlXIHuQXdTiGaO4epH0cvAJFeXcOMND/EpdqB6itop0SdBHfkN+h7+BRdRbPDwRWPT7qsM3Cpbqm6v3l9tKJ6Ti09eEzkncW/nv/nmlvyG7l8=);strokeColor=#164326;spacingTop=-3;spacingBottom=-3;spacingLeft=-3;spacingRight=-3;labelBackgroundColor=none;rounded=0;html=1;whiteSpace=wrap;" parent="3" vertex="1">
          <mxGeometry width="524" height="473" as="geometry" />
        </mxCell>
        <mxCell id="5" style="vsdxID=4;fillColor=#ffffff;gradientColor=none;shape=stencil(nZBLDoAgDERP0z3SIyjew0SURgSD+Lu9kMZoXLhwN9O+tukAlrNpJg1SzDH4QW/URgNYgZTkjA4UkwJUgGXng+6DX1zLfmoymdXo17xh5zmRJ6Q42BWCfc2oJfdAr+Yv+AP9Cb7OJ3H/2JG1HNGz/84klThPVCc=);strokeColor=#164326;labelBackgroundColor=none;rounded=0;html=1;whiteSpace=wrap;" parent="3" vertex="1">
          <mxGeometry width="524" height="473" as="geometry" />
        </mxCell>
        <mxCell id="UeouRAuLSN_HrzZOeNkw-301" value="1、用户管理" style="text;html=1;strokeColor=none;fillColor=none;align=center;verticalAlign=middle;whiteSpace=wrap;rounded=0;" parent="3" vertex="1">
          <mxGeometry x="386" y="51" width="92" height="30" as="geometry" />
        </mxCell>
        <mxCell id="UeouRAuLSN_HrzZOeNkw-302" value="2、元数据管理" style="text;html=1;strokeColor=none;fillColor=none;align=center;verticalAlign=middle;whiteSpace=wrap;rounded=0;" parent="3" vertex="1">
          <mxGeometry x="393" y="88" width="92" height="30" as="geometry" />
        </mxCell>
        <mxCell id="UeouRAuLSN_HrzZOeNkw-303" value="3、资源节点评价与智能选择" style="text;html=1;strokeColor=none;fillColor=none;align=center;verticalAlign=middle;whiteSpace=wrap;rounded=0;" parent="3" vertex="1">
          <mxGeometry x="395" y="128" width="92" height="30" as="geometry" />
        </mxCell>
        <mxCell id="6" style="vsdxID=5;fillColor=none;gradientColor=none;labelBackgroundColor=none;rounded=0;strokeColor=none;html=1;whiteSpace=wrap;" parent="2" vertex="1">
          <mxGeometry x="124" y="91" width="308" height="330" as="geometry" />
        </mxCell>
        <mxCell id="7" style="vsdxID=6;fillColor=#000000;gradientColor=none;fillOpacity=0;shape=stencil(xVjbctpADP0aHtHs/fKcpv/haZyEKYWMoU3695XLrLBkUEkndd9gLa2OtLqv/N3huXvpV84cjsP+a/+6eTg+r/ynlXOb3XM/bI74a+XvV/7ucT/0T8P+++7h9P+lGynHX9/2P8Yb3k58IYKxI5czP08ntkKOv08+nxi2m92EIQXIgTF4A0VhKIZROwfOK9cbcAKPBRuuM9ygANfYoQKJK1AguesSkKE4xpASBA0SSvCMIWeIRbVpKIyhICRFQkKls2SoSWfgOpQKRmEos2e2xlwnbx8bcbUN4E3k3kNU1C0zp0AvCpqTzpzCW1Xdd3s1vnGtM7dTVEaGEiRD0pzCgOFOgZFgqiIBrcQhKQ/mYruLHAIU+2AMJEnuFW3dJXtaZs9u+IJfB8JjCNDQHvn8aHQvOgp3hNocwbytu7fNYT3sj91xs99NTWC23fDUr1Hk+nHbPbFPh9e+f5kdX9bKt6iciPfpulYxQQ1cqehAqORmlxqK7n+hE4cYwDmO0ENlAM9+So6IvrIYwAhB+EWkwGgmtDLhIsJcPxShVbJZhMqTK57wfM9VQqeJXCVK93Qn1SRKqeDtUjbPUDi+TAm44bOyKFoI6X/iY/Bm5W5J61VwST5v5EGfoYqQih/tsEoey61XIOmpSb+cnE0rbaQRJgVbhcll44YxWJayOdqvSIhYs7jVDaWSlmkxuSyWyDBkvEBoWh95Rmh4IkPXWS7qU6XWmAJrbL+zwMghRkvutIARIUojQuCxb6miNYCeusF/DzBRXmwAU7MX2c/yHiaefXeJem9EnHh6dDKg58NFrJROF2iypHmyVyfGOX1unfblau2BJz8cdZTrkVz0FiO90rePDFkyWKW3thkEPdZWrd2g6tfoMY1o9LUNVxMB2jA0TjJWSqjaOFfbrDSVoL1BhTqTULT5Qz5aLi3ObqTPLU1cBlTamxKDBe2Rq/QKnF+qovEY9bz2BHKsawxiS5F0jY10O2TQAP15DSL2Jk4CwryvKeBlh+idvmdxEOtMgrLJefee5QJDaQX3bzc5HFKStdFrU3VqcTshV/dEVOrO9Fml19EI7O/eQs0ZlPXEDdfjj/Oe8nGz3Z7WnNPvcq+JR6edqL//BQ==);strokeColor=none;strokeWidth=0;spacingTop=-3;spacingBottom=-3;spacingLeft=-3;spacingRight=-3;labelBackgroundColor=none;rounded=0;html=1;whiteSpace=wrap;" parent="6" vertex="1">
          <mxGeometry x="25" y="25" width="257" height="279" as="geometry" />
        </mxCell>
        <mxCell id="8" style="vsdxID=7;fillColor=#f7f3e8;gradientColor=none;shape=stencil(hZDbDoMgDIafprcE6aLj2rn3MBEHGQOD7ODbC2vMdMnc3d/26+kHrEfdDgoEH2PwV/U0XdSAJxDCOK2CiUkBNoB174O6BH93HcVDm8msbv6RJ7yoT0pWydwl+ESZgvN3fCbcGrfCORPFhi6RHXbwDbszd1m6oFiyY/Ub/3t1Ep+Pe2MtGbaufzuUUuQuNjM=);strokeColor=#6da0bc;spacingTop=-3;spacingBottom=-3;spacingLeft=-3;spacingRight=-3;labelBackgroundColor=none;rounded=0;html=1;whiteSpace=wrap;" parent="6" vertex="1">
          <mxGeometry x="90" y="49" width="155" height="255" as="geometry" />
        </mxCell>
        <mxCell id="9" style="vsdxID=8;fillColor=#f7f3e8;gradientColor=none;shape=stencil(fY9LDoMwDERP421l4g17oPdAIjQWaYJCCvT2TWRVfITYzdhvLA9QNZl21KBwisEPeuEuGqAalGJndOCYFFADVPU+6FfwH9eJH9tMZvX2c76wSq5AzBmFX/HinoJadjfo31/CR7QsHlju4SS2j3q2Vgrt9+cGaSTtqfkB);strokeColor=#6da0bc;spacingTop=-3;spacingBottom=-3;spacingLeft=-3;spacingRight=-3;labelBackgroundColor=none;rounded=0;html=1;whiteSpace=wrap;" parent="6" vertex="1">
          <mxGeometry x="194" y="144" width="50" height="161" as="geometry" />
        </mxCell>
        <mxCell id="10" style="vsdxID=9;fillColor=#6da0bc;gradientColor=none;shape=stencil(jZDNDsIgEISfZq9kYbXqudb3aFIqRISG4t/bC26MrdHobXb4ZrMMUD2adtCgcEwxHPTFdskAbUEp642ONmUF1ADVfYh6H8PJdzwPbSGLOoZz2XDlHIqFLCGFNzakEpvVw9kx76yf8BJxhuP/6LoSy+o7Poef4c/oz6OzeP24t85xYdP394ayxe1Scwc=);strokeColor=#6da0bc;spacingTop=-3;spacingBottom=-3;spacingLeft=-3;spacingRight=-3;labelBackgroundColor=none;rounded=0;html=1;whiteSpace=wrap;" parent="6" vertex="1">
          <mxGeometry x="245" y="119" width="39" height="185" as="geometry" />
        </mxCell>
        <mxCell id="11" style="vsdxID=10;fillColor=none;gradientColor=none;shape=stencil(jZHdDoIwDIWfZrdLaUHhGvE9SBiyOBkZw5+3d7MxgvGHu9P2O01zKqgcu3pQAmH0zh7VRTe+E7QTiLrvlNM+KEGVoLK1Th2cnfqG66GOZFQne44bruyjRFIaXQg37sCj2jNsdD+DE4AFmhYS19Pb/Du7yWWRL+in+yO+XJyBBFoLI8rsxyF/8gjilWSrjeFHzOfvyYcWf42qOw==);strokeColor=#26577b;spacingTop=-3;spacingBottom=-3;spacingLeft=-3;spacingRight=-3;labelBackgroundColor=none;rounded=0;html=1;whiteSpace=wrap;" parent="6" vertex="1">
          <mxGeometry x="128" y="133" width="61" height="52" as="geometry" />
        </mxCell>
        <mxCell id="12" style="vsdxID=11;fillColor=#b7e4ee;gradientColor=none;shape=stencil(lZPdDoIwDIWfZrfN1o6NXaO+h4kgiwgG8e/tZS4oIw70riv9zk7pyig7l9tTzpCfu7Y55De760pGK4Zo6zJvbddHjNaMsqJp833bXOqdP5+2rtJFx+bqFO6eUxJS6SjkD59JFSj9ymw8UNl6BFACXAWATgD/AgSBwDjgLCUBgBLkzA0/9BA2bQwYE1riPK6vORCF+ikoMwugCDtQICkODNcP5aRBp/HyRf9hu2gGtffICEjG9UMzCoduvhdPxzvzJ3snk9EKAZTMAkvW++DzuAtbVX43xt+ny9Cn/CLR+gk=);strokeColor=#6da0bc;spacingTop=-3;spacingBottom=-3;spacingLeft=-3;spacingRight=-3;labelBackgroundColor=none;rounded=0;html=1;whiteSpace=wrap;" parent="6" vertex="1">
          <mxGeometry x="94" y="58" width="146" height="237" as="geometry" />
        </mxCell>
        <mxCell id="13" style="vsdxID=12;fillColor=#FFFFFF;gradientColor=none;shape=stencil(lZnbUhsxDIafJrcanw/XtH0PZgglU0oYoKe3r9N0A5I2v9Z3YZHs/7NlydrdxZvXh9vn/S6417eX47f9r8Pd28MuftqFcHh62L8c3savXfy8izf3x5f915fjj6e789/PtyfL06/vx5+nEX6f/bqj0k5ewf35/yRRrf+efDk7PB6ePjp0Kp47VKptxsE7B8y1oEquTDlIAgu5Vcp5CtlRRpK0Q8BrpCV1amnKQTIIaE8ucwdHDm9bFzPEWYdM0QMHLSlQRKFnM2jowhxqoIY3rnfukKnh0yAdGrmOGYqcwaPgsxks6FLIhxmG0snHKWhPcYqhNEpGaBgMGroyh9yogxmWHHQZ38+ZJ/LoeCo5Y3y0BbZ8lcM6X6DsCacwvmM5UUYboOwLVRQSWk+kis6BCaCB+QqlRMFIR9y+UkCClH2njLZMCyqUcY63CCzkOHI8ijqF4Ky6JuwDLv1a0KhSRlQYBBqZ15DoKBqpiFfaGCkaayQcMq7lWlKgYgSGwcChU1526XJBykuhW51hnN3EZ/ANXpG0Q3Dw8KxIqnBZNzBo6MQlBQog+E4MPJZChgwrDhWlyBVFCUbGBgSTuZMDWVgjjNibdBg5xtg3LimOUj7FLBEUc4k8ycTlyTWEzAvDyKsFIKw4NHjJW5GUqYMTvYHBgs4OXuc1wyifDacA6VCWK8RGhjEDuuRtYDChKyyIJwaeM8qoV6BErziMqzA4DiuSOrzOb2DQ0IFLSjTHXCGCdqij5zH2LcgZUEdiIyjkIBSZmdvz6lPNzC0dKrytrkgay4b32WLQ0Dzv1U4Jx6rnmXg0t/hAS/tEFScloah5+I5hAwJnVh1PAhlstCv84IyoS4BX23cqYMeEGNyNGMoF5lK/Phz5AAYfyvkyjqw1Zx8ogfKk9eBGxNYveSM/XKPRqahLWF7iXMYfXQK6MCv7tFyIr+gXesb4DkSard/iHQcRtRQUeTp8v/NstK9wfbSekW7h/lr6FS/v6kaDAztxqT82VME0rieH5Xc5PHqNaMuXuIHbB79k0iv6A9cfLtVmo30hGJ1STjROuyVf7S4z93F5j3JNvbAvk/adPAgeJacshXWbuVSPYeuyFxu1u0n7AEuWVNPhncTSrkh50kRfSGQdj7AnVOYZliulJMDXZlj4+PH+4en+8Ph4/m718f/yQ9V4dP7IFT//BQ==);strokeColor=none;strokeWidth=0;spacingTop=-3;spacingBottom=-3;spacingLeft=-3;spacingRight=-3;labelBackgroundColor=none;rounded=0;html=1;whiteSpace=wrap;" parent="6" vertex="1">
          <mxGeometry x="127" y="87" width="113" height="206" as="geometry" />
        </mxCell>
        <mxCell id="14" style="vsdxID=13;fillColor=#f7f3e8;gradientColor=#b7e4ee;gradientDirection=east;shape=stencil(pVhJcttADHwNr6jZl7Pj/MNVliNVFMkly1l+HzA0HQEQAS03atSY7sFgI4f48LZ+el0Nwb0dD/vvq1+b5+N6iF+GEDa79eqwOeLTEB+H+PCyP6y+Hfbvu+fp9+vTiByffux/jjv8nuxCg+BHq+D+TCs5Qkn/Vr5OBtvN7sQgO6iBGJQEgRhczcAMHIRODNyynFSg0t19gLCMDwViIvjgobRlA0fAHVJRNteV02Oi8taE8ry8e40QqfIEScHnAJ0axDivLPkmd+6bqjjzgiPQM+MRcuNnKH2ZwTvq/4iMCrx2KDQ4UWKsio8iv7GYwN93AhbNhYc/OrUpkqRBy9DCXQzUAAODncEIDGnQ63zztzJQAw+RXgMWlY+8Pu8k3I7ga4bo79mf4wurWW2OrPN6MGpYVewQlEuzCSx8gKok/xlBWD6UwLYJBJ5lWoWg1UYhKGMMlXsILPznpS8KouUxe+hKJtsEHJ8LTUvsHkqnQUGuUgIHTskym8DCK31eqsHKqLpf3VyA6d6+zdGxKIZV3cY607UErIZW6JSgFuhKOOMYlGhFaXX2wK0Mcm6ieKf2jXEwY33DQ1LagE1g4Is2fAg1WKGvOW1Rao8A5w5Z6RZnxDjwSvm3CQT+Y2g4GVS0WQ4VFZou4yylH9likAaUITp9FEJJovx0PR4sBjYVpHnS/oxQLFjLimoFT3NsHgdv3F7gWQZHNkMIOYlGUccpRIkKm8DAj4y6f5ig1sBdc2JBYOGxQ2pvKFIQDoJKkNoEEk8JSmEtUipiRa6w172rGYRBo4lZsGvrToo0bbAYadXuAgbLAFe8kvpS0jge65lsMVgGqakvflISluCgTFsXMEgDVoIDND3/Iy2Q+PaY9Hy2GPDh/5eZl812O33YOf2ff8nBpekrUHz8Cw==);strokeColor=#6da0bc;spacingTop=-3;spacingBottom=-3;spacingLeft=-3;spacingRight=-3;labelBackgroundColor=none;rounded=0;html=1;whiteSpace=wrap;" parent="6" vertex="1">
          <mxGeometry x="91" y="26" width="193" height="253" as="geometry" />
        </mxCell>
        <mxCell id="15" style="vsdxID=14;fillColor=#7bb4d2;gradientColor=#658eb8;shape=stencil(lZrbchs3DIafRrcYng/XafoemYlTa+raGcfp4e3LrbqKCSA/yDtFxh8B+EgQC+4lfvj2+OnrwyW4b2+vL78//HX9/PZ4ib9cQrg+Pz68Xt/Gp0v8eIkfvry8Pvz2+vL9+fPt318/HZbHpz9e/jz+h79vuuCphEMV3D+3bxql8t8Xv97sn67P7+x9o5wn+0ox7NgXqvXn9o5Cmczdhm0g33dcadQ27QMIVaayU0w79jz1EpWf7H2maLBKsyDBCBRBpLJDqxBIqLDu5Iz8Jx5v3RV4gxjLaKFgIDMQWMzGN83vxDDShhCoAhS0oDAYx7xjn89fXHUowKQqAk8ZhKwkNVABC2OBgsQ22zeqBrU4CyoMQRU4TG2uRT++WbQPlAwIzKFOfk8wypdBjf9ANqBhBpJZmwQpEEbAFkXyZ8FfFiAAcU5PTHAXSPtCKW55E8nvCQI86pWERsptS8AImMTGmtsjANxRrCsluGcYguRgWZH2gdqeQx0mVIuXOlh0MqPZkQOLYgGBxSwXcgaz2T6hHkEzx6dTnHuowRhVFWnfqRoIeLjWopvtMzzv1Xz2LWICgCAWWZMWKeDDLPRZEMjhPpMLRiWFtdHNy3pArrA2cvuRI3w2cYdGH4trowy549rIk5rI4dpoUZDY2IPW6OsMbPPCKA3GoArgkcYZF7QxebDNANZ4sEaTyX3v1HD3IdPZDWBG/mdgxVGaS0tLcBfkyn+hRfg8pwgCLC5xPGDVOYZRK0BaFUGDXYviUoJbUxUEELSS1vHIBcAtcJDg5nO8VjIwFJ5V1EgpggyP8QODWN2oGZeC6uHsQXGpwUZBEVS4WJWsNnhy2hgEtio2KGrvRghFZBWHzO3b+ZM/ozA/x44S2UEvIu0TeZAh6dCIGDWcqgAd/UpO/dnkrgo4BEmNNUiVcJEs88k8GqpuUBYCvHWS6LHLlmD02M1YR52HnPcEhRreazKp6HCzKVh7bRzo6FlZ2TsBUVDsPbWdvTYoo2GitK9nB7HqUIQpVQVbO2fs/v8PrlUBZyCgMY9igbv/CGFe2THDxl8R4JZnUIhi7GWUVC7oVn/BXSpwO6tBd9BJKmmtcOktcLDAjaDrFofQzruFdYEDQSscPFrdin2kBJKkYHDwNkcJoVPG+4djcHBlLGCQ3Oa6HQKs20cMgWcVzZlVgQe/EO9XUKfAJ+M05PYFzlMUj+L5LL0qCHCtKlmNcFqwgGHm1vs5cXm3o1Gr2u/H8bsdjdokRZDh2Gn0ynl+EDsuy8DKkILoYbFXXKpoMKfaBxSzzGqDo7wFDJLbvJRSgo+GRwzzEZoijkEKwlkUVjHk08lVQYNjHsWlBIcAqgA9TCppzfARfYGDBc5ooZUYOuSgCtDtiOQwSKPnW0Uweh+UJeFS9vAKTxE4eF2gpNWjG7AFDJIbe/QZ7ZvBjbXdBYegCdBc4sAwl6UBOoCgpWAkCU1vFJcaPHMVQYW9j5LW+8XPqoBzmMF5x8axZslglbjg90BUAXoJYVAobG0XeDgoggYnxIpLGY4yFUHCd/g8qRneFpoMMLI6tjJIqPT+mKBvIRsC9AaCJHDcYGwhGxlCAzrFpYBPKinw8B0EkdQAm1uTgSyPc+NZzUrBCnDFb4EoggIDrvdZ1ruZ55b9iBm9JKd41GBO1ZhRh6RktcNLjAUMFreW4dOwjKFFHIMmiHscCrqTUOwb4XOWO5TJ2JrMfpSvLWrjB9DgZgGCoFbmBqwH+HZjL+xqvnuLMrN3cMAwMh4FZDS2UQR4ti09CvAOVosYzTCVlEY0nF9AIJkxjzrsE/p9+nAX4Mm2KkDvUR0Q5l5qYC4GNc+DRqNqxaUOh+eKoMF7HpnW8+RaNBcUxocfb4x/uT493V44f/93/ob5+Or2dnr8+C8=);strokeColor=none;strokeWidth=0;spacingTop=-3;spacingBottom=-3;spacingLeft=-3;spacingRight=-3;labelBackgroundColor=none;rounded=0;html=1;whiteSpace=wrap;" parent="6" vertex="1">
          <mxGeometry x="94" y="63" width="131" height="216" as="geometry" />
        </mxCell>
        <mxCell id="16" style="vsdxID=15;fillColor=none;gradientColor=none;shape=stencil(hZPbDoMgDIafhtsGWkG43uE9TOYmmVOj7vT2kxC31US8K+X/aH+ggnZDVXSlQDmMfXstn/40VoL2AtE3Vdn7cYoEHQTtzm1fXvr23pziuiuCMkS39hFOeEUOHVgbKJTvmMkJspg5RqD2zR8gQRHTGwSV0jOxXBeGThwTKwVEaWCjde7VZOAyBlgDJl+vQHq29q2ggdKANNwDgXLrQGhJMwAz0JgGNjxw086BW1yrTLxCLgEX51tIOJ70SnEDJmlgrj7LKQdr1uWb7U/B72+ffV3H0fjfX87ClIpzRIcP);strokeColor=#26577b;spacingTop=-3;spacingBottom=-3;spacingLeft=-3;spacingRight=-3;labelBackgroundColor=none;rounded=0;html=1;whiteSpace=wrap;" parent="6" vertex="1">
          <mxGeometry x="95" y="58" width="146" height="237" as="geometry" />
        </mxCell>
        <mxCell id="17" style="vsdxID=16;fillColor=#f7f3e8;gradientColor=#b7e4ee;gradientDirection=east;shape=stencil(hZDdDsIgDIWfprek0knC9ZzvsWRMiAgLw6lvL0iMw/hzd9p+p2kPUDvrflLAcY7BH9XFDFED7YBz47QKJiYF1AG1ow/qEPzZDaWe+kxmdfJL3nAtvg1i9nC8lVo0jJpHZ19wa9wKR4ZU8fiDrUDaMiG+w1IyKSvD87KP+N+zk3i9PBprS2Lr+XtEqVXipe4O);strokeColor=#6da0bc;spacingTop=-3;spacingBottom=-3;spacingLeft=-3;spacingRight=-3;labelBackgroundColor=none;rounded=0;html=1;whiteSpace=wrap;" parent="6" vertex="1">
          <mxGeometry x="128" y="145" width="41" height="39" as="geometry" />
        </mxCell>
        <mxCell id="18" style="vsdxID=17;fillColor=#7bb4d2;gradientColor=#658eb8;shape=stencil(lZLdDoMgDIWfhtsGW3V47dx7mIiTjIFB3M/bT0aWqckWvTunfKdpWhiVQ1f3kiEfvLMXeVeN7xgdGaIynXTKT4pRxahsrZNnZ0fTRN/XgQzqam+hwyPmEs5DBvkz+oJD/i6cIq2VmdEigxwX/EEA4a4AQkq/A8tp+FYQCVKxZ4wiA0z2BMSf9uslfvwmeL3xSXyP1Sqt463n7+vjTqX4Mah6AQ==);strokeColor=none;strokeWidth=0;spacingTop=-3;spacingBottom=-3;spacingLeft=-3;spacingRight=-3;labelBackgroundColor=none;rounded=0;html=1;whiteSpace=wrap;" parent="6" vertex="1">
          <mxGeometry x="128" y="150" width="26" height="19" as="geometry" />
        </mxCell>
        <mxCell id="19" style="vsdxID=18;fillColor=#FFFFFF;gradientColor=none;shape=stencil(jZBBDsIwDARf42sVbCq4l/KPSk2JRUiqNBT4PYksRII49LZrz1ryAnWLGWYNqJYY/FU/eIwG6ASI7IwOHJMC6oG6yQd9Cf7uRvHzkMmsbn7NF56SUzmB6lW6s4CWXQHuVI22h6al7fjH/4VrdE/NEbfC1dUkvn9ObK3UVO5/e0kj6ZT6Nw==);strokeColor=none;strokeWidth=0;spacingTop=-3;spacingBottom=-3;spacingLeft=-3;spacingRight=-3;labelBackgroundColor=none;rounded=0;html=1;whiteSpace=wrap;" parent="6" vertex="1">
          <mxGeometry x="159" y="173" width="9" height="10" as="geometry" />
        </mxCell>
        <mxCell id="20" style="vsdxID=19;fillColor=#6da0bc;gradientColor=none;shape=stencil(jZDdDoIwDIWfprdLWZV4j/geJAzXODcy5t/bu9kYwRji3Wn7naY9QM1ku9GAxinFcDI37pMF2oPW7K2JnLICaoGaIURzjOHie6nHrpBFncO1bLiLD4tD40OqTa2qV+MgrGM/Yytc0vg/uq3VbmUzKqQF//b/pldvzuLz7MDOSVbz+Xc4uSXBUvsE);strokeColor=#6da0bc;spacingTop=-3;spacingBottom=-3;spacingLeft=-3;spacingRight=-3;labelBackgroundColor=none;rounded=0;html=1;whiteSpace=wrap;" parent="6" vertex="1">
          <mxGeometry x="170" y="159" width="19" height="26" as="geometry" />
        </mxCell>
        <mxCell id="21" style="vsdxID=20;fillColor=#f7f3e8;gradientColor=#b7e4ee;gradientDirection=east;shape=stencil(hZDRDoIwDEW/pq+krAnZO+J/kDDc4tjImIp/72ZjZEbC2217btNeoHbR/axA4BKDv6qHGaIGOoEQxmkVTEwKqANqRx/UJfibG7ie+0xmNfl73rCyj+qKKLsEPrmD7+rMsDVuA9eIBdrIipp9PI1lwX/8f+lydbpLyH344Owkvg+PxlrOazv/DSi1OFzqXg==);strokeColor=#6da0bc;spacingTop=-3;spacingBottom=-3;spacingLeft=-3;spacingRight=-3;labelBackgroundColor=none;rounded=0;html=1;whiteSpace=wrap;" parent="6" vertex="1">
          <mxGeometry x="128" y="133" width="60" height="37" as="geometry" />
        </mxCell>
        <mxCell id="22" style="vsdxID=21;fillColor=none;gradientColor=none;shape=stencil(jZHdCsMgDIWfxltRM3Red917FGqnzGmxdj9vP53IfsCyu5PkOyGcIOgWPcwKMbLE4M/qZsaoERwQY8ZpFUxMCkGPoJt8UKfgVzeWeh4ymdXFX/OGe/GR7GDkUao9lrtX41hYa1yT5RwLaMNCYi6+DJSQNl6HFZYU0/9pACxEG2d1WeU3DtkOJIl3kpOxtjzic/6bfGqVr0H/BA==);strokeColor=#000000;spacingTop=-3;spacingBottom=-3;spacingLeft=-3;spacingRight=-3;labelBackgroundColor=none;rounded=0;html=1;whiteSpace=wrap;" parent="6" vertex="1">
          <mxGeometry x="90" y="25" width="194" height="280" as="geometry" />
        </mxCell>
        <mxCell id="23" style="vsdxID=22;fillColor=#afdce7;gradientColor=#7bb4d2;gradientDirection=north;shape=stencil(vVTLcoMwDPwajmj8kLF9TtP/8DSQMKWQMbRJ/76ihjZKA50e0pst71ore6VMb/pDOJaZEv0Qu+fyVO+GQ6YfMqXq9lDGeqBVpreZ3lRdLPexe213aX8MI3JcvXRv4w3nxBMjQ4n3tFMWjPuMPCZwiE90GiewL8DKRIgzA8HqFJpARoJT7FYKFBMkD+e6z2M3hKHuWiahCXFf5pQwr5qwZ0f9qSyPF2G5LFF5QMclUk3IFHoE9LxukPhfCrWkVzRcopMgJNMoBf8ZIml5P4lN3V6YwmlQ+toYhVshCPCWEbQDpZYJ1gEiI6BfJ1AG/mfjm+llgvdgeQbnwfi/ELycvX1bkgXNi/YGpFkmFBYsr4Gc+AtBGU4oQK3UgAiOZ5h9dBMuqTMdfyMHzi4TDAj+RIacgsv4H7YgPLL7eW8gks+nT/pqDimpqc08QdbH1l2agxbf47OqmyZN38vz63FLoTSq9fYD);strokeColor=none;strokeWidth=0;spacingTop=-3;spacingBottom=-3;spacingLeft=-3;spacingRight=-3;labelBackgroundColor=none;rounded=0;html=1;whiteSpace=wrap;" parent="6" vertex="1">
          <mxGeometry x="41" y="78" width="46" height="183" as="geometry" />
        </mxCell>
        <mxCell id="24" style="vsdxID=23;fillColor=#e1f4f9;gradientColor=#7bb4d2;gradientDirection=north;shape=stencil(tZLLbsMgEEW/hqVHPF1Yp8l/oAbbqNRYmDz698XFUT1Juuiiu3kcLlejS8RuHuzkCKdzTvHdXfwxD0S8Es79OLjkc6mI2BOx62JyfYqn8Vj7yS7kUn3E86Jwre/o8oLTz7UDKb8Hh8oGP25YDVQgvOWg1R/4Fw2c/c4bDQzxjNItbdNb2aWVVgK4rnhaec5uAjdFA0whSSOhNSvT2KufmxSzzT6O6B7Bpt415cOmC7ZHq/ni3PQwfmqRMwbUYI9agDLIpJIg7u5UmPb/TOKrSwkUnx3BpfjJTudDqNHb7u+zVkY1p2L/BQ==);strokeColor=none;strokeWidth=0;spacingTop=-3;spacingBottom=-3;spacingLeft=-3;spacingRight=-3;labelBackgroundColor=none;rounded=0;html=1;whiteSpace=wrap;" parent="6" vertex="1">
          <mxGeometry x="30" y="178" width="33" height="83" as="geometry" />
        </mxCell>
        <mxCell id="25" style="vsdxID=24;fillColor=#FFFFFF;gradientColor=#da8c36;shape=stencil(vZPBcoMgEIafhqM7uIui5zR9D6ZBZWrFQZqYty920yTkkFtzW/7/X/hgFkG7ZTCzFSiXGPynPblDHAS9CUQ3DTa4mCpBe0G7zgfbB/89HXg9my25VV/+uO2wcl+loaatC+WZFQRsfoV3zpvwkczwlyfQivPh0qAIqGTpEmpbUNmelbqeshZmdUsRfDTR+Yl9yd5oQm+LdGDRjabPrOVk7Xwnl08QG2ibB0QNFWWIKl2zzhhLKV9FWCOoMiesJOSAEpTO+JR+4RuqBrDNCSk9K2aIT2bnXxBTcRvjzo0j/4J7/3Hsk8RfhvY/);strokeColor=none;strokeWidth=0;spacingTop=-3;spacingBottom=-3;spacingLeft=-3;spacingRight=-3;labelBackgroundColor=none;rounded=0;html=1;whiteSpace=wrap;" parent="6" vertex="1">
          <mxGeometry x="27" y="171" width="17" height="21" as="geometry" />
        </mxCell>
        <mxCell id="26" style="vsdxID=25;fillColor=#7bb4d2;gradientColor=none;shape=stencil(tVPRUsMgEPwaHnNDOAjwXOt/MJYkjDFkCLX17yWSjiHaPunbsbfLLTscwcPcm8kSRucY/Ku9uFPsCT4RxtzY2+BiqggeCR5aH2wX/Hk85fNkFuZSvfn35YZr1jUcKFtUjH5kRAsQ+gt5zoLBjRuBboDpQlBTuqWb8JJ6YaVzBWqlhxu/BokZut0pQaudiZVQmaubq+Cjic6PuZnH0cGEzlZpXNUOpita88Xa6Qf8q0HGKXAsHQoJjSocIoIsY5IS6v/zWGbOODSimP6ALAFlwWUg8D6dlq9SoPF+WBoZoCrDSuHs03r0qf4qrnrrMhXfH7x1w5D3Y9vfL0SC8jLh8RM=);strokeColor=none;strokeWidth=0;spacingTop=-3;spacingBottom=-3;spacingLeft=-3;spacingRight=-3;labelBackgroundColor=none;rounded=0;html=1;whiteSpace=wrap;" parent="6" vertex="1">
          <mxGeometry x="58" y="166" width="20" height="85" as="geometry" />
        </mxCell>
        <mxCell id="27" style="vsdxID=26;fillColor=#f7f3e8;gradientColor=#b7e4ee;gradientDirection=west;shape=stencil(tVNBcsMgDHwNR2uwMDY+p+k/mATbTKnxYNq4vw+u3NY005yam7Ra0K5GYuIwD3oyDPkcg38xF3uOAxNPDNGOgwk2poiJIxOHzgfTB/82nimf9Mpco1f/vv6w0DvBoZXrK+QfhJScf+bPRNfhlGphozcVKGKHjd5KqAjZKFKAqLIfpYR667EUerFzEXzU0fqR6tSPOx16U6R+Red0n5XmizHTDi7/Vig5KMwl1tU3tOQevxQKfJw8Z8fdvGsFKp+3AlT37ZS3djI3iIC5nRJa8a+O7q9E29zsRJ0PPB93k3bmgfpS8LPunXWOrmVf/30eCaLTEscr);strokeColor=none;strokeWidth=0;spacingTop=-3;spacingBottom=-3;spacingLeft=-3;spacingRight=-3;labelBackgroundColor=none;rounded=0;html=1;whiteSpace=wrap;" parent="6" vertex="1">
          <mxGeometry x="28" y="65" width="54" height="42" as="geometry" />
        </mxCell>
        <mxCell id="28" style="vsdxID=27;fillColor=#e1f4f9;gradientColor=#7bb4d2;gradientDirection=north;shape=stencil(vVTLcsMgDPwajtaAhAGf0/Q/mAYnTF07g93G/fvi4iaBPk5pbmJXCytZFqPNeLBHx5CPUxie3cnvpgOjB4bo+4MLfooRoy2jTTsEtw/Da79L56NdMpfoZXhbbpiTTgMXiwj5ewIIjPwEHlO6DU+RDGs6kgSkJAirQjaACVmTBMg6u1Mg1KtoruzsxyoMk5380CeeJ66zYe+q+GDVdnafUePJueM3+EeLQiiUQIVJlFKA0ZnPGmqd+WzojNzBJxdQFyYFUN7KRgAvPDag8V4eCRW/9OTLpjLSgDG5USqbGT8CmpsaFX/MJVfntpznkkAW3WygxnwyFRj1fyY731/9a4Lz8nGpfq9JR1rmJUUFV1lJGjCviEDftuvZeMTgskla33VpEV3z5eaJUNpatP0A);strokeColor=none;strokeWidth=0;spacingTop=-3;spacingBottom=-3;spacingLeft=-3;spacingRight=-3;labelBackgroundColor=none;rounded=0;html=1;whiteSpace=wrap;" parent="6" vertex="1">
          <mxGeometry x="27" y="94" width="17" height="82" as="geometry" />
        </mxCell>
        <mxCell id="29" style="vsdxID=28;fillColor=#7bb4d2;gradientColor=#658eb8;gradientDirection=west;shape=stencil(tZJNbsMgEIVPw9IjfoNZp+k9UINtVGosTBv39oViKZ5I2bW78Xt8wxs8RJzXyS6OcLrmFN/dzV/zRMQL4dzPk0s+l4qICxHnISY3pvg5X9v3YuvJWn3Er9pha5zRoFSlOP1uCpPA2a/y2oDgZwwwDCgFTBwBm96Km3ZAKNCnBqSd0BSobtJ278FQV8OA7djW2c2vXYrZZh/n5tPmBZtG15UbuyHYEVnrzbnlILPnGetQPc7IDAXJUEiKAmoN/P/y4UcvUQS6nD6fpT+BeZylPLiUaBajwEj83zmo/k8HQiFLcd/BwYfQVvjoP+5skdq+i8sP);strokeColor=none;strokeWidth=0;spacingTop=-3;spacingBottom=-3;spacingLeft=-3;spacingRight=-3;labelBackgroundColor=none;rounded=0;html=1;whiteSpace=wrap;" parent="6" vertex="1">
          <mxGeometry x="47" y="69" width="21" height="10" as="geometry" />
        </mxCell>
        <mxCell id="30" style="vsdxID=29;fillColor=#FFFFFF;gradientColor=#da8c36;shape=stencil(zVPRDoIwDPyaPY6MzUXfEf9jkQGLyEiZgn/vlg4Fok/GhLde79relpaIrK9VpwlnvQN70YMpXE3EkXBu2lqDcT4iIiciKy3oCuytLRB3KihDdLX30GHEupSxUMPZA7FEeEKtgrOnIGrlPhES1RDlO5kcYmpcNJj6vfqPVI2mp2Cdcsa2yEauUVBp6ofRslHVguoHrbtZOv3R3sfXbsXc6u+2Ze7LpvzF3nJHKZeLyROOYh+8t7s0TYPHMefX1+BTeEkifwI=);strokeColor=none;strokeWidth=0;spacingTop=-3;spacingBottom=-3;spacingLeft=-3;spacingRight=-3;labelBackgroundColor=none;rounded=0;html=1;whiteSpace=wrap;" parent="6" vertex="1">
          <mxGeometry x="40" y="30" width="35" height="43" as="geometry" />
        </mxCell>
        <mxCell id="31" style="vsdxID=30;fillColor=none;gradientColor=none;shape=stencil(tVHbFoIgEPwaHuEgmNqz2X9wEpUTiWeh1L8Pwy5Yr73tzs7sDCzipe3EIBGj1oE5y1HVrkP8gBhTfSdBOV8hXiFeNgZkC+ba16EfxMJcqou5LRumoKOLgtE5dKwg/AEcA1fAyQ9h5WY7kqaBD0+BV2T7gK2sNCNpEm1N6OoyYTEpi8E44ZTpowRaQCuxN8SNFm00sqOUwxf8O6J/AN9E5AXJ8yjiK9Ac+fwjni/eX98orcPlPufbU3konJlXdw==);strokeColor=#d75139;spacingTop=-3;spacingBottom=-3;spacingLeft=-3;spacingRight=-3;labelBackgroundColor=none;rounded=0;html=1;whiteSpace=wrap;" parent="6" vertex="1">
          <mxGeometry x="47" y="67" width="23" height="6" as="geometry" />
        </mxCell>
        <mxCell id="32" style="vsdxID=31;fillColor=#FFFFFF;gradientColor=none;shape=stencil(tZLRbsMgDEW/hsdYYJICz133H2glCRoLEWFr9/cjI9XiSttetjf7+hiurMvkcRnt7BjyJaf47C7+nEcmHxiin0aXfC4Vkycmj31MbkjxdTrXfrYruVYv8W194Vr3+LqB/L12wgBXn8pjhYOfdrBG0JTnfE/b9FRmaaNRgKx02nDZAscqbYzRgORFfYDuhjT26pcmxWyzjxPxG2waXFP+a/pgBzJaLs7NO1l871CBuXMoEA6KOpSgWmJRidsV/sjhDzfsWsOh1dSkVqqIHbEpDPHI/++ENBK/5KcUX8nrfQg1uPv5fVKLVFMuTx8=);strokeColor=none;strokeWidth=0;spacingTop=-3;spacingBottom=-3;spacingLeft=-3;spacingRight=-3;labelBackgroundColor=none;rounded=0;html=1;whiteSpace=wrap;" parent="6" vertex="1">
          <mxGeometry x="81" y="108" width="35" height="22" as="geometry" />
        </mxCell>
        <mxCell id="33" style="vsdxID=32;fillColor=#FFFFFF;gradientColor=#da8c36;shape=stencil(vVPLcsMgDPwajtYAih+c0/Q/mAbbTF3jkWmT/n2h8kxK3B7Tm9hdiZVGEnhcR7s4oeUaKby6iz/HUeCT0NrPoyMfUyTwJPDYB3IDhff5zO/FZmWO3sJHrnDlvAa6Oidp+cmANmC+gWeWW3pJJG3yQwuoWE9bQq1AIUObCFtoVFG066Azm6ayV79WFKKNPszMS+YmS4Or0o9VP9mhoNaLc8sO/tUjGqjvPB40tIVFg6DKvlt5a+PhFvMY6/0YS4+NBjSFR6VA/usY9X6MqvT45/o8xGEKbovc+2niO/jJ3y9+gvho8PQF);strokeColor=none;strokeWidth=0;spacingTop=-3;spacingBottom=-3;spacingLeft=-3;spacingRight=-3;labelBackgroundColor=none;rounded=0;html=1;whiteSpace=wrap;" parent="6" vertex="1">
          <mxGeometry x="107" y="125" width="23" height="22" as="geometry" />
        </mxCell>
        <mxCell id="34" style="vsdxID=33;fillColor=#7bb4d2;gradientColor=none;shape=stencil(rVLRcoMgEPwaHr1BEJTnNPkPpkFlSsU5SWL+vljsRJImT3m729s9do4lfDf1ejSE0Smg/zIXeww94R+EMTv0Bm2IFeF7wnetR9OhPw3H1I96YS7Vtz8vG+akK0FVi4jRawLob3dIXGeHDVcJUDwjCw413wo0fsYprgLWgCyTAFcFq0GKBP05oDTbqSismrnQs50K9EEH64etP+o0dqaIzxWt0102mi7GjA/w/wZLkOrOIAVVZwZlA43MLDYCKvFWj+Xzq+fXqQQw9Zz8+jtjcctBa51LMdrO73MToZQ5vv8B);strokeColor=none;strokeWidth=0;spacingTop=-3;spacingBottom=-3;spacingLeft=-3;spacingRight=-3;labelBackgroundColor=none;rounded=0;html=1;whiteSpace=wrap;" parent="6" vertex="1">
          <mxGeometry x="80" y="112" width="31" height="32" as="geometry" />
        </mxCell>
        <mxCell id="35" style="vsdxID=34;fillColor=none;gradientColor=none;shape=stencil(rVTbboMwDP2aPGLlSpLnrvuPaA0QjQEKbG3/fmFBG0Zrp6K9Gfscc+JjmYjD2LjBE07HKfav/hxOU0PEE+E8dI2PYUoREUciDlUffR379+6Uvwc3I+forf+YO1wyT1mwbGZxes0ZqcCKr8xzJrShWxM0QhsLGqFdfEnVuKC5MaBkZsSFwigFWebcAjMSaIn6JtCCKNwljEXsJzeFvsvVpda6WPsi/bGoWlej0nj2flil2VrjwyPABItHwCwYdntg3y+5rgXuaozRuG16BbW3jWAGuMI+lCAUcoFr4FiBoqD5Ph/Y7z7QOxI1MIYlJh/woggNpcRelUDlv67KHYnSMgZ8u8+apg0yW51mY6YEuXOUj6/0H6uRgp97UIW2zedkXd/ej5TKt0ccPwE=);strokeColor=#295687;spacingTop=-3;spacingBottom=-3;spacingLeft=-3;spacingRight=-3;labelBackgroundColor=none;rounded=0;html=1;whiteSpace=wrap;" parent="6" vertex="1">
          <mxGeometry x="29" y="100" width="52" height="149" as="geometry" />
        </mxCell>
        <mxCell id="36" style="vsdxID=35;fillColor=none;gradientColor=none;shape=stencil(xVfbkpswDP0aHqOxLcuX5+32P5guSZimIUNoN/37ihJMZBo6nVnoGxjLHB8dHcsFvlyP5aUqjLp2bfO1eq/fumOBnwpj6vOxauuOnwp8LfBl37TVoW2+n9+G90vZz+yfvjU/+hVuQ5yDYPsgo34OA16Bdr9HPg/zT/X5YX6AgGJ+8P8wORrAhfnogIwI0Eo9n24JKMr1PSA+BpTtF/7a3gMI4h1Pew8w4Ac8aU0L0ck1LZg7Rbddeauvu7bpyq5uzsP3AaA6le2h2vH/dvtTeRCfru9VdZkN/3FLpGZbcqAW8kERfIYXwS5yEOKMAxIcUICYgVApk2twIBFqpR1YJ0Fab8EFmSo/06KFED4Upl5g3gCR+L01oMPzAM8BXgZ4cPY5EZzajAQgFBQEDV7LJQPYj6VgKVO8YZIQCZwsKC7JMIM4jqwPMSY8DyQaiZArTMqdTUCZzUjE0XATRJdoHfNMYDPp6FEc6yNEUJltarCSw4CzLKtUHusjJK8ihCzRxjk3FUOyy8wzECfFrm/vIZ03I0gayX3ihcmKpwrT0gRodmRxftRmRxYrESWl2oMJz/fEB461mZ5Unig2CRXEqhHIbVaTYaamB9O6C4crUDYrakt4YQZPVqQmQPffCOxznCHkHEtTY5VGeYD2wlnxZJC67X+fNZtcnQu6ZUnqvHXiI13ntGcFrpN7buDUbA6ZbvteSioDAeW+cWJiA2WQcskwEkjN147RFKZTRzLpVNrc+jB96tVGjJg3XwRGtg3OgNusseG2IWQsTl3z3y93qyDkh+meua9Pp+Ga+vg9v5fy0HCnxddf);strokeColor=#000000;spacingTop=-3;spacingBottom=-3;spacingLeft=-3;spacingRight=-3;labelBackgroundColor=none;rounded=0;html=1;whiteSpace=wrap;" parent="6" vertex="1">
          <mxGeometry x="23" y="30" width="107" height="230" as="geometry" />
        </mxCell>
        <mxCell id="37" value="&lt;font style=&quot;font-size: 25px ; font-family: &amp;#34;simhei&amp;#34; ; color: #000000 ; direction: ltr ; letter-spacing: 0px ; line-height: 120% ; opacity: 1&quot;&gt;资源节点据管理平台&lt;/font&gt;&lt;font style=&quot;font-size: 12px ; font-family: &amp;#34;simhei&amp;#34; ; color: #000000 ; direction: ltr ; letter-spacing: 0px ; line-height: 120% ; opacity: 1&quot;&gt;&lt;br&gt;&lt;/font&gt;" style="verticalAlign=middle;align=center;vsdxID=36;fillColor=none;gradientColor=none;shape=stencil(nZBLDoAgDERP0z3SIyjew0SURgSD+Lu9kMZoXLhwN9O+tukAlrNpJg1SzDH4QW/URgNYgZTkjA4UkwJUgGXng+6DX1zLfmoymdXo17xh5zmRJ6Q42BWCfc2oJfdAr+Yv+AP9Cb7OJ3H/2JG1HNGz/84klThPVCc=);strokeColor=none;labelBackgroundColor=none;rounded=0;html=1;whiteSpace=wrap;" parent="2" vertex="1">
          <mxGeometry x="144" y="418" width="254" height="48" as="geometry" />
        </mxCell>
        <mxCell id="38" value="" style="verticalAlign=middle;align=center;vsdxID=37;fillColor=#FFFFFF;gradientColor=none;shape=stencil(vZXbbsIwDIafppe1aud8zdh7VKNAtY6itAz29kuX0uEgIW0SuUvt/PFXx44LsRr29bEpqBpG378353Yz7gvxUhC1h33j2zGsCrEuxGrb+2bn+9NhE7+P9bRzWn30n9MJl6gTBlBOKqq+ogUFGPNjeY2C2r8Fr58FqMCKKPCzghQYjKZ5k1ZQmfRUOcsuZX1ph9L3Yz22/SH6q+jrar9ryhCx3Hb1jrmGc9Mcb8z4gBFBE2dEC1YzRhsYFWd0oE1ORnfH6AxjdIGaM5IDypbHED1NowRBHFECaoYoNSiXC9GBUwmiXoCuvxGABEM0Omc1GnBpxzjApGMQFO8YhxkZiZbwV0ahQUvGKCogXo3WgMl21Uggk3KkCpB3jAX+mhlc7j5Hvzh71y/KpoCcUNJieT6hAZ0ShvA8hYFZJyPBLe/pXxHxP9dcyYTRgVK8FB+MraekMSx+R+i27bo4gW/96cgNpjiuxfob);dashed=1;dashPattern=4.00 2.00;strokeColor=#7f7f7f;strokeWidth=3;shadow=1;spacingTop=-3;spacingBottom=-3;spacingLeft=-3;spacingRight=-3;labelBackgroundColor=none;rounded=0;html=1;whiteSpace=wrap;" parent="1" vertex="1">
          <mxGeometry x="89" y="1222" width="1040" height="350" as="geometry" />
        </mxCell>
        <mxCell id="39" style="vsdxID=42;fillColor=none;gradientColor=none;flipH=1;labelBackgroundColor=none;rounded=0;strokeColor=none;html=1;whiteSpace=wrap;" parent="1" vertex="1">
          <mxGeometry x="60" y="480" width="248" height="248" as="geometry" />
        </mxCell>
        <mxCell id="40" style="vsdxID=43;fillColor=#000000;gradientColor=none;fillOpacity=0;shape=stencil(vVbbkpswDP0aHqOxJXx73m7/g9klCVMaMoTtZv++Sg0BmcvsQ5M3sHSkY1m3jF4ux+JcZqguXdv8Kj+r9+6Y0Y8MsTody7bq+Cuj14xe9k1bHtrm4/Qe/8/FTfP29bv5c7NwjbiQQ9A3FKqveJIrsP7fyc8IqKvTBOADGC8A5IDcFFC0byxtewBasBgBbY9AD5THo9GqQmnVgOqJXXfFtbrs2qYruqo5RbmKsrpoD+WOPe72dXEQostnWZ5nx4scdYA8JBwVOCM5IngnOKIBkz+LI8dRu4SjuzPqlVwAkhRxvMYDKMrcYO8YpHs1MFyO+8huuJOme34NcScgK6xqDfjAS0mOAUKSGporRKavy0HLuKunpa6618mUnxX8bA6O0hBq+zSOCGH+zC5Ijj7tRMjP/KzUtRpsUjlm6AlrAJp1gz4tFoNgAK2MAeuLCJgwM8l9yT0uBJKgJwL0kqL3Lm3VxoMkOQ6MJ5C0CJh0QWuBtKTISrnkyAXwf3NJr6eGURBkw8ppKIA1gPNpTHsTiwAeoMN1JqNgw8NkCI8zOGyMebaXeOA7+A2AEspcHYq+rcxTwK0rWwVGZpxWG5U8CAdlx0N647Fm6nxNXFcPBFaSsWHzqb6xYMmNbHHBEg74Y1zn9lVdx21wKk/XPz6KqyO9/gU=);strokeColor=none;strokeWidth=0;spacingTop=-3;spacingBottom=-3;spacingLeft=-3;spacingRight=-3;labelBackgroundColor=none;rounded=0;html=1;whiteSpace=wrap;" parent="39" vertex="1">
          <mxGeometry x="29" y="35" width="188" height="177" as="geometry" />
        </mxCell>
        <mxCell id="41" style="vsdxID=44;fillColor=#cc6633;gradientColor=none;shape=stencil(hZDdDoMgDIWfprekQoxw7dx7mIiDjIFB9vf2wnoxNZm7O22/nrQHRDubftLAcU4xXPXTDsmAOAHn1hsdbcoKRAeiHUPUlxjufqB66gtZ1C08isOL9rBscHxTJRVT8tM5E+ysX8ENq+sNj7/ZCrfWFbIDZ4lMqR1/YP7n6iy+/47WOYprPd/nk1uUregW);strokeColor=none;strokeWidth=0;spacingTop=-3;spacingBottom=-3;spacingLeft=-3;spacingRight=-3;labelBackgroundColor=none;rounded=0;html=1;whiteSpace=wrap;" parent="39" vertex="1">
          <mxGeometry x="196" y="101" width="12" height="58" as="geometry" />
        </mxCell>
        <mxCell id="42" style="vsdxID=45;fillColor=#f6f8b0;gradientColor=#dab971;gradientDirection=north;shape=stencil(fZDNDoMgEISfZq+Esli9W/seJmLZlIJB+uPbF0Kaoqm9ze5+M4EBbGfdTwoEn4N3V/WkIWjAEwhBVitPISrADrAdnVcX7+52yPPUJzKpm3ukhFf28eQQfCmncwYN2QI88DV6bJis93EpWVOtDJ+A3+kM6228wH3+z7Oj+H52JGNyV+V9W05c5WKxewM=);strokeColor=none;strokeWidth=0;spacingTop=-3;spacingBottom=-3;spacingLeft=-3;spacingRight=-3;labelBackgroundColor=none;rounded=0;html=1;whiteSpace=wrap;" parent="39" vertex="1">
          <mxGeometry x="198" y="101" width="10" height="8" as="geometry" />
        </mxCell>
        <mxCell id="43" style="vsdxID=46;fillColor=#f6f8b0;gradientColor=#dab971;shape=stencil(hZDBDoIwEES/Zq9k7UbBM+J/kFBsY21JKSp/T+vGSI3E2+7Om0k7QPWo2kGCwDF4d5UP3QUFdAIhtFXS6xAnoAao7p2XF+8m2/E+tIlM083dU8KTfZgcAmfe6FhU+9flzLDRdgVHWWQ8brM7zKMPWFTlNh7lkjLDO+An/ufZcfh8uNfGcF9r/bugeOJyqVkA);strokeColor=none;strokeWidth=0;spacingTop=-3;spacingBottom=-3;spacingLeft=-3;spacingRight=-3;labelBackgroundColor=none;rounded=0;html=1;whiteSpace=wrap;" parent="39" vertex="1">
          <mxGeometry x="29" y="100" width="188" height="107" as="geometry" />
        </mxCell>
        <mxCell id="44" style="vsdxID=47;fillColor=#cc6633;gradientColor=none;shape=stencil(rZJNDoMgEIVPw5Ygo6Wurb2HiVhIKRikf7cvlJiKTUlMunszfDN5wEPQTKIbOaJkctac+V32TiA4IEqlFtxK5xWCFkEzGMtP1lx1H+uxC2RQF3MLGx5xjoQJSp6xKnHJ3o1jZJXUC3ZHcMUSviAkizNI8BpwDb8HUi+ZzXnT6QVnizMNFO/pH01vfJQvOwwX1QZ87d6Lz9cOUqmYjOX5Ogq+FWME7Qs=);strokeColor=#cc6633;spacingTop=-3;spacingBottom=-3;spacingLeft=-3;spacingRight=-3;labelBackgroundColor=none;rounded=0;html=1;whiteSpace=wrap;" parent="39" vertex="1">
          <mxGeometry x="29" y="143" width="188" height="69" as="geometry" />
        </mxCell>
        <mxCell id="45" style="vsdxID=48;fillColor=#295687;gradientColor=none;shape=stencil(hZHdDoIwDIWfZrfN1v0QrhHfg4Qhi8jIwL+3d3NRmWZ4d9p+p2l6CK/mvpk0QTovzh711bRLT/iOIJqx184sXhFeE1511umDs+exjfXUBDKok72EDbfoQ1AymJDeY0OAetb7SA9mXNEcKCY0UmBlnqcpLAFZHhYSlEgMjNI8/hq+YYQiT5cMFE/4jdW/lxQSxMZf/n3Ri08AnRmGmN96/h2Yb8Wwef0A);strokeColor=#295687;spacingTop=-3;spacingBottom=-3;spacingLeft=-3;spacingRight=-3;labelBackgroundColor=none;rounded=0;html=1;whiteSpace=wrap;" parent="39" vertex="1">
          <mxGeometry x="127" y="159" width="36" height="13" as="geometry" />
        </mxCell>
        <mxCell id="46" style="vsdxID=49;fillColor=#FFFFFF;gradientColor=#b7e4ee;shape=stencil(dZDBDsIgEES/Zq9kyyYq51r/o0mpEBEailX/XpA0ggm3YebtZhmgflXjIoHjGry7yaeeggI6A+faKul1iApoAOpn5+XVu4ed8nsZE5nU3W1pwyvPETLiaYrjOzvIutPXuGTeaFvwWLFcMNFmDzGtd3eIbXwPd/gYL2nT8XAU9eElHMXvy7M2JjdW5v8VRSvXS8MH);strokeColor=#295687;spacingTop=-3;spacingBottom=-3;spacingLeft=-3;spacingRight=-3;labelBackgroundColor=none;rounded=0;html=1;whiteSpace=wrap;" parent="39" vertex="1">
          <mxGeometry x="105" y="136" width="55" height="33" as="geometry" />
        </mxCell>
        <mxCell id="47" style="vsdxID=50;fillColor=#e1f4f9;gradientColor=#7bb4d2;shape=stencil(vZNNbsMgEEZPw9Ij/sHrNL0HarCNSo2FaePevrgQ1USKump3w8wbeJI/I3ZaJ7NYRPGaYni1V3dJE2JPiFI3Tza6lCvEzoidhhDtGMP7fCnnxezkXr2Fj/2Grez1ErTYtyj+LB2C8ff5ueDezQecCGANrTAI8pjHDcwJ9PoIm/iSp7HCjDJ9A3CsO5RoCbg+WkEKurUgFHDd2zqzubWLIZnkwtxoeBNH2+VHu8GbsRmtV2uXQ5s81qQcJG8liQTZKnIF9Y6bowDxX4Y9B3FnKBlo0hj2PZD2yysF6u8U22D8mrtc/GR2cN6XyB/n9xnPrfJ/sPMX);strokeColor=none;strokeWidth=0;spacingTop=-3;spacingBottom=-3;spacingLeft=-3;spacingRight=-3;labelBackgroundColor=none;rounded=0;html=1;whiteSpace=wrap;" parent="39" vertex="1">
          <mxGeometry x="140" y="79" width="44" height="66" as="geometry" />
        </mxCell>
        <mxCell id="48" style="vsdxID=51;fillColor=#658eb8;gradientColor=none;shape=stencil(hZDRDoIwDEW/pq+krirxGfE/SBiucW5kTMG/d7MxgNH4dtue29wWqBpM02tQOMTgL3rkNhqgIyjFzujAMSmgGqjqfNDn4G+ulbpvMpnV1d/zhkl8mB0KH1JtsdjtX52TwJbdAt7gGsff6IGKcsW+vV/pPymSmPN3bK2cv5x/3pta8iuqnw==);strokeColor=none;strokeWidth=0;spacingTop=-3;spacingBottom=-3;spacingLeft=-3;spacingRight=-3;labelBackgroundColor=none;rounded=0;html=1;whiteSpace=wrap;" parent="39" vertex="1">
          <mxGeometry x="179" y="137" width="17" height="16" as="geometry" />
        </mxCell>
        <mxCell id="49" style="vsdxID=52;fillColor=#f7f3e8;gradientColor=#b7e4ee;gradientDirection=east;shape=stencil(tVPJcoMwDP0aH9EYywuc0/Q/PIkBT13MGNIkf19TQxuTLpfmpuVJek8jEdyNnR4MYXScgn8xZ3ucOoJPhDHbdybYKVoE9wR3jQ+mDf7UH5M/6Bk5W6/+be5wSXWygrqaqxi9pkhJ6Yf/nOA6HGIuLHBFAVWCh088g5ql2ILiEoTImgoGVC6YQl/sWAQ/6cn6PuXTSOp0aE0RRxaN022WGs/GDHfhb0kKClWZk1QcMOdIM35MQl0+jp+z/c3OsQSO+c5BlD/r4TUIudHDgNeZHqVAia2mdcw/afqFYzwMcXcYCCxf+npbK0WFwPnjKOZr//PUo/H1Jo11Ln3ZbX77VjGUXhL37w==);strokeColor=none;strokeWidth=0;spacingTop=-3;spacingBottom=-3;spacingLeft=-3;spacingRight=-3;labelBackgroundColor=none;rounded=0;html=1;whiteSpace=wrap;" parent="39" vertex="1">
          <mxGeometry x="145" y="71" width="52" height="35" as="geometry" />
        </mxCell>
        <mxCell id="50" style="vsdxID=53;fillColor=#b7e4ee;gradientColor=#7bb4d2;shape=stencil(vZTNbsMgDICfJsdYNhAI5657D7TSBC1LKpKt3duPjDStK3WnrjfjPz5btgu5GVt38IXAcYrDuz+G3dQW8qUQIvStj2FKUiG3hdzsh+ibOHz2u/w+uNlzlj6GrznDKcfVBKaeowR+Z00F2v4qXrO/i2/JGBd/qhQomQPiEqERVJVV56wGrGJZKWn04lO6UxjLOExuCkOf7ZhtnYuNL9OX5b5zDTONR+8PV2q6D2m1BGU4pDQGiBilFaArRmnsEymFIZCKUxJqEAySFFjBW4n4LESyJAnwppVG1TWgZZhpagyjlBrwsa3Ev6ZSrkBnysqujVu8cJ3cxSVRo/w/xi70V5uG/Ou0Rup+QTqNgeb1JNjzTl12t7K3u0sPrYfNRhIuZ2Qfui5foWv77dlJqnyy5PYH);strokeColor=none;strokeWidth=0;spacingTop=-3;spacingBottom=-3;spacingLeft=-3;spacingRight=-3;labelBackgroundColor=none;rounded=0;html=1;whiteSpace=wrap;" parent="39" vertex="1">
          <mxGeometry x="181" y="94" width="19" height="50" as="geometry" />
        </mxCell>
        <mxCell id="51" style="vsdxID=54;fillColor=#7bb4d2;gradientColor=#658eb8;gradientDirection=east;shape=stencil(tVLLUsQgEPwajpniucB5Xf+DcklCiSFF0I1/L0jUEC1Pepvp7mF6hkHsvIxmtojiJcXwaG/umkbE7hClbhptdClHiF0QO/ch2iGG5+la89kUZYmewkt5Ya11FPipFFH8WgHCgbJ35L7qvZsaveKNXgggfK838SGzcdMzAVLVgrhVSAxKV2gTcf6JbBpNPl7Fa2dWt3QxJJNcmCqPK+dNHGyXO3a9N0NDLTdr52/wjx61AnLwSDQH0XgkGDcOpYSS/pfDdutag5BN+1/GURJOx3EkA9muHLBq/52C0H86D9lbzMHXCfbO+3rBe/54shmq584ubw==);strokeColor=none;strokeWidth=0;spacingTop=-3;spacingBottom=-3;spacingLeft=-3;spacingRight=-3;labelBackgroundColor=none;rounded=0;html=1;whiteSpace=wrap;" parent="39" vertex="1">
          <mxGeometry x="159" y="71" width="19" height="9" as="geometry" />
        </mxCell>
        <mxCell id="52" style="vsdxID=55;fillColor=#7bb4d2;gradientColor=none;shape=stencil(rZPdboMwDIWfJpdY+Q+57rr3iNYA0RigQFf29gsLaLha0SbtzrG/45yATcRpbNzgCafjFPtXfwuXqSHiiXAeusbHMKWIiDMRp6qPvo79tbvk8+AWcone+velw5x1DPSi4fQjn5UCJr8yzxlvQ7fDhQGOeG5B2ANeA7NIQB/DFHdWoM0e/qNxjNvkUyCBFFvmRzNKgymRwEgo1V7g4kuqxs0QB82yIK4KpmB9/NZUgpGoqTUg12vmws1hLGI/uSn0HfomrYu1L9KFRdW6GpXGm/fDLs0OLFIo7xwK0BxZNBSMwRYV0P+1eDADjOIpMByseYz/4rem4Hv4q9C2eXf29ftlSam8aOL8CQ==);strokeColor=none;strokeWidth=0;spacingTop=-3;spacingBottom=-3;spacingLeft=-3;spacingRight=-3;labelBackgroundColor=none;rounded=0;html=1;whiteSpace=wrap;" parent="39" vertex="1">
          <mxGeometry x="126" y="111" width="58" height="46" as="geometry" />
        </mxCell>
        <mxCell id="53" style="vsdxID=56;fillColor=#FFFFFF;gradientColor=none;shape=stencil(vVTbUoQwDP0aHsn0Qm/P6/ofHbdARwSmoIt/b7GwEnR1nFl9a5OT5OSkTcYPQ217lzEyjKF7dGd/GuuM32WM+bZ2wY/xlPFjxg9lF1wVuuf2lO69nZHz6al7mTNMKY7MEYy8phs3QPm75T6BbXiI3rCABSdAixQRlhAjCWiZbAuMKzAM5V2qTLmd/JCHbrSj71rka2yoXB7r5WVjK+Qazs71n8wLw8a3m3YKDUSj0gbM9Ya0iPhdQ1QIAVShjgQUBmUVBRB506boluWvZoTBlGC4ZCDNdcGkAIZbWxN8KRilYCTWi9G1wEWtAgTHQ+DA2N+9AcxRARW7kbIL65WiBqYQRS1Bq5tSpN/IaCIlpTFLXki5/0qGgMJSijhP8V/f6cfHFA8fm6X0TZMW09a/30TRlLYYP74B);strokeColor=none;strokeWidth=0;spacingTop=-3;spacingBottom=-3;spacingLeft=-3;spacingRight=-3;labelBackgroundColor=none;rounded=0;html=1;whiteSpace=wrap;" parent="39" vertex="1">
          <mxGeometry x="113" y="107" width="69" height="38" as="geometry" />
        </mxCell>
        <mxCell id="54" style="vsdxID=57;fillColor=#FFFFFF;gradientColor=#da8c36;shape=stencil(vZPRbsMgDEW/hsdYYKc0PHfdf6CWJGhZiAhd278fmSOtZFLf1jfnXl84coygw9zbyQmUc4rhw139OfWC3gSiH3sXfcqVoKOgQxui62K4jGf+nuzSuVSf4Ws54cY5Q6DqJYXyzgoaMPSjvHPAxlN24xqoJRjFgbgmdhKwYWlt0gjUFKc2DZi1pbI3P1cxJJt8GNmW7A02dq7KF1btYLvCmq/OTQ+yeoKIIGmDqEDrEhEaXRDuJSh6GWKe4u7PFKkuEGkPGgtGpUDhK8e4/dN5jCXjs/35F8Zc/O5y64eBn8Kjv939LPG7oeM3);strokeColor=none;strokeWidth=0;spacingTop=-3;spacingBottom=-3;spacingLeft=-3;spacingRight=-3;labelBackgroundColor=none;rounded=0;html=1;whiteSpace=wrap;" parent="39" vertex="1">
          <mxGeometry x="138" y="142" width="23" height="19" as="geometry" />
        </mxCell>
        <mxCell id="55" style="vsdxID=58;fillColor=none;gradientColor=none;shape=stencil(xVfbbtswDP0aP4YQRV2fu+4/jNZJjGVx4Hhr9velZ8sO5TZAB9h7kyVSPqQOj6iCnq7H8lIVWl27tvlRvdWv3bGgb4XW9flYtXXHo4KeC3raN211aJtf59fh+1L2lv3oZ/O73+E2+OneQ6s/w1dQEM3fme+D8ak+3xtHsCgcPIJ39w5f2l0auwDOCgdnst0lnKWDJ3D6cweDYDJIBFpAKtsXXm1HB4ww2rejAyJYGqZGG7KATm7qQI24brvyVl93bdOVXd2ch3U1rJ3K9lDt+Ie7/ak8iKXrW1VdFtOfQUSzxCggagUy7Iig3WYIFRgvETrQUSbRgJPMijEd5QYQNWfMZUnUEGUWDQGRxOjAb3fQBgxKjDP/U0WoySZBNBPoNSDK+ooWfJClwIm1D2KyEw9TTHGqpttEhGDyKrdxq7RzNSsIlJHDYwCUOhA9xChwWs79ZhQ2MxcTSuaHCgIjK7D3AiPNR7Y+RmcXZUYRSGL0GlCqFSHEFdVKcphvNCvpxmkcJf9jghDk+mtm/Z/KQMubCt2GCqy5zDLp4MpL18ZoZAMYWbxqS3z5PbvA1zNV/8ccBog5Rg/kBUZjc+6yniVFXp+7fK+ipBknLTyQX5oEIsXkIUj55d4hyPbG6FXlV4aEsz4kVfWpefgwJvJoHYSYSSGLiM2bDiX25WZTraiEX+51s06a87BovYN/wIVFOVtM5PzXP/Bgfkfs69NpeIbcr+fvDp4a3iz0/A4=);strokeColor=#295687;spacingTop=-3;spacingBottom=-3;spacingLeft=-3;spacingRight=-3;labelBackgroundColor=none;rounded=0;html=1;whiteSpace=wrap;" parent="39" vertex="1">
          <mxGeometry x="125" y="36" width="74" height="124" as="geometry" />
        </mxCell>
        <mxCell id="56" style="vsdxID=59;fillColor=#FFFFFF;gradientColor=#da8c36;shape=stencil(vZPBcoQgDIafhiMMElj1vN2+B9NFZWrFiWzXvn2xce1Sp711b0n+hHxkEgbHqbOjY0pOEcOru/pz7Bg8MaX80Dn0MVkMTgyOTUDXYrgMZ/JHu2Qu1lt4X16Yqa6QcqlR8oN8XQldfEWeKd3iS1JxTTeVUEAFeKuoRakptCbpUpTZo1uTmdvZTxxDtNGHgdRV6y22jqd2vOltm0nT1bnxLvwXYCkO9Q5QVRng7stSP4wPtmltfEbURcZnpNA6Y3zc/EAczI6vgozv96X5F8J8Y7kyWfObvyYn43vXG9/3dCr3+s/bSCG6Kzh9Ag==);strokeColor=#d75139;spacingTop=-3;spacingBottom=-3;spacingLeft=-3;spacingRight=-3;labelBackgroundColor=none;rounded=0;html=1;whiteSpace=wrap;" parent="39" vertex="1">
          <mxGeometry x="151" y="35" width="35" height="41" as="geometry" />
        </mxCell>
        <mxCell id="57" style="vsdxID=60;fillColor=#295687;gradientColor=none;shape=stencil(tVPbDoIwDP2aPULGhiLPiP+x6IDFyUg3Bf/e4VBBEGKib72ctuc0LaKJLljFEcHagDryWhxMgegWESLKgoMw1kI0RTTJFPAc1Lk8OL9iLbK1TurSdmhcXRz7cdxWEXx1EXz3dg7MYG8z0IHDlb9yWOjAQRj4UVf/AI06Rj2MxxqhPVCGGaHK/kQsGeTcsxO9TLJ8kNI151UvHMxyDKMJkgOOeELxX7hJUfJPY8nGJ3ReyHosZB0tbDvAv9Xz9T1sBgSfdEaq/0JwuPCF67bG6y8yIaV7q37+/Y9syP0gTW8=);strokeColor=none;strokeWidth=0;spacingTop=-3;spacingBottom=-3;spacingLeft=-3;spacingRight=-3;labelBackgroundColor=none;rounded=0;html=1;whiteSpace=wrap;" parent="39" vertex="1">
          <mxGeometry x="81" y="162" width="40" height="13" as="geometry" />
        </mxCell>
        <mxCell id="58" style="vsdxID=61;fillColor=#FFFFFF;gradientColor=#7bb4d2;shape=stencil(vVPbEoIgEP0aHnVQxMuz2X8wicpk4iyU9vdhUGmO9VRvu3vOsoflgEiuGtZzFGKlQR75IErdILJDYSi6hoPQJkKkQCSvJPAa5Lkrbd6ziTlFJ3mZThhtX4Dx1BPiq80p9nFwr+wtncHBoODoEfWp5YNryFI/caUHJ/OzdHHoc8josVEoD6RmWsjOog5rGdTcM+O8qmX1AlID5/2s/FlgFK8UxvFC4daV/6QvWevLvmzwn/ujwfqF04W+bdP8RKEJXvatRNta98/xd7ubkv0qpLgB);strokeColor=#295687;spacingTop=-3;spacingBottom=-3;spacingLeft=-3;spacingRight=-3;labelBackgroundColor=none;rounded=0;html=1;whiteSpace=wrap;" parent="39" vertex="1">
          <mxGeometry x="81" y="153" width="40" height="18" as="geometry" />
        </mxCell>
        <mxCell id="59" style="vsdxID=62;fillColor=#f7f3e8;gradientColor=#b7e4ee;gradientDirection=east;shape=stencil(hZDbDoMgDIafpreElTjctXPvYSIOIgODuMPbD9aYqYnb3d/26+kHUY26GRQgH2PwvXqYNmoQZ0A0TqtgYlIgahBV54O6Bj+5luKhyWRWN3/PE57Ud0KGuQn5ixIHzj/xhWhr3ILmK1SyothnSyZX9I+x884ZLSWTx338381JfN/tjLXk1rK+tSelyFpRvwE=);strokeColor=none;strokeWidth=0;spacingTop=-3;spacingBottom=-3;spacingLeft=-3;spacingRight=-3;labelBackgroundColor=none;rounded=0;html=1;whiteSpace=wrap;" parent="39" vertex="1">
          <mxGeometry x="79" y="84" width="45" height="26" as="geometry" />
        </mxCell>
        <mxCell id="60" style="vsdxID=63;fillColor=#FFFFFF;gradientColor=#7bb4d2;shape=stencil(fZDNDsIgEISfZq9kYVuN51rfo0mpEBEaij99eyHECMZ6m9n9dgID1C1qmCUIXIJ3F/nQY1BARxBCWyW9DlEB9UDd5Lw8e3ezY/bzkMikru6eEp75DtOFwLV0pwwabQvwwJoK3SPjtI1zrJPf/ne2YLuKJs7aZpv/8+goPl+dtDG5qXL/XU0c5VqpfwE=);strokeColor=#295687;spacingTop=-3;spacingBottom=-3;spacingLeft=-3;spacingRight=-3;labelBackgroundColor=none;rounded=0;html=1;whiteSpace=wrap;" parent="39" vertex="1">
          <mxGeometry x="79" y="86" width="45" height="77" as="geometry" />
        </mxCell>
        <mxCell id="61" style="vsdxID=64;fillColor=#295687;gradientColor=none;shape=stencil(hZDBDsIgEES/Zq9kYUNNz7X+R5NSISI0FKv+vSBpbE2st9ndNxMYoGbS3ahA4BSDv6i76aMGOoIQxmkVTEwKqAVqBh/UOfib68s8dpnM6urnnPAoPsmZ4Nkl8Fk2HPE9nwpujVvhy3GB64oJ+o1LZFhvDDvZ22TJDtVO8L9nJ/H58mCsLY2t798VpVWpl9oX);strokeColor=#295687;spacingTop=-3;spacingBottom=-3;spacingLeft=-3;spacingRight=-3;labelBackgroundColor=none;rounded=0;html=1;whiteSpace=wrap;" parent="39" vertex="1">
          <mxGeometry x="121" y="107" width="7" height="56" as="geometry" />
        </mxCell>
        <mxCell id="62" style="vsdxID=65;fillColor=#FFFFFF;gradientColor=#b7e4ee;shape=stencil(rVJBDoIwEHxNjzSlCwTOiP9opEBjpWSpgr+3WIggUS/ednemM53sEsj7RnSScNZbNGc5qNI2BA6Ec9U2EpV1FYGCQF4ZlDWaa1v6vhMTc6ou5jYpjP5dAjTMplec3f2EPbujJws8OQRncgQZTUPPxpnOGadx7GfjWmHRy5zDggdiVH2AxgqrTLtha4G1DJxfUGlRb6B+kLLbjecfatWu4kBCU76xD9m3QBGjLN0HStJNoEVj0XQm8NdE4edEPxbkitdqK6W1v4w1/n4KbuTPCIoH);strokeColor=#295687;spacingTop=-3;spacingBottom=-3;spacingLeft=-3;spacingRight=-3;labelBackgroundColor=none;rounded=0;html=1;whiteSpace=wrap;" parent="39" vertex="1">
          <mxGeometry x="85" y="131" width="17" height="39" as="geometry" />
        </mxCell>
        <mxCell id="63" style="vsdxID=66;fillColor=#295687;gradientColor=none;shape=stencil(hZFBDsIgEEVPw7KEgoS6rnoPYmlLxNIMaOvtBakRTIy7mf/fMJMPYq0b5awQJc6DvahFd35E7IAo1dOoQPtQIXZErO0tqAHsbepSP8tIxupq7/GFNc01O8xFnKLkkRTy6k4JNnrK4JqQAhUN5uw3TjChBf+e32gJ5+DBRvNGYJ5w2HhaC1zvk/bnXrJWctWuAuul13YqPCNhUFVYV/VGDoXlFqXmTK7zA0Pxya3XxqTYc/875yClP2LHJw==);strokeColor=#295687;spacingTop=-3;spacingBottom=-3;spacingLeft=-3;spacingRight=-3;labelBackgroundColor=none;rounded=0;html=1;whiteSpace=wrap;" parent="39" vertex="1">
          <mxGeometry x="92" y="134" width="13" height="36" as="geometry" />
        </mxCell>
        <mxCell id="64" style="vsdxID=67;fillColor=none;gradientColor=none;shape=stencil(XVDREoIgEPwaHmkQqqln0/+4SVQmEuegpL8P5rKwt929vT1Ypmo/wqyZFD6gu+nFdGFk6sKkNNOo0YSEmGqYqnuHekD3mDriM2RnRnf3zAmR9ioh8o4UL+LEWrICXtMEV+vxvDvsyY0fuzwljaRYBqxx3/jIIRrP0QUIxk0brwUcNE/HeG9h2Iz8ovVcyFX5vAR+3+qNtdRKOf+vIUlUoWre);strokeColor=#295687;spacingTop=-3;spacingBottom=-3;spacingLeft=-3;spacingRight=-3;labelBackgroundColor=none;rounded=0;html=1;whiteSpace=wrap;" parent="39" vertex="1">
          <mxGeometry x="166" y="61" width="12" height="7" as="geometry" />
        </mxCell>
        <mxCell id="65" style="vsdxID=68;fillColor=none;gradientColor=none;shape=stencil(tVHNEoIgEH4ajjDAOqVnq/dgEpXJxFko7e3DYEo6dOu2+/3sfrAEaterSRPJnUd70bNpfE/gQKQ0Y6/R+FAROBKoW4u6Q3sbm9hPalWu1dXe1wlL9PHVIfkjdlAyCS/kFMUKz4HFJN5xJqpowOQo9wzKCCVRUbBCZlPTjoWqxTiK1itv7Jhxg8JO07CNtoPqMsrNWk8bWPzIBwxknq8SrJJZPsHzN7/7f+QLxefn49G23PeVAhQvDMcn);strokeColor=#295687;strokeWidth=2;spacingTop=-3;spacingBottom=-3;spacingLeft=-3;spacingRight=-3;labelBackgroundColor=none;rounded=0;html=1;whiteSpace=wrap;" parent="39" vertex="1">
          <mxGeometry x="154" y="37" width="26" height="17" as="geometry" />
        </mxCell>
        <mxCell id="66" style="vsdxID=69;fillColor=#295687;gradientColor=none;shape=stencil(zZTNUoQwDMefpkcybUNpe17X9+i4BToiMAXd9e0tFla6juhlGW8l/3z8EjIheBhq01vC6TD67tme3WmsCT4Qzl1bW+/G8CJ4JHgoO28r3722p/jdm8lzer10b1OGS4zTEsQUxOl7NKCEQn5aHqO/8U9B9bM/R2AqBvg5gkvgMWJJKilwnWQVoUw++2Tm4obMd6MZXddGnUatMb6yWaiYlY2pEmk4W9uvzGyTcZbXjMgSxoJDnieMnAFlOzL+PkeloSgSRgZM7omovyOqBHFjf+6CmG4vIuQyKa8oaPFzT0xcN3PpiUnQOumJadAsyaoVCL7X3AMj3iCmM6fXn7Dg4Y5sf5gfgkqXQgrIxb+Z39bW3IUvPL7ub+maJp7vtX57r4Mp3no8fgA=);strokeColor=none;strokeWidth=0;spacingTop=-3;spacingBottom=-3;spacingLeft=-3;spacingRight=-3;labelBackgroundColor=none;rounded=0;html=1;whiteSpace=wrap;" parent="39" vertex="1">
          <mxGeometry x="163" y="53" width="21" height="18" as="geometry" />
        </mxCell>
        <mxCell id="67" style="vsdxID=70;fillColor=none;gradientColor=none;shape=stencil(vZbBkpswDIafhmM0tmTL9nm7fQ+mSxKmNGQc2k3fvqaGEDlZ2stycyT95EOWhCp6uRzrc1Ohugyx/968t2/DsaIvFWJ7OjaxHdKpoteKXvZ9bA6x/3l6y7/P9Rg5nn70v8YnXLOOPXgeVah+Zwtq0O6v5WsWdO3pXoCgtBRYQL4X1PFb8sZJYMBTjo+TwII22TKF2ADk5DMDmMly3dXX9rKL/VAPbX/KfpV9XR0PzS79327f1Qfhurw3zfnB/JTQawtUMPqUGCRJ6UFCGgXst4K0bIBZQrLSgEFCIqCRlAYcfR6lrA6rIBRJIgir8c6XSQ38sQDTJaAsFQferggYuBB4CH5F4MBSmcGp5J8KlAhmDYr+OxjBrfWaAiuzqdVK8mfnHOws2BXuh3ACjx+HBwK2UrDCEgwEOSaWbnkq8AGsrARy81R42hCoQAXZD2l0kWwHF+YU3G4fIditmlanC7SSUetbgy6MKN8cF9kmjMoVjOrWZPPtEJD8TIzvsRljmGfCPSJrmUYDWvat2jKF+pGPBR8vc3hJoebNGBFKRATvJaK/9c9SiU5/HmIx7v69i6TDssns267Li9C9v9x8kilvTfT6Bw==);strokeColor=#000000;spacingTop=-3;spacingBottom=-3;spacingLeft=-3;spacingRight=-3;labelBackgroundColor=none;rounded=0;html=1;whiteSpace=wrap;" parent="39" vertex="1">
          <mxGeometry x="29" y="35" width="188" height="177" as="geometry" />
        </mxCell>
        <mxCell id="68" value="&lt;font style=&quot;font-size:25px;font-family:SimHei;color:#000000;direction:ltr;letter-spacing:0px;line-height:120%;opacity:1&quot;&gt;资源应用&lt;/font&gt;&lt;font style=&quot;font-size:25px;font-family:Themed;color:#000000;direction:ltr;letter-spacing:0px;line-height:120%;opacity:1&quot;&gt;&lt;br/&gt;&lt;/font&gt;" style="text;vsdxID=42;fillColor=none;gradientColor=none;flipH=1;labelBackgroundColor=none;rounded=0;strokeColor=none;html=1;whiteSpace=wrap;verticalAlign=middle;align=center;;html=1;" parent="39" vertex="1">
          <mxGeometry x="105.2" y="208.13" width="125.59" height="41.77" as="geometry" />
        </mxCell>
        <mxCell id="69" style="vsdxID=73;fillColor=none;gradientColor=none;flipH=1;labelBackgroundColor=none;rounded=0;strokeColor=none;html=1;whiteSpace=wrap;" parent="1" vertex="1">
          <mxGeometry x="199" y="1271" width="249" height="249" as="geometry" />
        </mxCell>
        <mxCell id="70" style="vsdxID=74;fillColor=none;gradientColor=none;labelBackgroundColor=none;rounded=0;strokeColor=none;html=1;whiteSpace=wrap;" parent="69" vertex="1">
          <mxGeometry width="249" height="249" as="geometry" />
        </mxCell>
        <mxCell id="71" style="vsdxID=75;fillColor=#FFFFFF;gradientColor=none;shape=stencil(vVVLcoMwDD0Ny2hsyd91m96DaUjClELGoU16+5oaaEQGJl2UnS3pSU+yZGX0dD7mpyJDcW5D81Zcyl17zOg5QyzrYxHKNp4y2mb0tG9CcQjNR71L91PeWXan9+az83BNOItgZIdC8ZUkqADpR/KSAFVZ3wCMBOc4wAPhLSAPr1EbeoDSoE0ChB5BFrRKot5IaxCee3Xge2LXTX4tz5vQtHlbNnXSi6Sr8nAoNjHiZl/lB6Y6X4ridCee42jsHUdDjKPyoP00c+n+jyMvfAzvFAsvCVDNAxABmf2Cc8EdCzCP2hqEhW6Jr0i8W6wBqecBpMETByAovwzgadpYFjv/1tGev7QCZ9hDU2xozV3agfQKzShjV00GRmqwjnFUOLIeODpQuBZHkmMzDhzRDP/GONQCFP9bbOzhteblProzoGk+J6fjzA9lHrKyghQI3h+x0pPaSyHWSmsMNSTlwS8M69S8+3oXpunP6+ABQDz8bp99WVVped3qp9sqitKmo+03);strokeColor=none;strokeWidth=0;spacingTop=-3;spacingBottom=-3;spacingLeft=-3;spacingRight=-3;labelBackgroundColor=none;rounded=0;html=1;whiteSpace=wrap;" parent="70" vertex="1">
          <mxGeometry x="49" y="33" width="150" height="182" as="geometry" />
        </mxCell>
        <mxCell id="72" style="vsdxID=76;fillColor=none;gradientColor=none;labelBackgroundColor=none;rounded=0;strokeColor=none;html=1;whiteSpace=wrap;" parent="70" vertex="1">
          <mxGeometry x="49" y="33" width="75" height="139" as="geometry" />
        </mxCell>
        <mxCell id="73" style="vsdxID=77;fillColor=#e3dcf1;gradientColor=none;shape=stencil(UzV2Ls5ILEhVNTIoLinKz04tz0wpyVA1dlE1MsrMy0gtyiwBslSNXVWNndPyi1LTi/JL81Ig/IJEkEoQKze/DGRCBUSfoYEBSI+RQSUq3w2iOCczD0kxqlJzCz1LM2IV4zHV0lLP1BDVEZZ6lhbIGoAMhAfSMnNyIP5Hlkf3MFAIEljGrgA=);strokeColor=none;strokeWidth=0;spacingTop=-3;spacingBottom=-3;spacingLeft=-3;spacingRight=-3;labelBackgroundColor=none;rounded=0;html=1;whiteSpace=wrap;" parent="72" vertex="1">
          <mxGeometry y="18" width="42" height="120" as="geometry" />
        </mxCell>
        <mxCell id="74" style="vsdxID=78;fillColor=#866ba0;gradientColor=none;shape=stencil(fZHdCsMgDIWfJrfiH6xed917FGqnzGmx7u/tpwtlW0HvTpIvB3ICol/NuGjgdE0xXPTDTsmAOALn1hsdbcoKxACin0PU5xhufsJ6GQtZ1DXci8MT92jZ4PSFFZNEfRonZJ31VVYpIlkdluTA/r0prdPbcIM7QbqG+R5vOLcPzOKbzGydw2B/5/skcwu/IIY3);strokeColor=none;strokeWidth=0;spacingTop=-3;spacingBottom=-3;spacingLeft=-3;spacingRight=-3;labelBackgroundColor=none;rounded=0;html=1;whiteSpace=wrap;" parent="72" vertex="1">
          <mxGeometry x="41" y="23" width="33" height="114" as="geometry" />
        </mxCell>
        <mxCell id="75" style="vsdxID=79;fillColor=#cbc1d9;gradientColor=none;shape=stencil(lZTbboMwDEC/Jq9WYuf63HX/Ual0RGVQUXb7+8GiqYWolvtmE9s6JxFWtLu2h0ujUF+ncTg3X/k4tYpeFGLu22bM0xwp2ivanYaxeRuHj/5Y8sthqVyi9+FzmfBd+vTSgfqnZBj+0tdS2eX+YaXxQExxSpDCqsFqQPu4wej1fKchRinMGpsTtAQkHksIgUGuHZ0Hb+SOPgB6KUxFzmm6BMGJJycwDHWtGRBSkmtGAk9SmIqc0wweDEoneweWefpaMyYg5nm2mv+5AKXi5iSNfuL6GIRaEAki8w9vBcmCE992RT0Htx10yl1XVtj9+XZnzZ/KvqP9Lw==);strokeColor=none;strokeWidth=0;spacingTop=-3;spacingBottom=-3;spacingLeft=-3;spacingRight=-3;labelBackgroundColor=none;rounded=0;html=1;whiteSpace=wrap;" parent="72" vertex="1">
          <mxGeometry y="26" width="42" height="101" as="geometry" />
        </mxCell>
        <mxCell id="76" style="vsdxID=80;fillColor=#FFFFFF;gradientColor=none;shape=stencil(xZfRdtowDIafJpfoyJIlS7dru/fIWdM2Zww4ga3d2080QCED92awu8SWE/3+P1t2w3frl3bVNYTrzbD83r32j5uXhu8bon7x0g39Jp4afmj47mk5dM/D8uficXxftdvI7dOP5a/tF97GcbgdQfh7fLMEyu8tX8fgdvgWvcMuOAkXc+AyDhp2o8i5CGQZW/exePppJ5C8i5i1b/16Niw37aZfLk4SmbfDczeL386e5u3zSdf6tetWR83pONF5v+gu/3z/flaVi6oATkQlo8KH1vOz5YB+PUmnWRJQUrfIyjMTKmro/cJ0mnUG4qzmbk4l7CzvQakm4mD5VUTUaNMERJcVq7o46SG9gzMUELpA8qYGXCFIVxRWB644iFeQY8ZioBP3UrEwZD8pFyYtht0MugTZNDjHLEWDu0znoCMwNi9Z1JInYpNPqfuw/ubUZQSrUUcmsRukKXOIAl4nThKUK4qqEycOySpOovtWwWQtUTQzUG4uW5UDSLsVcBlyVhR15aIc7J3jzSA7ZclWgiPKu6Aabh+e3xw3QsgVW5LlouAysYWUEbiOGyc4iP43ok6KZB03NigV3LKwxL4gk2VkqlSgaMWq6LdyPVV/FdVIlcS4BFGFE18oqtnRighi7If6eVE9mH5z3CpiVTxOEGAT1lJsHRhFpX58Swj+32BLtj9znl9EYU0cY6a2cdiKgNZc9qlAvhlrFhOYUuxuGKRlEzuHWlQQDEdi9UfRNY5jznFUxfGrgBYPH/eGp34+H68dx/3Te0Y0jXcUfvgD);strokeColor=none;strokeWidth=0;spacingTop=-3;spacingBottom=-3;spacingLeft=-3;spacingRight=-3;labelBackgroundColor=none;rounded=0;html=1;whiteSpace=wrap;" parent="72" vertex="1">
          <mxGeometry x="2" y="29" width="15" height="81" as="geometry" />
        </mxCell>
        <mxCell id="77" style="vsdxID=81;fillColor=#866ba0;gradientColor=none;shape=stencil(xVfBktowDP2aHNFYlmTL5+32PzLdAJlSYALtbv++ooEFm42nhw29GTuSn/SeJNPQ02Hd7rvGu8Nx2H3vXvuX47qhL433/XbdDf3RVg09N/S03A3datj93L6Mv/ft6cvT6sfu18nD22iXFNSfrLz7Pe4QQ5S/O19Hg3b4ZqfD2QAloQPW0WY4GzHFCJ7HzRvXkrlmBL18s2jf+sNi2B3bY7/bjuduPNu0w6pb2LWL5aZdZUeH167b321/CJSRA0IKOVBEdgE0ZkhdhtIHYPlUlHiLctNvu6mrMQGF6ZCMG46QitwHFgeJ7nI/RessuS9Uld4Tf75eGHg6MEEvHtAXXDE6B4RZZLaVOTaOOc3HViF+w8QKknKgRIwexFdExQKK88GsiYoUIlVichiSgKM8Jh+TlXRKWUwVXh+jKqbs9kgQ0nRoEdVkL1zIKsXgyxZw8h0z3+og6sOEhYoGoeCArDBMbdpM6yoIYJwPZU1XouAqyTdoYq227FaRnNXCucv9C7MPElZ2e/KQKmyxQyTQu9HiSD6omCKy9wY2/wj0IZr+Lw30yoBYuUszLSq9Fs2jRWU9hysTECMLgi8yz+oQkO4SP8HpfxmAKCBxOjCbgFHvW5VNwHixm5qA3kMInxpYRfqkhhW0aFToBANIXtQFseBm7KY1SdUKhJOanIoCCRo9xOIxWyF0Fj3Z4vpmX/abzfjkvz0v3/i2Nf4/oOc/);strokeColor=none;strokeWidth=0;spacingTop=-3;spacingBottom=-3;spacingLeft=-3;spacingRight=-3;labelBackgroundColor=none;rounded=0;html=1;whiteSpace=wrap;" parent="72" vertex="1">
          <mxGeometry x="17" y="38" width="23" height="86" as="geometry" />
        </mxCell>
        <mxCell id="78" style="vsdxID=82;fillColor=#FFFFFF;gradientColor=none;shape=stencil(jZTLboMwEEW/xtsre8YPvE7T/4gUUqxSiAjN4+8LdaME2trejcfH6FwwI3hzanbHWpA8jUP/Xl/CfmwEvwii0DX1EMapErwVvDn0Q/029J/dPq6Pu5mcq4/+PD/hGs95DzcfInn7aWh48915jXwbuideSbnA7+s/4SXqHawvhglW/w/ntTMxnYKrymM6iyrxVlawhuFS2HrohEhePBNUV7BUHtQwbEJnBSuwK4W1BSdE8uKZoGSgbXlQljAJnSVMFUgVwwyVEMmL54Iicbl+XVxwwmX1OSGL73jir88JT8VjGh1C28Zh9ry/nl5TK04+3n4B);strokeColor=none;strokeWidth=0;spacingTop=-3;spacingBottom=-3;spacingLeft=-3;spacingRight=-3;labelBackgroundColor=none;rounded=0;html=1;whiteSpace=wrap;" parent="72" vertex="1">
          <mxGeometry x="35" y="50" width="2" height="71" as="geometry" />
        </mxCell>
        <mxCell id="79" style="vsdxID=83;fillColor=#FFFFFF;gradientColor=none;shape=stencil(vVPLcsMgDPwajmZklEzMOU3+g2mwzZQaj0we/ftAiKeBpsn00Nz0WEmrBTFcT70aNRMweXIf+mh2vmf4xoQwQ6/J+GAx3DBct450R24/7JI/qoiM1qc7xA6nVAexQsBX8mpeX/xtgloz/AqVDV/JW7Ci95ClK3ghuWxSARXN535LmANzS8kbeYVU6mSmipxX3rghI2AVdboK46rWqi5LTUetxx/huwQReS1ygsBXmDGsAUqCC/w/grnc5fDibfJtlvBHreFVOsfJTz7C/T1fIPFDgYPxfTStsTbd3G2+PLIQSgeKmzM=);strokeColor=none;strokeWidth=0;spacingTop=-3;spacingBottom=-3;spacingLeft=-3;spacingRight=-3;labelBackgroundColor=none;rounded=0;html=1;whiteSpace=wrap;" parent="72" vertex="1">
          <mxGeometry x="40" y="42" width="2" height="96" as="geometry" />
        </mxCell>
        <mxCell id="80" style="vsdxID=84;fillColor=none;gradientColor=none;shape=stencil(jZDNDoMgEISfZq8EQRHO1r6HiVhIKRjE/rx9ocQUm7TpbZj9ZrMM0G5RwyyB4CV4d5Y3PQYF9ACEaKuk1yEqoD3QbnJenrxb7Zjf85DIpC7umjbcc44xVDUpRfAjO5VAgr+cYw4YbYsA3sH4X7DlSLDvcDyjbvdn4B+7t+EGc4HqpsSjeP940sbkwsr5Z0PRyu3S/gk=);strokeColor=#866ba0;spacingTop=-3;spacingBottom=-3;spacingLeft=-3;spacingRight=-3;labelBackgroundColor=none;rounded=0;html=1;whiteSpace=wrap;" parent="72" vertex="1">
          <mxGeometry y="18" width="64" height="120" as="geometry" />
        </mxCell>
        <mxCell id="81" style="vsdxID=85;fillColor=#cbc1d9;gradientColor=#cbc1d9;shape=stencil(hZDdDsIgDIWfprdLKXPZ/ZzvsWRMiAgLw7+3F2yMw/hzd9p+PWkPyG7Rw6yAcInBH9TFjFGD3AKRcVoFE5MC2YPsJh/UPviTG7meh0xmdfTn7HDlvbquGpG3CG/cwUe1Y9gat4IFYoFumkrQdzyNWyoWngYf8dI7Hdb+8P5zdxKvjydjLQe2nr8nlFqcruzv);strokeColor=#866ba0;spacingTop=-3;spacingBottom=-3;spacingLeft=-3;spacingRight=-3;labelBackgroundColor=none;rounded=0;html=1;whiteSpace=wrap;" parent="72" vertex="1">
          <mxGeometry width="75" height="43" as="geometry" />
        </mxCell>
        <mxCell id="82" style="vsdxID=86;fillColor=none;gradientColor=none;strokeColor=none;spacingTop=-3;spacingBottom=-3;spacingLeft=-3;spacingRight=-3;labelBackgroundColor=none;rounded=0;html=1;whiteSpace=wrap;" parent="70" vertex="1">
          <mxGeometry x="103" y="86" width="58" height="93" as="geometry" />
        </mxCell>
        <mxCell id="83" style="vsdxID=87;fillColor=#f5a444;gradientColor=none;shape=stencil(vZPbUsQgDIafhstmOBXp9bq+B+PSlhFLh6K7vr1UcGyq64wX7l0Of9KvISHisIxmtoTTJcXwZM/ulEYi7gnnbhptdClbRByJOPQh2iGGl+lU/NmsytV6Dq9rh0upo8DEWsTpWw18eA9F69201SKhlsDbrdjEx5yNVcxakLVzrBWMgioVnx01dB1q2nG4U1XSmItbmhiSSS5MCMGbONgmf7DpvRlQajlbO38L/4jYUpASIwoJmiFEpoFpzNhCK2/FmAfCd4xKgFKIMf+IkJixA6pvxSglSLWbY35qjedIr63PvxDizc3j0PgRKaze1U3/y1X8qs3G1+n1zvtyudv8/lRzqJy5OL4D);strokeColor=none;strokeWidth=0;spacingTop=-3;spacingBottom=-3;spacingLeft=-3;spacingRight=-3;labelBackgroundColor=none;rounded=0;html=1;whiteSpace=wrap;" parent="82" vertex="1">
          <mxGeometry y="10" width="57" height="83" as="geometry" />
        </mxCell>
        <mxCell id="84" style="vsdxID=88;fillColor=#face1c;gradientColor=#fff6d3;gradientDirection=east;shape=stencil(vVbbboMwDP0aHrHiOBfy3HX/gVbaojGoAl27v19YYG1Siiat5S2JY/scx5cktGr3+aFIOGs727wXp3LT7RN6STgv631hy86tElontNo2ttjZ5lhv/P6Q9zf71Ufz2Vs4ez1jwIhei7Mvf0IaUP6cvHqF3L45qR0UUBiSPAP0SnbQQoZScwPaq16Zz3Rgng3yND+XbWqbLu/Kpg5kVW53Rercptsq3wWi9lQUh5vjAWhV1lfMGCBNeJ4mpQiRCSARsUJmuCFQFLBigV2dAcnnsQqRShICjA5hkiIJTM5gzMTvMz8II85EPnQtgc/mEwge0nE5gwGXS4DHGxzMUnl04xxByvvX+5fI/nXfZCDMTMBIgIry1DgfOgiZq2LFY7P6sSkwV1CuKETcIlwkKCwkMqBUjDJ74tPGZY/AKW5kDlNYSoLFTcyhHGvw+Qk47Z7P0EIGPMoQfekaYycJy9R1ao5LBV7EDQzBqAAdsntdZIGI3zinca5Ns1FKu3FDMSct3ENEo2Nu3i7A7A/j3i0un4VtWVX+r3Etjz8X7sh/TGj9DQ==);strokeColor=none;strokeWidth=0;spacingTop=-3;spacingBottom=-3;spacingLeft=-3;spacingRight=-3;labelBackgroundColor=none;rounded=0;html=1;whiteSpace=wrap;" parent="82" vertex="1">
          <mxGeometry x="1" y="11" width="54" height="80" as="geometry" />
        </mxCell>
        <mxCell id="85" style="vsdxID=89;fillColor=#face1c;gradientColor=#fff6d3;gradientDirection=east;shape=stencil(tVLLDsIgEPwajiWVrVbOWv+DKG2JWJoFbf17aahaqibGxNs+ZnZnYQhsbC1aSVhqHZqj7NTB1QS2hDHV1BKV8xGBgsCmNCgrNOfmEPJWDMghOpnLMKEPvHRgsPQ6zXYBqFXzEciBZnwKFrj3XRzBwDO6XgcGjpQ8pzmE0h0FlOfx2BXlI61PRK9sgsYJp0wTidACK5n4lUmpRRW1bCdl+1J+L3LJ6GImcsUpsEjkIo0vf+T/EBg/+Xz117/zG9AHT5eUSutgsml/7ipfCo6E4gY=);strokeColor=none;strokeWidth=0;spacingTop=-3;spacingBottom=-3;spacingLeft=-3;spacingRight=-3;labelBackgroundColor=none;rounded=0;html=1;whiteSpace=wrap;" parent="82" vertex="1">
          <mxGeometry x="5" y="13" width="15" height="78" as="geometry" />
        </mxCell>
        <mxCell id="86" style="vsdxID=90;fillColor=#f4f4f4;gradientColor=none;shape=stencil(vVRLcsIwDD1NltFY8i9eU3oPTzHgaZowTijh9nXqDOBkaLso7GTJkp5+r+Crbm8PriDW9aF9dye/6fcFfymIfLN3wfdRKvi64KttG9wutMdmk94HO/4cpY/2c4wwJD/JgInRi9g5abQC5N+a1+Rgw1u0hslBCdDJzMLkwbECxKSbfrEs5PQaSjv4rgxtb3vfNpmttmHnypiq3NZ2l5m6k3OHGzXegqt94+6lJYRK368EDWidV2I0oMoKUaBMFlQSoPjXeth9iHE6lcghkjBQmQwjajCLGdLTQBpa9FFICYZnIDld9uZ88bs0++EgkSSQylEqlJBPe3kNcSMMPgukihhpdlvEQOadRDZbcwJRPQ5ifmHz5AzUDyc2FrSsR/Bfmn6loCdwxh8YMApX/tz6uk70e2uf821UJa7m6y8=);strokeColor=none;strokeWidth=0;spacingTop=-3;spacingBottom=-3;spacingLeft=-3;spacingRight=-3;labelBackgroundColor=none;rounded=0;html=1;whiteSpace=wrap;" parent="82" vertex="1">
          <mxGeometry x="1" y="12" width="54" height="11" as="geometry" />
        </mxCell>
        <mxCell id="87" style="vsdxID=91;fillColor=#f5a444;gradientColor=none;shape=stencil(vZbNcuMgDMefxsdoQBIgzt32PTytk3jWG2eIu+2+ffHadSK63Z7KjYg/+Behr4buLsf23DVoLlMaf3Yv/dN0bOhHg9ifjl3qp7xq6L6hu/2YukMan09Py+9zOyvn1a/x93zD63LOgLXzITR/FgMHCP6v5WHRD/3pVq/EzoAocZse825axZbBL9smrScoX79YVo0DJnWnjyC4Snbta3/ZpXFqp348KYKhTYdul7+32w/tQW1dXrru/MH8T0KKEIMmtAYhRMVoPbBXkMIQqBZksICugBQC9AoSaXP2KooGqJonI4NlDYmMYFFBkoUgGpKBpRakzfFusIhII+BFUeawfud+pwwQq1E6BF9AWnJApCBjzpNQZuN3ulIXAmt0KeAIiJ/LZ1ouCw3z505ABlPUDm9BdGLmLHBR3WoJ2NZ6KDFbEm4xb3Kt0DHvBfQ/z9CuWsTbsPFcI95C1I78GPGmHqGHWAKarZZdC4cUTvS1CGXrcjfPHLbGcW0STrfSHIsu1IJkU1SM3MakKGvg9BujQDW+PAtI0WlJAFkR/mcaqVDSvp6F8uI6SO37YVjmsNv9cvDKpmVoo/s3);strokeColor=none;strokeWidth=0;spacingTop=-3;spacingBottom=-3;spacingLeft=-3;spacingRight=-3;labelBackgroundColor=none;rounded=0;html=1;whiteSpace=wrap;" parent="82" vertex="1">
          <mxGeometry width="57" height="22" as="geometry" />
        </mxCell>
        <mxCell id="88" style="vsdxID=92;fillColor=#f4f4f4;gradientColor=#f5cc6e;shape=stencil(xZbbcoIwEIafhkt2ciIk19a+B1NRmVJwAq327buIgruO1gub3sXNJnz+mz0ketFti12ZKNH1oX0v99Wq3yb6JVGqarZlqHpcJXqZ6MW6DeUmtJ/Navy9KwbPYfXRfg03HMZzAoQeDinxPRqMB+uOltfRv66a3/yzS/8ivOFuOPmryT+cDmRg7Wg5X0nuy/AL8rSfFoeqS0PbF33VNsS7LsKmTPFb6bouNmSr25fl7sIsb9NJUJbSacgkpeN/GAF1ND4NngO6yXQ4C2oIYC6eiidu4xkBzlM8KQ1IqqC0YBQhdBnkWSxIZ8DmFFJpCyonkFpCTmX0FqSPBSnxnRkeaaSUhoaa5or34PNoiEKD4EK6HOhjdJhA7v+Cjfnr2Yu0FjxVcZCNMmJOq+cm9T1G0JIhTrGftP7roniHT1/x+VmdWUFLCOc2ECnKLFkwyi5L7r9ELE1KRSw7nsk4lB2vCKR1UweaGlDuolYdltLHqkNrI6s60drLgKccx8P5gWp4XbpjavhYe7nugVEfo5EgWMIMjTpjcWaDhJrrZIRgY06zSRFHHcdGxdvT6p8gPjD7klkZF/Ogva7qepzTL/f5YI6mcajXyx8=);strokeColor=none;strokeWidth=0;spacingTop=-3;spacingBottom=-3;spacingLeft=-3;spacingRight=-3;labelBackgroundColor=none;rounded=0;html=1;whiteSpace=wrap;" parent="82" vertex="1">
          <mxGeometry x="1" y="1" width="54" height="19" as="geometry" />
        </mxCell>
        <mxCell id="89" style="vsdxID=93;fillColor=none;gradientColor=none;strokeColor=none;spacingTop=-3;spacingBottom=-3;spacingLeft=-3;spacingRight=-3;labelBackgroundColor=none;rounded=0;html=1;whiteSpace=wrap;" parent="70" vertex="1">
          <mxGeometry x="108" y="143" width="14" height="35" as="geometry" />
        </mxCell>
        <mxCell id="90" style="vsdxID=94;fillColor=#FFFFFF;gradientColor=none;shape=stencil(jZDRCsIwDEW/Jq+lS2Da5zn/Y7DOFms7ujr1720Jw02Y+HaTnFySC9RMphs1oJxSDFf9sH0yQCdAtN7oaFNWQC1QM4SoLzHcfc/12BWyqFuYi8OT92TZQPlaV2cGnfW74LEW9T6rlFAbvJI/nJfhAiOJQ/XvIRvfLD5/DtY5jmk9/84ltzhTat8=);strokeColor=#FFFFFF;spacingTop=-3;spacingBottom=-3;spacingLeft=-3;spacingRight=-3;labelBackgroundColor=none;rounded=0;html=1;whiteSpace=wrap;" parent="89" vertex="1">
          <mxGeometry width="14" height="35" as="geometry" />
        </mxCell>
        <mxCell id="91" style="vsdxID=95;fillColor=#866ba0;gradientColor=#e3dcf1;shape=stencil(lZHRDsIgDEW/hkcWhOjG89T/IK7biDiWgm7+vUyIOo0zvrX3nraES0TpWtUD4cx5tEcYdOVbIraEc921gNqHiogdEWVtERq0566Kfa8mcqpO9jJtGOMcmyY4u8ZOsmyd35V9hBUegosJ3uQyK6LPMI1wXmSFiFrCVmy+9dGPVI3aUbReeW272QuMwgZouEdro5qZ5QaA/kNOLzS6g4XTMhPyOz6HF/b++Ka/4FA806i1MTHMV/89vSDF5MXuBg==);strokeColor=#f5a444;spacingTop=-3;spacingBottom=-3;spacingLeft=-3;spacingRight=-3;labelBackgroundColor=none;rounded=0;html=1;whiteSpace=wrap;" parent="89" vertex="1">
          <mxGeometry x="2" y="3" width="10" height="31" as="geometry" />
        </mxCell>
        <mxCell id="92" style="vsdxID=96;edgeStyle=none;startArrow=none;endArrow=none;startSize=5;endSize=5;strokeWidth=2;strokeColor=#d97250;spacingTop=-3;spacingBottom=-3;spacingLeft=-3;spacingRight=-3;verticalAlign=middle;html=1;labelBackgroundColor=none;rounded=0;" parent="89" edge="1">
          <mxGeometry relative="1" as="geometry">
            <Array as="points" />
            <mxPoint x="12" y="8" as="sourcePoint" />
            <mxPoint x="1" y="2" as="targetPoint" />
          </mxGeometry>
        </mxCell>
        <mxCell id="93" style="vsdxID=97;edgeStyle=none;startArrow=none;endArrow=none;startSize=5;endSize=5;strokeWidth=2;strokeColor=#d97250;spacingTop=-3;spacingBottom=-3;spacingLeft=-3;spacingRight=-3;verticalAlign=middle;html=1;labelBackgroundColor=none;rounded=0;" parent="89" edge="1">
          <mxGeometry relative="1" as="geometry">
            <Array as="points" />
            <mxPoint x="1" y="3" as="sourcePoint" />
            <mxPoint x="1" y="30" as="targetPoint" />
          </mxGeometry>
        </mxCell>
        <mxCell id="94" style="vsdxID=98;fillColor=none;gradientColor=none;labelBackgroundColor=none;rounded=0;strokeColor=none;html=1;whiteSpace=wrap;" parent="70" vertex="1">
          <mxGeometry x="125" y="77" width="75" height="139" as="geometry" />
        </mxCell>
        <mxCell id="95" style="vsdxID=99;fillColor=#cbc1d9;gradientColor=#cbc1d9;gradientDirection=east;shape=stencil(UzV2Ls5ILEhVNTIoLinKz04tz0wpyVA1dlE1MsrMy0gtyiwBslSNXVWNndPyi1LTi/JL81Ig/IJEkEoQKze/DGRCBUSfoYEBSI+RQSUq3w2iOCczD0kxqlJzCz1LM2IV4zHV0lLP1BDVEZZ6lhbIGoAMhAfSMnNyIP5Hlkf3MFAIEljGrgA=);strokeColor=none;strokeWidth=0;spacingTop=-3;spacingBottom=-3;spacingLeft=-3;spacingRight=-3;labelBackgroundColor=none;rounded=0;html=1;whiteSpace=wrap;" parent="94" vertex="1">
          <mxGeometry y="18" width="42" height="120" as="geometry" />
        </mxCell>
        <mxCell id="96" style="vsdxID=100;fillColor=#866ba0;gradientColor=none;shape=stencil(fZHdCsMgDIWfJrfiH6xed917FGqnzGmx7u/tpwtlW0HvTpIvB3ICol/NuGjgdE0xXPTDTsmAOALn1hsdbcoKxACin0PU5xhufsJ6GQtZ1DXci8MT92jZ4PSFFZNEfRonZJ31VVYpIlkdluTA/r0prdPbcIM7QbqG+R5vOLcPzOKbzGydw2B/5/skcwu/IIY3);strokeColor=none;strokeWidth=0;spacingTop=-3;spacingBottom=-3;spacingLeft=-3;spacingRight=-3;labelBackgroundColor=none;rounded=0;html=1;whiteSpace=wrap;" parent="94" vertex="1">
          <mxGeometry x="41" y="23" width="33" height="114" as="geometry" />
        </mxCell>
        <mxCell id="97" style="vsdxID=101;fillColor=#cbc1d9;gradientColor=none;shape=stencil(lZTbboMwDEC/Jq9WYuf63HX/Ual0RGVQUXb7+8GiqYWolvtmE9s6JxFWtLu2h0ujUF+ncTg3X/k4tYpeFGLu22bM0xwp2ivanYaxeRuHj/5Y8sthqVyi9+FzmfBd+vTSgfqnZBj+0tdS2eX+YaXxQExxSpDCqsFqQPu4wej1fKchRinMGpsTtAQkHksIgUGuHZ0Hb+SOPgB6KUxFzmm6BMGJJycwDHWtGRBSkmtGAk9SmIqc0wweDEoneweWefpaMyYg5nm2mv+5AKXi5iSNfuL6GIRaEAki8w9vBcmCE992RT0Htx10yl1XVtj9+XZnzZ/KvqP9Lw==);strokeColor=none;strokeWidth=0;spacingTop=-3;spacingBottom=-3;spacingLeft=-3;spacingRight=-3;labelBackgroundColor=none;rounded=0;html=1;whiteSpace=wrap;" parent="94" vertex="1">
          <mxGeometry y="26" width="42" height="101" as="geometry" />
        </mxCell>
        <mxCell id="98" style="vsdxID=102;fillColor=#FFFFFF;gradientColor=none;shape=stencil(xZfRdtowDIafJpfoyJIlS7dru/fIWdM2Zww4ga3d2080QCED92awu8SWE/3+P1t2w3frl3bVNYTrzbD83r32j5uXhu8bon7x0g39Jp4afmj47mk5dM/D8uficXxftdvI7dOP5a/tF97GcbgdQfh7fLMEyu8tX8fgdvgWvcMuOAkXc+AyDhp2o8i5CGQZW/exePppJ5C8i5i1b/16Niw37aZfLk4SmbfDczeL386e5u3zSdf6tetWR83pONF5v+gu/3z/flaVi6oATkQlo8KH1vOz5YB+PUmnWRJQUrfIyjMTKmro/cJ0mnUG4qzmbk4l7CzvQakm4mD5VUTUaNMERJcVq7o46SG9gzMUELpA8qYGXCFIVxRWB644iFeQY8ZioBP3UrEwZD8pFyYtht0MugTZNDjHLEWDu0znoCMwNi9Z1JInYpNPqfuw/ubUZQSrUUcmsRukKXOIAl4nThKUK4qqEycOySpOovtWwWQtUTQzUG4uW5UDSLsVcBlyVhR15aIc7J3jzSA7ZclWgiPKu6Aabh+e3xw3QsgVW5LlouAysYWUEbiOGyc4iP43ok6KZB03NigV3LKwxL4gk2VkqlSgaMWq6LdyPVV/FdVIlcS4BFGFE18oqtnRighi7If6eVE9mH5z3CpiVTxOEGAT1lJsHRhFpX58Swj+32BLtj9znl9EYU0cY6a2cdiKgNZc9qlAvhlrFhOYUuxuGKRlEzuHWlQQDEdi9UfRNY5jznFUxfGrgBYPH/eGp34+H68dx/3Te0Y0jXcUfvgD);strokeColor=none;strokeWidth=0;spacingTop=-3;spacingBottom=-3;spacingLeft=-3;spacingRight=-3;labelBackgroundColor=none;rounded=0;html=1;whiteSpace=wrap;" parent="94" vertex="1">
          <mxGeometry x="2" y="29" width="15" height="81" as="geometry" />
        </mxCell>
        <mxCell id="99" style="vsdxID=103;fillColor=#866ba0;gradientColor=none;shape=stencil(xVfBktowDP2aHNFYlmTL5+32PzLdAJlSYALtbv++ooEFm42nhw29GTuSn/SeJNPQ02Hd7rvGu8Nx2H3vXvuX47qhL433/XbdDf3RVg09N/S03A3datj93L6Mv/ft6cvT6sfu18nD22iXFNSfrLz7Pe4QQ5S/O19Hg3b4ZqfD2QAloQPW0WY4GzHFCJ7HzRvXkrlmBL18s2jf+sNi2B3bY7/bjuduPNu0w6pb2LWL5aZdZUeH167b321/CJSRA0IKOVBEdgE0ZkhdhtIHYPlUlHiLctNvu6mrMQGF6ZCMG46QitwHFgeJ7nI/RessuS9Uld4Tf75eGHg6MEEvHtAXXDE6B4RZZLaVOTaOOc3HViF+w8QKknKgRIwexFdExQKK88GsiYoUIlVichiSgKM8Jh+TlXRKWUwVXh+jKqbs9kgQ0nRoEdVkL1zIKsXgyxZw8h0z3+og6sOEhYoGoeCArDBMbdpM6yoIYJwPZU1XouAqyTdoYq227FaRnNXCucv9C7MPElZ2e/KQKmyxQyTQu9HiSD6omCKy9wY2/wj0IZr+Lw30yoBYuUszLSq9Fs2jRWU9hysTECMLgi8yz+oQkO4SP8HpfxmAKCBxOjCbgFHvW5VNwHixm5qA3kMInxpYRfqkhhW0aFToBANIXtQFseBm7KY1SdUKhJOanIoCCRo9xOIxWyF0Fj3Z4vpmX/abzfjkvz0v3/i2Nf4/oOc/);strokeColor=none;strokeWidth=0;spacingTop=-3;spacingBottom=-3;spacingLeft=-3;spacingRight=-3;labelBackgroundColor=none;rounded=0;html=1;whiteSpace=wrap;" parent="94" vertex="1">
          <mxGeometry x="17" y="38" width="23" height="86" as="geometry" />
        </mxCell>
        <mxCell id="100" style="vsdxID=104;fillColor=#FFFFFF;gradientColor=none;shape=stencil(jZTLboMwEEW/xtsre8YPvE7T/4gUUqxSiAjN4+8LdaME2trejcfH6FwwI3hzanbHWpA8jUP/Xl/CfmwEvwii0DX1EMapErwVvDn0Q/029J/dPq6Pu5mcq4/+PD/hGs95DzcfInn7aWh48915jXwbuideSbnA7+s/4SXqHawvhglW/w/ntTMxnYKrymM6iyrxVlawhuFS2HrohEhePBNUV7BUHtQwbEJnBSuwK4W1BSdE8uKZoGSgbXlQljAJnSVMFUgVwwyVEMmL54Iicbl+XVxwwmX1OSGL73jir88JT8VjGh1C28Zh9ry/nl5TK04+3n4B);strokeColor=none;strokeWidth=0;spacingTop=-3;spacingBottom=-3;spacingLeft=-3;spacingRight=-3;labelBackgroundColor=none;rounded=0;html=1;whiteSpace=wrap;" parent="94" vertex="1">
          <mxGeometry x="35" y="50" width="2" height="71" as="geometry" />
        </mxCell>
        <mxCell id="101" style="vsdxID=105;fillColor=#FFFFFF;gradientColor=none;shape=stencil(vVPLcsMgDPwajmZklEzMOU3+g2mwzZQaj0we/ftAiKeBpsn00Nz0WEmrBTFcT70aNRMweXIf+mh2vmf4xoQwQ6/J+GAx3DBct450R24/7JI/qoiM1qc7xA6nVAexQsBX8mpeX/xtgloz/AqVDV/JW7Ci95ClK3ghuWxSARXN535LmANzS8kbeYVU6mSmipxX3rghI2AVdboK46rWqi5LTUetxx/huwQReS1ygsBXmDGsAUqCC/w/grnc5fDibfJtlvBHreFVOsfJTz7C/T1fIPFDgYPxfTStsTbd3G2+PLIQSgeKmzM=);strokeColor=none;strokeWidth=0;spacingTop=-3;spacingBottom=-3;spacingLeft=-3;spacingRight=-3;labelBackgroundColor=none;rounded=0;html=1;whiteSpace=wrap;" parent="94" vertex="1">
          <mxGeometry x="40" y="42" width="2" height="96" as="geometry" />
        </mxCell>
        <mxCell id="102" style="vsdxID=106;fillColor=none;gradientColor=none;shape=stencil(jZDNDoMgEISfZq8EQRHO1r6HiVhIKRjE/rx9ocQUm7TpbZj9ZrMM0G5RwyyB4CV4d5Y3PQYF9ACEaKuk1yEqoD3QbnJenrxb7Zjf85DIpC7umjbcc44xVDUpRfAjO5VAgr+cYw4YbYsA3sH4X7DlSLDvcDyjbvdn4B+7t+EGc4HqpsSjeP940sbkwsr5Z0PRyu3S/gk=);strokeColor=#866ba0;spacingTop=-3;spacingBottom=-3;spacingLeft=-3;spacingRight=-3;labelBackgroundColor=none;rounded=0;html=1;whiteSpace=wrap;" parent="94" vertex="1">
          <mxGeometry y="18" width="64" height="120" as="geometry" />
        </mxCell>
        <mxCell id="103" style="vsdxID=107;fillColor=#cbc1d9;gradientColor=#cbc1d9;shape=stencil(hZDdDsIgDIWfprdLKXPZ/ZzvsWRMiAgLw7+3F2yMw/hzd9p+PWkPyG7Rw6yAcInBH9TFjFGD3AKRcVoFE5MC2YPsJh/UPviTG7meh0xmdfTn7HDlvbquGpG3CG/cwUe1Y9gat4IFYoFumkrQdzyNWyoWngYf8dI7Hdb+8P5zdxKvjydjLQe2nr8nlFqcruzv);strokeColor=#866ba0;spacingTop=-3;spacingBottom=-3;spacingLeft=-3;spacingRight=-3;labelBackgroundColor=none;rounded=0;html=1;whiteSpace=wrap;" parent="94" vertex="1">
          <mxGeometry width="75" height="43" as="geometry" />
        </mxCell>
        <mxCell id="104" style="vsdxID=108;fillColor=none;gradientColor=none;shape=stencil(vVVLcoMwDD0Ny2hsyd91m96DaUjClELGoU16+5oaaEQGJl2UnS3pSU+yZGX0dD7mpyJDcW5D81Zcyl17zOg5QyzrYxHKNp4y2mb0tG9CcQjNR71L91PeWXan9+az83BNOItgZIdC8ZUkqADpR/KSAFVZ3wCMBOc4wAPhLSAPr1EbeoDSoE0ChB5BFrRKot5IaxCee3Xge2LXTX4tz5vQtHlbNnXSi6Sr8nAoNjHiZl/lB6Y6X4ridCee42jsHUdDjKPyoP00c+n+jyMvfAzvFAsvCVDNAxABmf2Cc8EdCzCP2hqEhW6Jr0i8W6wBqecBpMETByAovwzgadpYFjv/1tGev7QCZ9hDU2xozV3agfQKzShjV00GRmqwjnFUOLIeODpQuBZHkmMzDhzRDP/GONQCFP9bbOzhteblProzoGk+J6fjzA9lHrKyghQI3h+x0pPaSyHWSmsMNSTlwS8M69S8+3oXpunP6+ABQDz8bp99WVVped3qp9sqitKmo+03);strokeColor=#000000;spacingTop=-3;spacingBottom=-3;spacingLeft=-3;spacingRight=-3;labelBackgroundColor=none;rounded=0;html=1;whiteSpace=wrap;" parent="70" vertex="1">
          <mxGeometry x="49" y="33" width="150" height="182" as="geometry" />
        </mxCell>
        <mxCell id="105" value="&lt;font style=&quot;font-size:14px;font-family:SimHei;color:#000000;direction:ltr;letter-spacing:0px;line-height:120%;opacity:1&quot;&gt;OSS …&lt;br/&gt;&lt;/font&gt;" style="text;vsdxID=74;fillColor=none;gradientColor=none;labelBackgroundColor=none;rounded=0;strokeColor=none;html=1;whiteSpace=wrap;verticalAlign=middle;align=center;;html=1;" parent="70" vertex="1">
          <mxGeometry x="69.49" y="214.89" width="60.68" height="28.23" as="geometry" />
        </mxCell>
        <mxCell id="106" style="vsdxID=109;fillColor=none;gradientColor=none;strokeColor=none;labelBackgroundColor=none;rounded=0;html=1;whiteSpace=wrap;" parent="69" vertex="1">
          <mxGeometry x="-6" y="106" width="75" height="100" as="geometry" />
        </mxCell>
        <mxCell id="107" value="" style="verticalAlign=middle;align=center;vsdxID=110;fillColor=#FF00FF;gradientColor=none;fillOpacity=0;strokeOpacity=0;shape=stencil(vVXLcsIwDPyaHKOx5feZ0v/wlACZpgnjhEL/vk4dUmQGpj2QmyPJ0a68kgqx6vf+UBXI+iF079Wp3gz7QrwUiHW7r0I9xFMh1oVYbbtQ7UJ3bDfp++DHyPH00X2Ofzine2hAqvEWsq9kERLcj+E1xfvwFp1hipcSrE7x4XIBwfFkmoIY+aEWoO3kL/257svQDX6ou5ZENz7sqjJmK7eN3xFXf6qqw415wtfU7RUfBpzSMQa4vc+HK0BL+XAOSPmomfMUYjWwJ1KiENX0HjNACQIJPo4gc3x2MXxmznUBqMBYClADpxV0sch6KYScadCcYjQWaBG1zjvBOXBuKYyx7UTWWLGOmRAtgs4wxpcWyylR3UgxA+iAUyk6M5f++QBRAMuKGKWXTSfO6HyKmHGx+ZQn1wqkeTBuxSzBq3GLhhAyURWCznADqJaiFNMLc5NePnglB0ZlUudgaTvGsXJnL/2bEv8DpXj4XZHbumnShr325ys1mtI6Futv);labelBackgroundColor=none;rounded=0;html=1;whiteSpace=wrap;" parent="106" vertex="1">
          <mxGeometry x="-7" width="75" height="100" as="geometry" />
        </mxCell>
        <mxCell id="108" style="vsdxID=111;fillColor=#8eb1e1;gradientColor=#4e8ec2;shape=stencil(vZXJbsIwEEC/JseMvC9nSv/DKgaipglyQqF/X6fGoWMK6iXcnFnsN5mt4qth7w6+YmQYQ//uT81m3Ff8pWKs6fY+NGM8VXxd8dW2D34X+mO3Sd8HN1lOp4/+c7rhnPyoAqomL0a+ksQokPpH8pocXHiL2pAdSNSL5BEuLpQRIDLJLmZKgZDoXmvB2otN7c7NUId+dGPTd0lPkq51Yefr+Ga9bd0OqYaT94cb8Z+UXMzPZ0huwFDEaBioglEC5c9ilCAtRlTAMaAFKjBgNHkaIONANCaM0HMScz0QXD4c5IKEbdP5+48LBVbdD0jwmT4HJGyu9nynjlXB0a0cFFsuItyPTJd98yBBQoApEiQJSIXiKf6QALZgMDg9BCiORQmw8sFskcBMMVr0lTe3jcEDS5tF81M27U3PKoEbggHuWW3ByGfxaTDFHzSz5B8jfxHCeLiun23Ttml7/daX6yqK0qrj628=);strokeColor=#000000;spacingTop=-3;spacingBottom=-3;spacingLeft=-3;spacingRight=-3;labelBackgroundColor=none;rounded=0;html=1;whiteSpace=wrap;" parent="106" vertex="1">
          <mxGeometry y="35" width="75" height="65" as="geometry" />
        </mxCell>
        <mxCell id="109" value="" style="verticalAlign=middle;align=center;vsdxID=112;fillColor=#8eb1e1;gradientColor=#4e8ec2;shape=stencil(vVHLDsIgEPwajiQI6RfU+h8bu22JCGRB2/69kG1iazx58DazM/vIjjBtmiCi0CplCjecbZ8nYc5Ca+snJJsLEqYTph0C4Ujh4XvmEaqzont41gkL96naodXKrGF6YSfQtUi0OXXDVlqPfJNP6usotUhYbJIUMmQb/GGrAxpRljVycDBuc1hKM2LclX8/7H9nFfB+82Cd45T2+mcspcSRmu4F);strokeColor=#000000;spacingTop=-3;spacingBottom=-3;spacingLeft=-3;spacingRight=-3;labelBackgroundColor=none;rounded=0;html=1;whiteSpace=wrap;" parent="106" vertex="1">
          <mxGeometry x="16" width="44" height="43" as="geometry" />
        </mxCell>
        <mxCell id="110" style="vsdxID=113;edgeStyle=none;startArrow=none;endArrow=none;startSize=5;endSize=5;strokeColor=#000000;spacingTop=-3;spacingBottom=-3;spacingLeft=-3;spacingRight=-3;verticalAlign=middle;html=1;labelBackgroundColor=#ffffff;rounded=0;" parent="106" edge="1">
          <mxGeometry relative="1" as="geometry">
            <Array as="points" />
            <mxPoint x="9" y="86" as="sourcePoint" />
            <mxPoint x="16" y="45" as="targetPoint" />
          </mxGeometry>
        </mxCell>
        <mxCell id="111" style="vsdxID=114;edgeStyle=none;startArrow=none;endArrow=none;startSize=5;endSize=5;strokeColor=#000000;spacingTop=-3;spacingBottom=-3;spacingLeft=-3;spacingRight=-3;verticalAlign=middle;html=1;labelBackgroundColor=#ffffff;rounded=0;" parent="106" edge="1">
          <mxGeometry relative="1" as="geometry">
            <Array as="points" />
            <mxPoint x="62" y="96" as="sourcePoint" />
            <mxPoint x="59" y="52" as="targetPoint" />
          </mxGeometry>
        </mxCell>
        <mxCell id="112" style="vsdxID=115;fillColor=#8eb1e1;gradientColor=#4e8ec2;shape=stencil(ZZDRDsIgDEW/hkcWBMXsec7/aFzHiHMsBd38eyGQuOlbe+9pC5epxg8wI5PCB3J3XGwXBqYuTEo7DUg2xIqplqmmd4SG3HPqcj9DIlP1cK+0Yc1zIk1I8d521wwC3aJDBdS6UqcMU6Hlsa7qohXqIPYLpa7OdSE4rNZzcgGCddPu/AhkkMeDvB/B7Cy/IM5/cnliLL4fy5lsvd8QopQDVO0H);strokeColor=#000000;spacingTop=-3;spacingBottom=-3;spacingLeft=-3;spacingRight=-3;labelBackgroundColor=none;rounded=0;html=1;whiteSpace=wrap;" parent="106" vertex="1">
          <mxGeometry x="20" y="34" width="33" height="8" as="geometry" />
        </mxCell>
        <mxCell id="113" style="vsdxID=116;fillColor=#8eb1e1;gradientColor=none;shape=stencil(vVVLcsIwDD1NltFEdvxbU3oPTzGQKU0YJy1w+yo1FORMabsgO1uSrff0LeSi3/p9KETVD7F7DYdmNWwL+VQI0bTbEJuBToVcFnKx7mLYxO69XaX73o+W4+mt+xh/OKZ3wkCtxleiOiWJrMF9CZ6TvY8vpIxn+1qB0ck+Xh5IUCaJzkYV+1BLuKhLf2z6MnaDH5quZcY7HzehJGfleuc3TNUfQthPxGd4u6a9oVMBcjbGANqf6aACYTkdRBDI6Ciwmn1qNVT2cZQ4RPLuOMIapGAAUUCdA7SzATRgDQdINcILAjUgD6GjKOu5EGKlQWVpNhbQMZBa563gHDg3F0jqO5l1FgUyK0UrQPNUO0q1nK8W1aQWM4AOUHKABjTOBVBIqLIgUu053i43aT19oxYP7Bc+o6buNYXozpCqacCqbOYiOMVIGaoMwQe5eWiLcVLkXuqJ+/pOptxkkQi8lvKv2+nfnPAPnOhwXZRpx97q8qVKorSQ5fIT);strokeColor=#000000;strokeWidth=3;spacingTop=-3;spacingBottom=-3;spacingLeft=-3;spacingRight=-3;labelBackgroundColor=none;rounded=0;html=1;whiteSpace=wrap;" parent="106" vertex="1">
          <mxGeometry width="75" height="100" as="geometry" />
        </mxCell>
        <mxCell id="114" value="&lt;font style=&quot;font-size:11px;font-family:仿宋;color:#000000;direction:ltr;letter-spacing:0px;line-height:120%;opacity:1&quot;&gt;&lt;b&gt;数据拥有者&lt;br/&gt;&lt;/b&gt;&lt;/font&gt;" style="text;vsdxID=109;fillColor=none;gradientColor=none;strokeColor=none;labelBackgroundColor=none;rounded=0;html=1;whiteSpace=wrap;verticalAlign=middle;align=center;;html=1;" parent="106" vertex="1">
          <mxGeometry x="0.9" y="100" width="73.65" height="24.84" as="geometry" />
        </mxCell>
        <mxCell id="115" style="vsdxID=117;fillColor=none;gradientColor=none;flipH=1;labelBackgroundColor=none;rounded=0;strokeColor=none;html=1;whiteSpace=wrap;" parent="1" vertex="1">
          <mxGeometry x="509" y="1256" width="249" height="249" as="geometry" />
        </mxCell>
        <mxCell id="116" style="vsdxID=118;fillColor=none;gradientColor=none;labelBackgroundColor=none;rounded=0;strokeColor=none;html=1;whiteSpace=wrap;" parent="115" vertex="1">
          <mxGeometry x="10" width="249" height="249" as="geometry" />
        </mxCell>
        <mxCell id="117" style="vsdxID=119;fillColor=#FFFFFF;gradientColor=none;shape=stencil(vVVLcoMwDD0Ny2hsyd91m96DaUjClELGoU16+5oaaEQGJl2UnS3pSU+yZGX0dD7mpyJDcW5D81Zcyl17zOg5QyzrYxHKNp4y2mb0tG9CcQjNR71L91PeWXan9+az83BNOItgZIdC8ZUkqADpR/KSAFVZ3wCMBOc4wAPhLSAPr1EbeoDSoE0ChB5BFrRKot5IaxCee3Xge2LXTX4tz5vQtHlbNnXSi6Sr8nAoNjHiZl/lB6Y6X4ridCee42jsHUdDjKPyoP00c+n+jyMvfAzvFAsvCVDNAxABmf2Cc8EdCzCP2hqEhW6Jr0i8W6wBqecBpMETByAovwzgadpYFjv/1tGev7QCZ9hDU2xozV3agfQKzShjV00GRmqwjnFUOLIeODpQuBZHkmMzDhzRDP/GONQCFP9bbOzhteblProzoGk+J6fjzA9lHrKyghQI3h+x0pPaSyHWSmsMNSTlwS8M69S8+3oXpunP6+ABQDz8bp99WVVped3qp9sqitKmo+03);strokeColor=none;strokeWidth=0;spacingTop=-3;spacingBottom=-3;spacingLeft=-3;spacingRight=-3;labelBackgroundColor=none;rounded=0;html=1;whiteSpace=wrap;" parent="116" vertex="1">
          <mxGeometry x="49" y="33" width="150" height="182" as="geometry" />
        </mxCell>
        <mxCell id="118" style="vsdxID=120;fillColor=none;gradientColor=none;labelBackgroundColor=none;rounded=0;strokeColor=none;html=1;whiteSpace=wrap;" parent="116" vertex="1">
          <mxGeometry x="49" y="33" width="75" height="139" as="geometry" />
        </mxCell>
        <mxCell id="119" style="vsdxID=121;fillColor=#d3d3d3;gradientColor=none;shape=stencil(UzV2Ls5ILEhVNTIoLinKz04tz0wpyVA1dlE1MsrMy0gtyiwBslSNXVWNndPyi1LTi/JL81Ig/IJEkEoQKze/DGRCBUSfoYEBSI+RQSUq3w2iOCczD0kxqlJzCz1LM2IV4zHV0lLP1BDVEZZ6lhbIGoAMhAfSMnNyIP5Hlkf3MFAIEljGrgA=);strokeColor=none;strokeWidth=0;spacingTop=-3;spacingBottom=-3;spacingLeft=-3;spacingRight=-3;labelBackgroundColor=none;rounded=0;html=1;whiteSpace=wrap;" parent="118" vertex="1">
          <mxGeometry y="18" width="42" height="120" as="geometry" />
        </mxCell>
        <mxCell id="120" style="vsdxID=122;fillColor=#6b6b6b;gradientColor=none;shape=stencil(fZHdCsMgDIWfJrfiH6xed917FGqnzGmx7u/tpwtlW0HvTpIvB3ICol/NuGjgdE0xXPTDTsmAOALn1hsdbcoKxACin0PU5xhufsJ6GQtZ1DXci8MT92jZ4PSFFZNEfRonZJ31VVYpIlkdluTA/r0prdPbcIM7QbqG+R5vOLcPzOKbzGydw2B/5/skcwu/IIY3);strokeColor=none;strokeWidth=0;spacingTop=-3;spacingBottom=-3;spacingLeft=-3;spacingRight=-3;labelBackgroundColor=none;rounded=0;html=1;whiteSpace=wrap;" parent="118" vertex="1">
          <mxGeometry x="41" y="23" width="33" height="114" as="geometry" />
        </mxCell>
        <mxCell id="121" style="vsdxID=123;fillColor=#a5a5a5;gradientColor=none;shape=stencil(lZTbboMwDEC/Jq9WYuf63HX/Ual0RGVQUXb7+8GiqYWolvtmE9s6JxFWtLu2h0ujUF+ncTg3X/k4tYpeFGLu22bM0xwp2ivanYaxeRuHj/5Y8sthqVyi9+FzmfBd+vTSgfqnZBj+0tdS2eX+YaXxQExxSpDCqsFqQPu4wej1fKchRinMGpsTtAQkHksIgUGuHZ0Hb+SOPgB6KUxFzmm6BMGJJycwDHWtGRBSkmtGAk9SmIqc0wweDEoneweWefpaMyYg5nm2mv+5AKXi5iSNfuL6GIRaEAki8w9vBcmCE992RT0Htx10yl1XVtj9+XZnzZ/KvqP9Lw==);strokeColor=none;strokeWidth=0;spacingTop=-3;spacingBottom=-3;spacingLeft=-3;spacingRight=-3;labelBackgroundColor=none;rounded=0;html=1;whiteSpace=wrap;" parent="118" vertex="1">
          <mxGeometry y="26" width="42" height="101" as="geometry" />
        </mxCell>
        <mxCell id="122" style="vsdxID=124;fillColor=#FFFFFF;gradientColor=none;shape=stencil(zZfbbtswDIafxpchJFKUyNt1HbDHMFYnMZbZgeOt7duPqXOykagYNme9MWRKsvnr/3Qq6GG3LrdVgW7Xd+336rl+6tcFfS4Q62ZddXVvpYIeC3pYtl216tqfzdPwvi33LfelH+2v/Rdehn5u3wPd6/AmHiK9Rb4Mjcvum9V2h8aeKYkCpaFTd+iFSokh8BA9tnXjTysCh0OLRflS7xZd25d93TajRDZlt6oW9tvFclOuRlW756raXoT9ZaKbuqlu//z4flWVcowMbiLKCyY6Ra+PloLT+SSNs0RAH1UsKw2ELmIwvZ8Ix1kHQApRVEUxmZ361sjnRJwsn0VEjrboAfG24hiVFeMpvZMzaBAqg9ciB1xC8DMKywOXFFgzyBG5JBAn7vkkZshxUG4MmnW7G3TBZrVITJ4SOUGVa8wJsJGJlFzgZE9+l7mz8XdnLjiQHHMobGuBnxLnHIPmeWMPaUZRed5YwUtm4XaqewWTmYQWJsBQ3LYqGI5yR9xCdBw1UooknK7jFhQDB0nGkRX8u7idPb87buggZGzxElIE5YktGMkB5XEjDyfR/0bUaIvM40YCKYNbYGLbsHgyjSRGTJBixiqrlzSfqnGaX5tl3dT96zjLcTTv6h8n6f+Sp4yayGrLMMgEJm9rg7M9I3868w70v9Hk5XikvD5LJLGdUqbrALHYLHFS3PYpQfj4MLn5SLLC+dy/rDeb4dpwWT+9J1houGPQ428=);strokeColor=none;strokeWidth=0;spacingTop=-3;spacingBottom=-3;spacingLeft=-3;spacingRight=-3;labelBackgroundColor=none;rounded=0;html=1;whiteSpace=wrap;" parent="118" vertex="1">
          <mxGeometry x="2" y="29" width="15" height="81" as="geometry" />
        </mxCell>
        <mxCell id="123" style="vsdxID=125;fillColor=#6b6b6b;gradientColor=none;shape=stencil(xVfBktowDP2aHNFYlmTL5+32PzLdAJlSYALtbv++ooEFm42nhw29GTuSn/SeJNPQ02Hd7rvGu8Nx2H3vXvuX47qhL433/XbdDf3RVg09N/S03A3datj93L6Mv/ft6cvT6sfu18nD22iXFNSfrLz7Pe4QQ5S/O19Hg3b4ZqfD2QAloQPW0WY4GzHFCJ7HzRvXkrlmBL18s2jf+sNi2B3bY7/bjuduPNu0w6pb2LWL5aZdZUeH167b321/CJSRA0IKOVBEdgE0ZkhdhtIHYPlUlHiLctNvu6mrMQGF6ZCMG46QitwHFgeJ7nI/RessuS9Uld4Tf75eGHg6MEEvHtAXXDE6B4RZZLaVOTaOOc3HViF+w8QKknKgRIwexFdExQKK88GsiYoUIlVichiSgKM8Jh+TlXRKWUwVXh+jKqbs9kgQ0nRoEdVkL1zIKsXgyxZw8h0z3+og6sOEhYoGoeCArDBMbdpM6yoIYJwPZU1XouAqyTdoYq227FaRnNXCucv9C7MPElZ2e/KQKmyxQyTQu9HiSD6omCKy9wY2/wj0IZr+Lw30yoBYuUszLSq9Fs2jRWU9hysTECMLgi8yz+oQkO4SP8HpfxmAKCBxOjCbgFHvW5VNwHixm5qA3kMInxpYRfqkhhW0aFToBANIXtQFseBm7KY1SdUKhJOanIoCCRo9xOIxWyF0Fj3Z4vpmX/abzfjkvz0v3/i2Nf4/oOc/);strokeColor=none;strokeWidth=0;spacingTop=-3;spacingBottom=-3;spacingLeft=-3;spacingRight=-3;labelBackgroundColor=none;rounded=0;html=1;whiteSpace=wrap;" parent="118" vertex="1">
          <mxGeometry x="17" y="38" width="23" height="86" as="geometry" />
        </mxCell>
        <mxCell id="124" style="vsdxID=126;fillColor=#FFFFFF;gradientColor=none;shape=stencil(jZTLboMwEEW/xtsre8YPvE7T/4gUUqxSiAjN4+8LdaME2trejcfH6FwwI3hzanbHWpA8jUP/Xl/CfmwEvwii0DX1EMapErwVvDn0Q/029J/dPq6Pu5mcq4/+PD/hGs95DzcfInn7aWh48915jXwbuideSbnA7+s/4SXqHawvhglW/w/ntTMxnYKrymM6iyrxVlawhuFS2HrohEhePBNUV7BUHtQwbEJnBSuwK4W1BSdE8uKZoGSgbXlQljAJnSVMFUgVwwyVEMmL54Iicbl+XVxwwmX1OSGL73jir88JT8VjGh1C28Zh9ry/nl5TK04+3n4B);strokeColor=none;strokeWidth=0;spacingTop=-3;spacingBottom=-3;spacingLeft=-3;spacingRight=-3;labelBackgroundColor=none;rounded=0;html=1;whiteSpace=wrap;" parent="118" vertex="1">
          <mxGeometry x="35" y="50" width="2" height="71" as="geometry" />
        </mxCell>
        <mxCell id="125" style="vsdxID=127;fillColor=#FFFFFF;gradientColor=none;shape=stencil(vVPLcsMgDPwajmZklEzMOU3+g2mwzZQaj0we/ftAiKeBpsn00Nz0WEmrBTFcT70aNRMweXIf+mh2vmf4xoQwQ6/J+GAx3DBct450R24/7JI/qoiM1qc7xA6nVAexQsBX8mpeX/xtgloz/AqVDV/JW7Ci95ClK3ghuWxSARXN535LmANzS8kbeYVU6mSmipxX3rghI2AVdboK46rWqi5LTUetxx/huwQReS1ygsBXmDGsAUqCC/w/grnc5fDibfJtlvBHreFVOsfJTz7C/T1fIPFDgYPxfTStsTbd3G2+PLIQSgeKmzM=);strokeColor=none;strokeWidth=0;spacingTop=-3;spacingBottom=-3;spacingLeft=-3;spacingRight=-3;labelBackgroundColor=none;rounded=0;html=1;whiteSpace=wrap;" parent="118" vertex="1">
          <mxGeometry x="40" y="42" width="2" height="96" as="geometry" />
        </mxCell>
        <mxCell id="126" style="vsdxID=128;fillColor=none;gradientColor=none;shape=stencil(jZDNDoMgEISfZq8EQRHO1r6HiVhIKRjE/rx9ocQUm7TpbZj9ZrMM0G5RwyyB4CV4d5Y3PQYF9ACEaKuk1yEqoD3QbnJenrxb7Zjf85DIpC7umjbcc44xVDUpRfAjO5VAgr+cYw4YbYsA3sH4X7DlSLDvcDyjbvdn4B+7t+EGc4HqpsSjeP940sbkwsr5Z0PRyu3S/gk=);strokeColor=#6b6b6b;spacingTop=-3;spacingBottom=-3;spacingLeft=-3;spacingRight=-3;labelBackgroundColor=none;rounded=0;html=1;whiteSpace=wrap;" parent="118" vertex="1">
          <mxGeometry y="18" width="64" height="120" as="geometry" />
        </mxCell>
        <mxCell id="127" style="vsdxID=129;fillColor=#a5a5a5;gradientColor=#a5a5a5;shape=stencil(hZDdDsIgDIWfprdLKXPZ/ZzvsWRMiAgLw7+3F2yMw/hzd9p+PWkPyG7Rw6yAcInBH9TFjFGD3AKRcVoFE5MC2YPsJh/UPviTG7meh0xmdfTn7HDlvbquGpG3CG/cwUe1Y9gat4IFYoFumkrQdzyNWyoWngYf8dI7Hdb+8P5zdxKvjydjLQe2nr8nlFqcruzv);strokeColor=#6b6b6b;spacingTop=-3;spacingBottom=-3;spacingLeft=-3;spacingRight=-3;labelBackgroundColor=none;rounded=0;html=1;whiteSpace=wrap;" parent="118" vertex="1">
          <mxGeometry width="75" height="43" as="geometry" />
        </mxCell>
        <mxCell id="128" style="vsdxID=130;fillColor=none;gradientColor=none;strokeColor=none;spacingTop=-3;spacingBottom=-3;spacingLeft=-3;spacingRight=-3;labelBackgroundColor=none;rounded=0;html=1;whiteSpace=wrap;" parent="116" vertex="1">
          <mxGeometry x="103" y="86" width="58" height="93" as="geometry" />
        </mxCell>
        <mxCell id="129" style="vsdxID=131;fillColor=#f5a444;gradientColor=none;shape=stencil(vZPbUsQgDIafhstmOBXp9bq+B+PSlhFLh6K7vr1UcGyq64wX7l0Of9KvISHisIxmtoTTJcXwZM/ulEYi7gnnbhptdClbRByJOPQh2iGGl+lU/NmsytV6Dq9rh0upo8DEWsTpWw18eA9F69201SKhlsDbrdjEx5yNVcxakLVzrBWMgioVnx01dB1q2nG4U1XSmItbmhiSSS5MCMGbONgmf7DpvRlQajlbO38L/4jYUpASIwoJmiFEpoFpzNhCK2/FmAfCd4xKgFKIMf+IkJixA6pvxSglSLWbY35qjedIr63PvxDizc3j0PgRKaze1U3/y1X8qs3G1+n1zvtyudv8/lRzqJy5OL4D);strokeColor=none;strokeWidth=0;spacingTop=-3;spacingBottom=-3;spacingLeft=-3;spacingRight=-3;labelBackgroundColor=none;rounded=0;html=1;whiteSpace=wrap;" parent="128" vertex="1">
          <mxGeometry y="10" width="57" height="83" as="geometry" />
        </mxCell>
        <mxCell id="130" style="vsdxID=132;fillColor=#face1c;gradientColor=#fff6d3;gradientDirection=east;shape=stencil(vVbbboMwDP0aHrHiOBfy3HX/gVbaojGoAl27v19YYG1Siiat5S2JY/scx5cktGr3+aFIOGs727wXp3LT7RN6STgv631hy86tElontNo2ttjZ5lhv/P6Q9zf71Ufz2Vs4ez1jwIhei7Mvf0IaUP6cvHqF3L45qR0UUBiSPAP0SnbQQoZScwPaq16Zz3Rgng3yND+XbWqbLu/Kpg5kVW53Rercptsq3wWi9lQUh5vjAWhV1lfMGCBNeJ4mpQiRCSARsUJmuCFQFLBigV2dAcnnsQqRShICjA5hkiIJTM5gzMTvMz8II85EPnQtgc/mEwge0nE5gwGXS4DHGxzMUnl04xxByvvX+5fI/nXfZCDMTMBIgIry1DgfOgiZq2LFY7P6sSkwV1CuKETcIlwkKCwkMqBUjDJ74tPGZY/AKW5kDlNYSoLFTcyhHGvw+Qk47Z7P0EIGPMoQfekaYycJy9R1ao5LBV7EDQzBqAAdsntdZIGI3zinca5Ns1FKu3FDMSct3ENEo2Nu3i7A7A/j3i0un4VtWVX+r3Etjz8X7sh/TGj9DQ==);strokeColor=none;strokeWidth=0;spacingTop=-3;spacingBottom=-3;spacingLeft=-3;spacingRight=-3;labelBackgroundColor=none;rounded=0;html=1;whiteSpace=wrap;" parent="128" vertex="1">
          <mxGeometry x="1" y="11" width="54" height="80" as="geometry" />
        </mxCell>
        <mxCell id="131" style="vsdxID=133;fillColor=#face1c;gradientColor=#fff6d3;gradientDirection=east;shape=stencil(tVLLDsIgEPwajiWVrVbOWv+DKG2JWJoFbf17aahaqibGxNs+ZnZnYQhsbC1aSVhqHZqj7NTB1QS2hDHV1BKV8xGBgsCmNCgrNOfmEPJWDMghOpnLMKEPvHRgsPQ6zXYBqFXzEciBZnwKFrj3XRzBwDO6XgcGjpQ8pzmE0h0FlOfx2BXlI61PRK9sgsYJp0wTidACK5n4lUmpRRW1bCdl+1J+L3LJ6GImcsUpsEjkIo0vf+T/EBg/+Xz117/zG9AHT5eUSutgsml/7ipfCo6E4gY=);strokeColor=none;strokeWidth=0;spacingTop=-3;spacingBottom=-3;spacingLeft=-3;spacingRight=-3;labelBackgroundColor=none;rounded=0;html=1;whiteSpace=wrap;" parent="128" vertex="1">
          <mxGeometry x="5" y="13" width="15" height="78" as="geometry" />
        </mxCell>
        <mxCell id="132" style="vsdxID=134;fillColor=#f4f4f4;gradientColor=none;shape=stencil(vVRLcsIwDD1NltFY8i9eU3oPTzHgaZowTijh9nXqDOBkaLso7GTJkp5+r+Crbm8PriDW9aF9dye/6fcFfymIfLN3wfdRKvi64KttG9wutMdmk94HO/4cpY/2c4wwJD/JgInRi9g5abQC5N+a1+Rgw1u0hslBCdDJzMLkwbECxKSbfrEs5PQaSjv4rgxtb3vfNpmttmHnypiq3NZ2l5m6k3OHGzXegqt94+6lJYRK368EDWidV2I0oMoKUaBMFlQSoPjXeth9iHE6lcghkjBQmQwjajCLGdLTQBpa9FFICYZnIDld9uZ88bs0++EgkSSQylEqlJBPe3kNcSMMPgukihhpdlvEQOadRDZbcwJRPQ5ifmHz5AzUDyc2FrSsR/Bfmn6loCdwxh8YMApX/tz6uk70e2uf821UJa7m6y8=);strokeColor=none;strokeWidth=0;spacingTop=-3;spacingBottom=-3;spacingLeft=-3;spacingRight=-3;labelBackgroundColor=none;rounded=0;html=1;whiteSpace=wrap;" parent="128" vertex="1">
          <mxGeometry x="1" y="12" width="54" height="11" as="geometry" />
        </mxCell>
        <mxCell id="133" style="vsdxID=135;fillColor=#f5a444;gradientColor=none;shape=stencil(vZbNcuMgDMefxsdoQBIgzt32PTytk3jWG2eIu+2+ffHadSK63Z7KjYg/+Behr4buLsf23DVoLlMaf3Yv/dN0bOhHg9ifjl3qp7xq6L6hu/2YukMan09Py+9zOyvn1a/x93zD63LOgLXzITR/FgMHCP6v5WHRD/3pVq/EzoAocZse825axZbBL9smrScoX79YVo0DJnWnjyC4Snbta3/ZpXFqp348KYKhTYdul7+32w/tQW1dXrru/MH8T0KKEIMmtAYhRMVoPbBXkMIQqBZksICugBQC9AoSaXP2KooGqJonI4NlDYmMYFFBkoUgGpKBpRakzfFusIhII+BFUeawfud+pwwQq1E6BF9AWnJApCBjzpNQZuN3ulIXAmt0KeAIiJ/LZ1ouCw3z505ABlPUDm9BdGLmLHBR3WoJ2NZ6KDFbEm4xb3Kt0DHvBfQ/z9CuWsTbsPFcI95C1I78GPGmHqGHWAKarZZdC4cUTvS1CGXrcjfPHLbGcW0STrfSHIsu1IJkU1SM3MakKGvg9BujQDW+PAtI0WlJAFkR/mcaqVDSvp6F8uI6SO37YVjmsNv9cvDKpmVoo/s3);strokeColor=none;strokeWidth=0;spacingTop=-3;spacingBottom=-3;spacingLeft=-3;spacingRight=-3;labelBackgroundColor=none;rounded=0;html=1;whiteSpace=wrap;" parent="128" vertex="1">
          <mxGeometry width="57" height="22" as="geometry" />
        </mxCell>
        <mxCell id="134" style="vsdxID=136;fillColor=#f4f4f4;gradientColor=#f5cc6e;shape=stencil(xZbbcoIwEIafhkt2ciIk19a+B1NRmVJwAq327buIgruO1gub3sXNJnz+mz0ketFti12ZKNH1oX0v99Wq3yb6JVGqarZlqHpcJXqZ6MW6DeUmtJ/Navy9KwbPYfXRfg03HMZzAoQeDinxPRqMB+uOltfRv66a3/yzS/8ivOFuOPmryT+cDmRg7Wg5X0nuy/AL8rSfFoeqS0PbF33VNsS7LsKmTPFb6bouNmSr25fl7sIsb9NJUJbSacgkpeN/GAF1ND4NngO6yXQ4C2oIYC6eiidu4xkBzlM8KQ1IqqC0YBQhdBnkWSxIZ8DmFFJpCyonkFpCTmX0FqSPBSnxnRkeaaSUhoaa5or34PNoiEKD4EK6HOhjdJhA7v+Cjfnr2Yu0FjxVcZCNMmJOq+cm9T1G0JIhTrGftP7roniHT1/x+VmdWUFLCOc2ECnKLFkwyi5L7r9ELE1KRSw7nsk4lB2vCKR1UweaGlDuolYdltLHqkNrI6s60drLgKccx8P5gWp4XbpjavhYe7nugVEfo5EgWMIMjTpjcWaDhJrrZIRgY06zSRFHHcdGxdvT6p8gPjD7klkZF/Ogva7qepzTL/f5YI6mcajXyx8=);strokeColor=none;strokeWidth=0;spacingTop=-3;spacingBottom=-3;spacingLeft=-3;spacingRight=-3;labelBackgroundColor=none;rounded=0;html=1;whiteSpace=wrap;" parent="128" vertex="1">
          <mxGeometry x="1" y="1" width="54" height="19" as="geometry" />
        </mxCell>
        <mxCell id="135" style="vsdxID=137;fillColor=none;gradientColor=none;strokeColor=none;spacingTop=-3;spacingBottom=-3;spacingLeft=-3;spacingRight=-3;labelBackgroundColor=none;rounded=0;html=1;whiteSpace=wrap;" parent="116" vertex="1">
          <mxGeometry x="108" y="143" width="14" height="35" as="geometry" />
        </mxCell>
        <mxCell id="136" style="vsdxID=138;fillColor=#FFFFFF;gradientColor=none;shape=stencil(jZDRCsIwDEW/Jq+lS2Da5zn/Y7DOFms7ujr1720Jw02Y+HaTnFySC9RMphs1oJxSDFf9sH0yQCdAtN7oaFNWQC1QM4SoLzHcfc/12BWyqFuYi8OT92TZQPlaV2cGnfW74LEW9T6rlFAbvJI/nJfhAiOJQ/XvIRvfLD5/DtY5jmk9/84ltzhTat8=);strokeColor=#FFFFFF;spacingTop=-3;spacingBottom=-3;spacingLeft=-3;spacingRight=-3;labelBackgroundColor=none;rounded=0;html=1;whiteSpace=wrap;" parent="135" vertex="1">
          <mxGeometry width="14" height="35" as="geometry" />
        </mxCell>
        <mxCell id="137" style="vsdxID=139;fillColor=#6b6b6b;gradientColor=#d3d3d3;shape=stencil(lZHRDsIgDEW/hkcWhOjG89T/IK7biDiWgm7+vUyIOo0zvrX3nraES0TpWtUD4cx5tEcYdOVbIraEc921gNqHiogdEWVtERq0566Kfa8mcqpO9jJtGOMcmyY4u8ZOsmyd35V9hBUegosJ3uQyK6LPMI1wXmSFiFrCVmy+9dGPVI3aUbReeW272QuMwgZouEdro5qZ5QaA/kNOLzS6g4XTMhPyOz6HF/b++Ka/4FA806i1MTHMV/89vSDF5MXuBg==);strokeColor=#f5a444;spacingTop=-3;spacingBottom=-3;spacingLeft=-3;spacingRight=-3;labelBackgroundColor=none;rounded=0;html=1;whiteSpace=wrap;" parent="135" vertex="1">
          <mxGeometry x="2" y="3" width="10" height="31" as="geometry" />
        </mxCell>
        <mxCell id="138" style="vsdxID=140;edgeStyle=none;startArrow=none;endArrow=none;startSize=5;endSize=5;strokeWidth=2;strokeColor=#d97250;spacingTop=-3;spacingBottom=-3;spacingLeft=-3;spacingRight=-3;verticalAlign=middle;html=1;labelBackgroundColor=none;rounded=0;" parent="135" edge="1">
          <mxGeometry relative="1" as="geometry">
            <Array as="points" />
            <mxPoint x="12" y="8" as="sourcePoint" />
            <mxPoint x="1" y="2" as="targetPoint" />
          </mxGeometry>
        </mxCell>
        <mxCell id="139" style="vsdxID=141;edgeStyle=none;startArrow=none;endArrow=none;startSize=5;endSize=5;strokeWidth=2;strokeColor=#d97250;spacingTop=-3;spacingBottom=-3;spacingLeft=-3;spacingRight=-3;verticalAlign=middle;html=1;labelBackgroundColor=none;rounded=0;" parent="135" edge="1">
          <mxGeometry relative="1" as="geometry">
            <Array as="points" />
            <mxPoint x="1" y="3" as="sourcePoint" />
            <mxPoint x="1" y="30" as="targetPoint" />
          </mxGeometry>
        </mxCell>
        <mxCell id="140" style="vsdxID=142;fillColor=none;gradientColor=none;labelBackgroundColor=none;rounded=0;strokeColor=none;html=1;whiteSpace=wrap;" parent="116" vertex="1">
          <mxGeometry x="125" y="77" width="75" height="139" as="geometry" />
        </mxCell>
        <mxCell id="141" style="vsdxID=143;fillColor=#a5a5a5;gradientColor=#a5a5a5;gradientDirection=east;shape=stencil(UzV2Ls5ILEhVNTIoLinKz04tz0wpyVA1dlE1MsrMy0gtyiwBslSNXVWNndPyi1LTi/JL81Ig/IJEkEoQKze/DGRCBUSfoYEBSI+RQSUq3w2iOCczD0kxqlJzCz1LM2IV4zHV0lLP1BDVEZZ6lhbIGoAMhAfSMnNyIP5Hlkf3MFAIEljGrgA=);strokeColor=none;strokeWidth=0;spacingTop=-3;spacingBottom=-3;spacingLeft=-3;spacingRight=-3;labelBackgroundColor=none;rounded=0;html=1;whiteSpace=wrap;" parent="140" vertex="1">
          <mxGeometry y="18" width="42" height="120" as="geometry" />
        </mxCell>
        <mxCell id="142" style="vsdxID=144;fillColor=#6b6b6b;gradientColor=none;shape=stencil(fZHdCsMgDIWfJrfiH6xed917FGqnzGmx7u/tpwtlW0HvTpIvB3ICol/NuGjgdE0xXPTDTsmAOALn1hsdbcoKxACin0PU5xhufsJ6GQtZ1DXci8MT92jZ4PSFFZNEfRonZJ31VVYpIlkdluTA/r0prdPbcIM7QbqG+R5vOLcPzOKbzGydw2B/5/skcwu/IIY3);strokeColor=none;strokeWidth=0;spacingTop=-3;spacingBottom=-3;spacingLeft=-3;spacingRight=-3;labelBackgroundColor=none;rounded=0;html=1;whiteSpace=wrap;" parent="140" vertex="1">
          <mxGeometry x="41" y="23" width="33" height="114" as="geometry" />
        </mxCell>
        <mxCell id="143" style="vsdxID=145;fillColor=#a5a5a5;gradientColor=none;shape=stencil(lZTbboMwDEC/Jq9WYuf63HX/Ual0RGVQUXb7+8GiqYWolvtmE9s6JxFWtLu2h0ujUF+ncTg3X/k4tYpeFGLu22bM0xwp2ivanYaxeRuHj/5Y8sthqVyi9+FzmfBd+vTSgfqnZBj+0tdS2eX+YaXxQExxSpDCqsFqQPu4wej1fKchRinMGpsTtAQkHksIgUGuHZ0Hb+SOPgB6KUxFzmm6BMGJJycwDHWtGRBSkmtGAk9SmIqc0wweDEoneweWefpaMyYg5nm2mv+5AKXi5iSNfuL6GIRaEAki8w9vBcmCE992RT0Htx10yl1XVtj9+XZnzZ/KvqP9Lw==);strokeColor=none;strokeWidth=0;spacingTop=-3;spacingBottom=-3;spacingLeft=-3;spacingRight=-3;labelBackgroundColor=none;rounded=0;html=1;whiteSpace=wrap;" parent="140" vertex="1">
          <mxGeometry y="26" width="42" height="101" as="geometry" />
        </mxCell>
        <mxCell id="144" style="vsdxID=146;fillColor=#FFFFFF;gradientColor=none;shape=stencil(zZfbbtswDIafxpchJFKUyNt1HbDHMFYnMZbZgeOt7duPqXOykagYNme9MWRKsvnr/3Qq6GG3LrdVgW7Xd+336rl+6tcFfS4Q62ZddXVvpYIeC3pYtl216tqfzdPwvi33LfelH+2v/Rdehn5u3wPd6/AmHiK9Rb4Mjcvum9V2h8aeKYkCpaFTd+iFSokh8BA9tnXjTysCh0OLRflS7xZd25d93TajRDZlt6oW9tvFclOuRlW756raXoT9ZaKbuqlu//z4flWVcowMbiLKCyY6Ra+PloLT+SSNs0RAH1UsKw2ELmIwvZ8Ix1kHQApRVEUxmZ361sjnRJwsn0VEjrboAfG24hiVFeMpvZMzaBAqg9ciB1xC8DMKywOXFFgzyBG5JBAn7vkkZshxUG4MmnW7G3TBZrVITJ4SOUGVa8wJsJGJlFzgZE9+l7mz8XdnLjiQHHMobGuBnxLnHIPmeWMPaUZRed5YwUtm4XaqewWTmYQWJsBQ3LYqGI5yR9xCdBw1UooknK7jFhQDB0nGkRX8u7idPb87buggZGzxElIE5YktGMkB5XEjDyfR/0bUaIvM40YCKYNbYGLbsHgyjSRGTJBixiqrlzSfqnGaX5tl3dT96zjLcTTv6h8n6f+Sp4yayGrLMMgEJm9rg7M9I3868w70v9Hk5XikvD5LJLGdUqbrALHYLHFS3PYpQfj4MLn5SLLC+dy/rDeb4dpwWT+9J1houGPQ428=);strokeColor=none;strokeWidth=0;spacingTop=-3;spacingBottom=-3;spacingLeft=-3;spacingRight=-3;labelBackgroundColor=none;rounded=0;html=1;whiteSpace=wrap;" parent="140" vertex="1">
          <mxGeometry x="2" y="29" width="15" height="81" as="geometry" />
        </mxCell>
        <mxCell id="145" style="vsdxID=147;fillColor=#6b6b6b;gradientColor=none;shape=stencil(xVfBktowDP2aHNFYlmTL5+32PzLdAJlSYALtbv++ooEFm42nhw29GTuSn/SeJNPQ02Hd7rvGu8Nx2H3vXvuX47qhL433/XbdDf3RVg09N/S03A3datj93L6Mv/ft6cvT6sfu18nD22iXFNSfrLz7Pe4QQ5S/O19Hg3b4ZqfD2QAloQPW0WY4GzHFCJ7HzRvXkrlmBL18s2jf+sNi2B3bY7/bjuduPNu0w6pb2LWL5aZdZUeH167b321/CJSRA0IKOVBEdgE0ZkhdhtIHYPlUlHiLctNvu6mrMQGF6ZCMG46QitwHFgeJ7nI/RessuS9Uld4Tf75eGHg6MEEvHtAXXDE6B4RZZLaVOTaOOc3HViF+w8QKknKgRIwexFdExQKK88GsiYoUIlVichiSgKM8Jh+TlXRKWUwVXh+jKqbs9kgQ0nRoEdVkL1zIKsXgyxZw8h0z3+og6sOEhYoGoeCArDBMbdpM6yoIYJwPZU1XouAqyTdoYq227FaRnNXCucv9C7MPElZ2e/KQKmyxQyTQu9HiSD6omCKy9wY2/wj0IZr+Lw30yoBYuUszLSq9Fs2jRWU9hysTECMLgi8yz+oQkO4SP8HpfxmAKCBxOjCbgFHvW5VNwHixm5qA3kMInxpYRfqkhhW0aFToBANIXtQFseBm7KY1SdUKhJOanIoCCRo9xOIxWyF0Fj3Z4vpmX/abzfjkvz0v3/i2Nf4/oOc/);strokeColor=none;strokeWidth=0;spacingTop=-3;spacingBottom=-3;spacingLeft=-3;spacingRight=-3;labelBackgroundColor=none;rounded=0;html=1;whiteSpace=wrap;" parent="140" vertex="1">
          <mxGeometry x="17" y="38" width="23" height="86" as="geometry" />
        </mxCell>
        <mxCell id="146" style="vsdxID=148;fillColor=#FFFFFF;gradientColor=none;shape=stencil(jZTLboMwEEW/xtsre8YPvE7T/4gUUqxSiAjN4+8LdaME2trejcfH6FwwI3hzanbHWpA8jUP/Xl/CfmwEvwii0DX1EMapErwVvDn0Q/029J/dPq6Pu5mcq4/+PD/hGs95DzcfInn7aWh48915jXwbuideSbnA7+s/4SXqHawvhglW/w/ntTMxnYKrymM6iyrxVlawhuFS2HrohEhePBNUV7BUHtQwbEJnBSuwK4W1BSdE8uKZoGSgbXlQljAJnSVMFUgVwwyVEMmL54Iicbl+XVxwwmX1OSGL73jir88JT8VjGh1C28Zh9ry/nl5TK04+3n4B);strokeColor=none;strokeWidth=0;spacingTop=-3;spacingBottom=-3;spacingLeft=-3;spacingRight=-3;labelBackgroundColor=none;rounded=0;html=1;whiteSpace=wrap;" parent="140" vertex="1">
          <mxGeometry x="35" y="50" width="2" height="71" as="geometry" />
        </mxCell>
        <mxCell id="147" style="vsdxID=149;fillColor=#FFFFFF;gradientColor=none;shape=stencil(vVPLcsMgDPwajmZklEzMOU3+g2mwzZQaj0we/ftAiKeBpsn00Nz0WEmrBTFcT70aNRMweXIf+mh2vmf4xoQwQ6/J+GAx3DBct450R24/7JI/qoiM1qc7xA6nVAexQsBX8mpeX/xtgloz/AqVDV/JW7Ci95ClK3ghuWxSARXN535LmANzS8kbeYVU6mSmipxX3rghI2AVdboK46rWqi5LTUetxx/huwQReS1ygsBXmDGsAUqCC/w/grnc5fDibfJtlvBHreFVOsfJTz7C/T1fIPFDgYPxfTStsTbd3G2+PLIQSgeKmzM=);strokeColor=none;strokeWidth=0;spacingTop=-3;spacingBottom=-3;spacingLeft=-3;spacingRight=-3;labelBackgroundColor=none;rounded=0;html=1;whiteSpace=wrap;" parent="140" vertex="1">
          <mxGeometry x="40" y="42" width="2" height="96" as="geometry" />
        </mxCell>
        <mxCell id="148" style="vsdxID=150;fillColor=none;gradientColor=none;shape=stencil(jZDNDoMgEISfZq8EQRHO1r6HiVhIKRjE/rx9ocQUm7TpbZj9ZrMM0G5RwyyB4CV4d5Y3PQYF9ACEaKuk1yEqoD3QbnJenrxb7Zjf85DIpC7umjbcc44xVDUpRfAjO5VAgr+cYw4YbYsA3sH4X7DlSLDvcDyjbvdn4B+7t+EGc4HqpsSjeP940sbkwsr5Z0PRyu3S/gk=);strokeColor=#6b6b6b;spacingTop=-3;spacingBottom=-3;spacingLeft=-3;spacingRight=-3;labelBackgroundColor=none;rounded=0;html=1;whiteSpace=wrap;" parent="140" vertex="1">
          <mxGeometry y="18" width="64" height="120" as="geometry" />
        </mxCell>
        <mxCell id="149" style="vsdxID=151;fillColor=#a5a5a5;gradientColor=#a5a5a5;shape=stencil(hZDdDsIgDIWfprdLKXPZ/ZzvsWRMiAgLw7+3F2yMw/hzd9p+PWkPyG7Rw6yAcInBH9TFjFGD3AKRcVoFE5MC2YPsJh/UPviTG7meh0xmdfTn7HDlvbquGpG3CG/cwUe1Y9gat4IFYoFumkrQdzyNWyoWngYf8dI7Hdb+8P5zdxKvjydjLQe2nr8nlFqcruzv);strokeColor=#6b6b6b;spacingTop=-3;spacingBottom=-3;spacingLeft=-3;spacingRight=-3;labelBackgroundColor=none;rounded=0;html=1;whiteSpace=wrap;" parent="140" vertex="1">
          <mxGeometry width="75" height="43" as="geometry" />
        </mxCell>
        <mxCell id="150" style="vsdxID=152;fillColor=none;gradientColor=none;shape=stencil(vVVLcoMwDD0Ny2hsyd91m96DaUjClELGoU16+5oaaEQGJl2UnS3pSU+yZGX0dD7mpyJDcW5D81Zcyl17zOg5QyzrYxHKNp4y2mb0tG9CcQjNR71L91PeWXan9+az83BNOItgZIdC8ZUkqADpR/KSAFVZ3wCMBOc4wAPhLSAPr1EbeoDSoE0ChB5BFrRKot5IaxCee3Xge2LXTX4tz5vQtHlbNnXSi6Sr8nAoNjHiZl/lB6Y6X4ridCee42jsHUdDjKPyoP00c+n+jyMvfAzvFAsvCVDNAxABmf2Cc8EdCzCP2hqEhW6Jr0i8W6wBqecBpMETByAovwzgadpYFjv/1tGev7QCZ9hDU2xozV3agfQKzShjV00GRmqwjnFUOLIeODpQuBZHkmMzDhzRDP/GONQCFP9bbOzhteblProzoGk+J6fjzA9lHrKyghQI3h+x0pPaSyHWSmsMNSTlwS8M69S8+3oXpunP6+ABQDz8bp99WVVped3qp9sqitKmo+03);strokeColor=#000000;spacingTop=-3;spacingBottom=-3;spacingLeft=-3;spacingRight=-3;labelBackgroundColor=none;rounded=0;html=1;whiteSpace=wrap;" parent="116" vertex="1">
          <mxGeometry x="49" y="33" width="150" height="182" as="geometry" />
        </mxCell>
        <mxCell id="151" value="&lt;font style=&quot;font-size:14px;font-family:SimHei;color:#000000;direction:ltr;letter-spacing:0px;line-height:120%;opacity:1&quot;&gt;存储…&lt;br/&gt;&lt;/font&gt;" style="text;vsdxID=118;fillColor=none;gradientColor=none;labelBackgroundColor=none;rounded=0;strokeColor=none;html=1;whiteSpace=wrap;verticalAlign=middle;align=center;;html=1;" parent="116" vertex="1">
          <mxGeometry x="73.49" y="199.17" width="60.68" height="28.23" as="geometry" />
        </mxCell>
        <mxCell id="152" style="vsdxID=153;fillColor=none;gradientColor=none;strokeColor=none;labelBackgroundColor=none;rounded=0;html=1;whiteSpace=wrap;" parent="115" vertex="1">
          <mxGeometry x="2" y="104" width="75" height="100" as="geometry" />
        </mxCell>
        <mxCell id="153" value="" style="verticalAlign=middle;align=center;vsdxID=154;fillColor=#FF00FF;gradientColor=none;fillOpacity=0;strokeOpacity=0;shape=stencil(vVXLcsIwDPyaHKOx5feZ0v/wlACZpgnjhEL/vk4dUmQGpj2QmyPJ0a68kgqx6vf+UBXI+iF079Wp3gz7QrwUiHW7r0I9xFMh1oVYbbtQ7UJ3bDfp++DHyPH00X2Ofzine2hAqvEWsq9kERLcj+E1xfvwFp1hipcSrE7x4XIBwfFkmoIY+aEWoO3kL/257svQDX6ou5ZENz7sqjJmK7eN3xFXf6qqw415wtfU7RUfBpzSMQa4vc+HK0BL+XAOSPmomfMUYjWwJ1KiENX0HjNACQIJPo4gc3x2MXxmznUBqMBYClADpxV0sch6KYScadCcYjQWaBG1zjvBOXBuKYyx7UTWWLGOmRAtgs4wxpcWyylR3UgxA+iAUyk6M5f++QBRAMuKGKWXTSfO6HyKmHGx+ZQn1wqkeTBuxSzBq3GLhhAyURWCznADqJaiFNMLc5NePnglB0ZlUudgaTvGsXJnL/2bEv8DpXj4XZHbumnShr325ys1mtI6Futv);labelBackgroundColor=none;rounded=0;html=1;whiteSpace=wrap;" parent="152" vertex="1">
          <mxGeometry x="-7" width="75" height="100" as="geometry" />
        </mxCell>
        <mxCell id="154" style="vsdxID=155;fillColor=#e6b8b5;gradientColor=#d68e89;shape=stencil(vZXJbsIwEEC/JseMvC9nSv/DKgaipglyQqF/X6fGoWMK6iXcnFnsN5mt4qth7w6+YmQYQ//uT81m3Ff8pWKs6fY+NGM8VXxd8dW2D34X+mO3Sd8HN1lOp4/+c7rhnPyoAqomL0a+ksQokPpH8pocXHiL2pAdSNSL5BEuLpQRIDLJLmZKgZDoXmvB2otN7c7NUId+dGPTd0lPkq51Yefr+Ga9bd0OqYaT94cb8Z+UXMzPZ0huwFDEaBioglEC5c9ilCAtRlTAMaAFKjBgNHkaIONANCaM0HMScz0QXD4c5IKEbdP5+48LBVbdD0jwmT4HJGyu9nynjlXB0a0cFFsuItyPTJd98yBBQoApEiQJSIXiKf6QALZgMDg9BCiORQmw8sFskcBMMVr0lTe3jcEDS5tF81M27U3PKoEbggHuWW3ByGfxaTDFHzSz5B8jfxHCeLiun23Ttml7/daX6yqK0qrj628=);strokeColor=#000000;spacingTop=-3;spacingBottom=-3;spacingLeft=-3;spacingRight=-3;labelBackgroundColor=none;rounded=0;html=1;whiteSpace=wrap;" parent="152" vertex="1">
          <mxGeometry y="35" width="75" height="65" as="geometry" />
        </mxCell>
        <mxCell id="155" value="" style="verticalAlign=middle;align=center;vsdxID=156;fillColor=#e6b8b5;gradientColor=#d68e89;shape=stencil(vVHLDsIgEPwajiQI6RfU+h8bu22JCGRB2/69kG1iazx58DazM/vIjjBtmiCi0CplCjecbZ8nYc5Ca+snJJsLEqYTph0C4Ujh4XvmEaqzont41gkL96naodXKrGF6YSfQtUi0OXXDVlqPfJNP6usotUhYbJIUMmQb/GGrAxpRljVycDBuc1hKM2LclX8/7H9nFfB+82Cd45T2+mcspcSRmu4F);strokeColor=#000000;spacingTop=-3;spacingBottom=-3;spacingLeft=-3;spacingRight=-3;labelBackgroundColor=none;rounded=0;html=1;whiteSpace=wrap;" parent="152" vertex="1">
          <mxGeometry x="16" width="44" height="43" as="geometry" />
        </mxCell>
        <mxCell id="156" style="vsdxID=157;edgeStyle=none;startArrow=none;endArrow=none;startSize=5;endSize=5;strokeColor=#000000;spacingTop=-3;spacingBottom=-3;spacingLeft=-3;spacingRight=-3;verticalAlign=middle;html=1;labelBackgroundColor=#ffffff;rounded=0;" parent="152" edge="1">
          <mxGeometry relative="1" as="geometry">
            <Array as="points" />
            <mxPoint x="9" y="86" as="sourcePoint" />
            <mxPoint x="16" y="45" as="targetPoint" />
          </mxGeometry>
        </mxCell>
        <mxCell id="157" style="vsdxID=158;edgeStyle=none;startArrow=none;endArrow=none;startSize=5;endSize=5;strokeColor=#000000;spacingTop=-3;spacingBottom=-3;spacingLeft=-3;spacingRight=-3;verticalAlign=middle;html=1;labelBackgroundColor=#ffffff;rounded=0;" parent="152" edge="1">
          <mxGeometry relative="1" as="geometry">
            <Array as="points" />
            <mxPoint x="62" y="96" as="sourcePoint" />
            <mxPoint x="59" y="52" as="targetPoint" />
          </mxGeometry>
        </mxCell>
        <mxCell id="158" style="vsdxID=159;fillColor=#e6b8b5;gradientColor=#d68e89;shape=stencil(ZZDRDsIgDEW/hkcWBMXsec7/aFzHiHMsBd38eyGQuOlbe+9pC5epxg8wI5PCB3J3XGwXBqYuTEo7DUg2xIqplqmmd4SG3HPqcj9DIlP1cK+0Yc1zIk1I8d521wwC3aJDBdS6UqcMU6Hlsa7qohXqIPYLpa7OdSE4rNZzcgGCddPu/AhkkMeDvB/B7Cy/IM5/cnliLL4fy5lsvd8QopQDVO0H);strokeColor=#000000;spacingTop=-3;spacingBottom=-3;spacingLeft=-3;spacingRight=-3;labelBackgroundColor=none;rounded=0;html=1;whiteSpace=wrap;" parent="152" vertex="1">
          <mxGeometry x="20" y="34" width="33" height="8" as="geometry" />
        </mxCell>
        <mxCell id="159" style="vsdxID=160;fillColor=#e5b9b5;gradientColor=none;shape=stencil(vVVLcsIwDD1NltFEdvxbU3oPTzGQKU0YJy1w+yo1FORMabsgO1uSrff0LeSi3/p9KETVD7F7DYdmNWwL+VQI0bTbEJuBToVcFnKx7mLYxO69XaX73o+W4+mt+xh/OKZ3wkCtxleiOiWJrMF9CZ6TvY8vpIxn+1qB0ck+Xh5IUCaJzkYV+1BLuKhLf2z6MnaDH5quZcY7HzehJGfleuc3TNUfQthPxGd4u6a9oVMBcjbGANqf6aACYTkdRBDI6Ciwmn1qNVT2cZQ4RPLuOMIapGAAUUCdA7SzATRgDQdINcILAjUgD6GjKOu5EGKlQWVpNhbQMZBa563gHDg3F0jqO5l1FgUyK0UrQPNUO0q1nK8W1aQWM4AOUHKABjTOBVBIqLIgUu053i43aT19oxYP7Bc+o6buNYXozpCqacCqbOYiOMVIGaoMwQe5eWiLcVLkXuqJ+/pOptxkkQi8lvKv2+nfnPAPnOhwXZRpx97q8qVKorSQ5fIT);strokeColor=#000000;strokeWidth=3;spacingTop=-3;spacingBottom=-3;spacingLeft=-3;spacingRight=-3;labelBackgroundColor=none;rounded=0;html=1;whiteSpace=wrap;" parent="152" vertex="1">
          <mxGeometry width="75" height="100" as="geometry" />
        </mxCell>
        <mxCell id="160" value="&lt;font style=&quot;font-size:11px;font-family:仿宋;color:#000000;direction:ltr;letter-spacing:0px;line-height:120%;opacity:1&quot;&gt;&lt;b&gt;数据拥有者&lt;/b&gt;&lt;/font&gt;&lt;font style=&quot;font-size:16px;font-family:仿宋;color:#000000;direction:ltr;letter-spacing:0px;line-height:120%;opacity:1&quot;&gt;&lt;br/&gt;&lt;/font&gt;" style="text;vsdxID=153;fillColor=none;gradientColor=none;strokeColor=none;labelBackgroundColor=none;rounded=0;html=1;whiteSpace=wrap;verticalAlign=middle;align=center;;html=1;" parent="152" vertex="1">
          <mxGeometry x="-0.66" y="93.15" width="76.43" height="31.61" as="geometry" />
        </mxCell>
        <mxCell id="161" style="vsdxID=161;fillColor=none;gradientColor=none;flipH=1;labelBackgroundColor=none;rounded=0;strokeColor=none;html=1;whiteSpace=wrap;" parent="1" vertex="1">
          <mxGeometry x="824" y="1248" width="249" height="249" as="geometry" />
        </mxCell>
        <mxCell id="162" style="vsdxID=162;fillColor=none;gradientColor=none;labelBackgroundColor=none;rounded=0;strokeColor=none;html=1;whiteSpace=wrap;" parent="161" vertex="1">
          <mxGeometry x="40" y="20" width="249" height="249" as="geometry" />
        </mxCell>
        <mxCell id="163" style="vsdxID=163;fillColor=#FFFFFF;gradientColor=none;shape=stencil(vVVLcoMwDD0Ny2hsyd91m96DaUjClELGoU16+5oaaEQGJl2UnS3pSU+yZGX0dD7mpyJDcW5D81Zcyl17zOg5QyzrYxHKNp4y2mb0tG9CcQjNR71L91PeWXan9+az83BNOItgZIdC8ZUkqADpR/KSAFVZ3wCMBOc4wAPhLSAPr1EbeoDSoE0ChB5BFrRKot5IaxCee3Xge2LXTX4tz5vQtHlbNnXSi6Sr8nAoNjHiZl/lB6Y6X4ridCee42jsHUdDjKPyoP00c+n+jyMvfAzvFAsvCVDNAxABmf2Cc8EdCzCP2hqEhW6Jr0i8W6wBqecBpMETByAovwzgadpYFjv/1tGev7QCZ9hDU2xozV3agfQKzShjV00GRmqwjnFUOLIeODpQuBZHkmMzDhzRDP/GONQCFP9bbOzhteblProzoGk+J6fjzA9lHrKyghQI3h+x0pPaSyHWSmsMNSTlwS8M69S8+3oXpunP6+ABQDz8bp99WVVped3qp9sqitKmo+03);strokeColor=none;strokeWidth=0;spacingTop=-3;spacingBottom=-3;spacingLeft=-3;spacingRight=-3;labelBackgroundColor=none;rounded=0;html=1;whiteSpace=wrap;" parent="162" vertex="1">
          <mxGeometry x="49" y="33" width="150" height="182" as="geometry" />
        </mxCell>
        <mxCell id="164" style="vsdxID=164;fillColor=none;gradientColor=none;labelBackgroundColor=none;rounded=0;strokeColor=none;html=1;whiteSpace=wrap;" parent="162" vertex="1">
          <mxGeometry x="49" y="33" width="75" height="139" as="geometry" />
        </mxCell>
        <mxCell id="165" style="vsdxID=165;fillColor=#d3d3d3;gradientColor=none;shape=stencil(UzV2Ls5ILEhVNTIoLinKz04tz0wpyVA1dlE1MsrMy0gtyiwBslSNXVWNndPyi1LTi/JL81Ig/IJEkEoQKze/DGRCBUSfoYEBSI+RQSUq3w2iOCczD0kxqlJzCz1LM2IV4zHV0lLP1BDVEZZ6lhbIGoAMhAfSMnNyIP5Hlkf3MFAIEljGrgA=);strokeColor=none;strokeWidth=0;spacingTop=-3;spacingBottom=-3;spacingLeft=-3;spacingRight=-3;labelBackgroundColor=none;rounded=0;html=1;whiteSpace=wrap;" parent="164" vertex="1">
          <mxGeometry y="18" width="42" height="120" as="geometry" />
        </mxCell>
        <mxCell id="166" style="vsdxID=166;fillColor=#6b6b6b;gradientColor=none;shape=stencil(fZHdCsMgDIWfJrfiH6xed917FGqnzGmx7u/tpwtlW0HvTpIvB3ICol/NuGjgdE0xXPTDTsmAOALn1hsdbcoKxACin0PU5xhufsJ6GQtZ1DXci8MT92jZ4PSFFZNEfRonZJ31VVYpIlkdluTA/r0prdPbcIM7QbqG+R5vOLcPzOKbzGydw2B/5/skcwu/IIY3);strokeColor=none;strokeWidth=0;spacingTop=-3;spacingBottom=-3;spacingLeft=-3;spacingRight=-3;labelBackgroundColor=none;rounded=0;html=1;whiteSpace=wrap;" parent="164" vertex="1">
          <mxGeometry x="41" y="23" width="33" height="114" as="geometry" />
        </mxCell>
        <mxCell id="167" style="vsdxID=167;fillColor=#a5a5a5;gradientColor=none;shape=stencil(lZTbboMwDEC/Jq9WYuf63HX/Ual0RGVQUXb7+8GiqYWolvtmE9s6JxFWtLu2h0ujUF+ncTg3X/k4tYpeFGLu22bM0xwp2ivanYaxeRuHj/5Y8sthqVyi9+FzmfBd+vTSgfqnZBj+0tdS2eX+YaXxQExxSpDCqsFqQPu4wej1fKchRinMGpsTtAQkHksIgUGuHZ0Hb+SOPgB6KUxFzmm6BMGJJycwDHWtGRBSkmtGAk9SmIqc0wweDEoneweWefpaMyYg5nm2mv+5AKXi5iSNfuL6GIRaEAki8w9vBcmCE992RT0Htx10yl1XVtj9+XZnzZ/KvqP9Lw==);strokeColor=none;strokeWidth=0;spacingTop=-3;spacingBottom=-3;spacingLeft=-3;spacingRight=-3;labelBackgroundColor=none;rounded=0;html=1;whiteSpace=wrap;" parent="164" vertex="1">
          <mxGeometry y="26" width="42" height="101" as="geometry" />
        </mxCell>
        <mxCell id="168" style="vsdxID=168;fillColor=#FFFFFF;gradientColor=none;shape=stencil(zZfbbtswDIafxpchJFKUyNt1HbDHMFYnMZbZgeOt7duPqXOykagYNme9MWRKsvnr/3Qq6GG3LrdVgW7Xd+336rl+6tcFfS4Q62ZddXVvpYIeC3pYtl216tqfzdPwvi33LfelH+2v/Rdehn5u3wPd6/AmHiK9Rb4Mjcvum9V2h8aeKYkCpaFTd+iFSokh8BA9tnXjTysCh0OLRflS7xZd25d93TajRDZlt6oW9tvFclOuRlW756raXoT9ZaKbuqlu//z4flWVcowMbiLKCyY6Ra+PloLT+SSNs0RAH1UsKw2ELmIwvZ8Ix1kHQApRVEUxmZ361sjnRJwsn0VEjrboAfG24hiVFeMpvZMzaBAqg9ciB1xC8DMKywOXFFgzyBG5JBAn7vkkZshxUG4MmnW7G3TBZrVITJ4SOUGVa8wJsJGJlFzgZE9+l7mz8XdnLjiQHHMobGuBnxLnHIPmeWMPaUZRed5YwUtm4XaqewWTmYQWJsBQ3LYqGI5yR9xCdBw1UooknK7jFhQDB0nGkRX8u7idPb87buggZGzxElIE5YktGMkB5XEjDyfR/0bUaIvM40YCKYNbYGLbsHgyjSRGTJBixiqrlzSfqnGaX5tl3dT96zjLcTTv6h8n6f+Sp4yayGrLMMgEJm9rg7M9I3868w70v9Hk5XikvD5LJLGdUqbrALHYLHFS3PYpQfj4MLn5SLLC+dy/rDeb4dpwWT+9J1houGPQ428=);strokeColor=none;strokeWidth=0;spacingTop=-3;spacingBottom=-3;spacingLeft=-3;spacingRight=-3;labelBackgroundColor=none;rounded=0;html=1;whiteSpace=wrap;" parent="164" vertex="1">
          <mxGeometry x="2" y="29" width="15" height="81" as="geometry" />
        </mxCell>
        <mxCell id="169" style="vsdxID=169;fillColor=#6b6b6b;gradientColor=none;shape=stencil(xVfBktowDP2aHNFYlmTL5+32PzLdAJlSYALtbv++ooEFm42nhw29GTuSn/SeJNPQ02Hd7rvGu8Nx2H3vXvuX47qhL433/XbdDf3RVg09N/S03A3datj93L6Mv/ft6cvT6sfu18nD22iXFNSfrLz7Pe4QQ5S/O19Hg3b4ZqfD2QAloQPW0WY4GzHFCJ7HzRvXkrlmBL18s2jf+sNi2B3bY7/bjuduPNu0w6pb2LWL5aZdZUeH167b321/CJSRA0IKOVBEdgE0ZkhdhtIHYPlUlHiLctNvu6mrMQGF6ZCMG46QitwHFgeJ7nI/RessuS9Uld4Tf75eGHg6MEEvHtAXXDE6B4RZZLaVOTaOOc3HViF+w8QKknKgRIwexFdExQKK88GsiYoUIlVichiSgKM8Jh+TlXRKWUwVXh+jKqbs9kgQ0nRoEdVkL1zIKsXgyxZw8h0z3+og6sOEhYoGoeCArDBMbdpM6yoIYJwPZU1XouAqyTdoYq227FaRnNXCucv9C7MPElZ2e/KQKmyxQyTQu9HiSD6omCKy9wY2/wj0IZr+Lw30yoBYuUszLSq9Fs2jRWU9hysTECMLgi8yz+oQkO4SP8HpfxmAKCBxOjCbgFHvW5VNwHixm5qA3kMInxpYRfqkhhW0aFToBANIXtQFseBm7KY1SdUKhJOanIoCCRo9xOIxWyF0Fj3Z4vpmX/abzfjkvz0v3/i2Nf4/oOc/);strokeColor=none;strokeWidth=0;spacingTop=-3;spacingBottom=-3;spacingLeft=-3;spacingRight=-3;labelBackgroundColor=none;rounded=0;html=1;whiteSpace=wrap;" parent="164" vertex="1">
          <mxGeometry x="17" y="38" width="23" height="86" as="geometry" />
        </mxCell>
        <mxCell id="170" style="vsdxID=170;fillColor=#FFFFFF;gradientColor=none;shape=stencil(jZTLboMwEEW/xtsre8YPvE7T/4gUUqxSiAjN4+8LdaME2trejcfH6FwwI3hzanbHWpA8jUP/Xl/CfmwEvwii0DX1EMapErwVvDn0Q/029J/dPq6Pu5mcq4/+PD/hGs95DzcfInn7aWh48915jXwbuideSbnA7+s/4SXqHawvhglW/w/ntTMxnYKrymM6iyrxVlawhuFS2HrohEhePBNUV7BUHtQwbEJnBSuwK4W1BSdE8uKZoGSgbXlQljAJnSVMFUgVwwyVEMmL54Iicbl+XVxwwmX1OSGL73jir88JT8VjGh1C28Zh9ry/nl5TK04+3n4B);strokeColor=none;strokeWidth=0;spacingTop=-3;spacingBottom=-3;spacingLeft=-3;spacingRight=-3;labelBackgroundColor=none;rounded=0;html=1;whiteSpace=wrap;" parent="164" vertex="1">
          <mxGeometry x="35" y="50" width="2" height="71" as="geometry" />
        </mxCell>
        <mxCell id="171" style="vsdxID=171;fillColor=#FFFFFF;gradientColor=none;shape=stencil(vVPLcsMgDPwajmZklEzMOU3+g2mwzZQaj0we/ftAiKeBpsn00Nz0WEmrBTFcT70aNRMweXIf+mh2vmf4xoQwQ6/J+GAx3DBct450R24/7JI/qoiM1qc7xA6nVAexQsBX8mpeX/xtgloz/AqVDV/JW7Ci95ClK3ghuWxSARXN535LmANzS8kbeYVU6mSmipxX3rghI2AVdboK46rWqi5LTUetxx/huwQReS1ygsBXmDGsAUqCC/w/grnc5fDibfJtlvBHreFVOsfJTz7C/T1fIPFDgYPxfTStsTbd3G2+PLIQSgeKmzM=);strokeColor=none;strokeWidth=0;spacingTop=-3;spacingBottom=-3;spacingLeft=-3;spacingRight=-3;labelBackgroundColor=none;rounded=0;html=1;whiteSpace=wrap;" parent="164" vertex="1">
          <mxGeometry x="40" y="42" width="2" height="96" as="geometry" />
        </mxCell>
        <mxCell id="172" style="vsdxID=172;fillColor=none;gradientColor=none;shape=stencil(jZDNDoMgEISfZq8EQRHO1r6HiVhIKRjE/rx9ocQUm7TpbZj9ZrMM0G5RwyyB4CV4d5Y3PQYF9ACEaKuk1yEqoD3QbnJenrxb7Zjf85DIpC7umjbcc44xVDUpRfAjO5VAgr+cYw4YbYsA3sH4X7DlSLDvcDyjbvdn4B+7t+EGc4HqpsSjeP940sbkwsr5Z0PRyu3S/gk=);strokeColor=#6b6b6b;spacingTop=-3;spacingBottom=-3;spacingLeft=-3;spacingRight=-3;labelBackgroundColor=none;rounded=0;html=1;whiteSpace=wrap;" parent="164" vertex="1">
          <mxGeometry y="18" width="64" height="120" as="geometry" />
        </mxCell>
        <mxCell id="173" style="vsdxID=173;fillColor=#a5a5a5;gradientColor=#a5a5a5;shape=stencil(hZDdDsIgDIWfprdLKXPZ/ZzvsWRMiAgLw7+3F2yMw/hzd9p+PWkPyG7Rw6yAcInBH9TFjFGD3AKRcVoFE5MC2YPsJh/UPviTG7meh0xmdfTn7HDlvbquGpG3CG/cwUe1Y9gat4IFYoFumkrQdzyNWyoWngYf8dI7Hdb+8P5zdxKvjydjLQe2nr8nlFqcruzv);strokeColor=#6b6b6b;spacingTop=-3;spacingBottom=-3;spacingLeft=-3;spacingRight=-3;labelBackgroundColor=none;rounded=0;html=1;whiteSpace=wrap;" parent="164" vertex="1">
          <mxGeometry width="75" height="43" as="geometry" />
        </mxCell>
        <mxCell id="174" style="vsdxID=174;fillColor=none;gradientColor=none;strokeColor=none;spacingTop=-3;spacingBottom=-3;spacingLeft=-3;spacingRight=-3;labelBackgroundColor=none;rounded=0;html=1;whiteSpace=wrap;" parent="162" vertex="1">
          <mxGeometry x="103" y="86" width="58" height="93" as="geometry" />
        </mxCell>
        <mxCell id="175" style="vsdxID=175;fillColor=#f5a444;gradientColor=none;shape=stencil(vZPbUsQgDIafhstmOBXp9bq+B+PSlhFLh6K7vr1UcGyq64wX7l0Of9KvISHisIxmtoTTJcXwZM/ulEYi7gnnbhptdClbRByJOPQh2iGGl+lU/NmsytV6Dq9rh0upo8DEWsTpWw18eA9F69201SKhlsDbrdjEx5yNVcxakLVzrBWMgioVnx01dB1q2nG4U1XSmItbmhiSSS5MCMGbONgmf7DpvRlQajlbO38L/4jYUpASIwoJmiFEpoFpzNhCK2/FmAfCd4xKgFKIMf+IkJixA6pvxSglSLWbY35qjedIr63PvxDizc3j0PgRKaze1U3/y1X8qs3G1+n1zvtyudv8/lRzqJy5OL4D);strokeColor=none;strokeWidth=0;spacingTop=-3;spacingBottom=-3;spacingLeft=-3;spacingRight=-3;labelBackgroundColor=none;rounded=0;html=1;whiteSpace=wrap;" parent="174" vertex="1">
          <mxGeometry y="10" width="57" height="83" as="geometry" />
        </mxCell>
        <mxCell id="176" style="vsdxID=176;fillColor=#face1c;gradientColor=#fff6d3;gradientDirection=east;shape=stencil(vVbbboMwDP0aHrHiOBfy3HX/gVbaojGoAl27v19YYG1Siiat5S2JY/scx5cktGr3+aFIOGs727wXp3LT7RN6STgv631hy86tElontNo2ttjZ5lhv/P6Q9zf71Ufz2Vs4ez1jwIhei7Mvf0IaUP6cvHqF3L45qR0UUBiSPAP0SnbQQoZScwPaq16Zz3Rgng3yND+XbWqbLu/Kpg5kVW53Rercptsq3wWi9lQUh5vjAWhV1lfMGCBNeJ4mpQiRCSARsUJmuCFQFLBigV2dAcnnsQqRShICjA5hkiIJTM5gzMTvMz8II85EPnQtgc/mEwge0nE5gwGXS4DHGxzMUnl04xxByvvX+5fI/nXfZCDMTMBIgIry1DgfOgiZq2LFY7P6sSkwV1CuKETcIlwkKCwkMqBUjDJ74tPGZY/AKW5kDlNYSoLFTcyhHGvw+Qk47Z7P0EIGPMoQfekaYycJy9R1ao5LBV7EDQzBqAAdsntdZIGI3zinca5Ns1FKu3FDMSct3ENEo2Nu3i7A7A/j3i0un4VtWVX+r3Etjz8X7sh/TGj9DQ==);strokeColor=none;strokeWidth=0;spacingTop=-3;spacingBottom=-3;spacingLeft=-3;spacingRight=-3;labelBackgroundColor=none;rounded=0;html=1;whiteSpace=wrap;" parent="174" vertex="1">
          <mxGeometry x="1" y="11" width="54" height="80" as="geometry" />
        </mxCell>
        <mxCell id="177" style="vsdxID=177;fillColor=#face1c;gradientColor=#fff6d3;gradientDirection=east;shape=stencil(tVLLDsIgEPwajiWVrVbOWv+DKG2JWJoFbf17aahaqibGxNs+ZnZnYQhsbC1aSVhqHZqj7NTB1QS2hDHV1BKV8xGBgsCmNCgrNOfmEPJWDMghOpnLMKEPvHRgsPQ6zXYBqFXzEciBZnwKFrj3XRzBwDO6XgcGjpQ8pzmE0h0FlOfx2BXlI61PRK9sgsYJp0wTidACK5n4lUmpRRW1bCdl+1J+L3LJ6GImcsUpsEjkIo0vf+T/EBg/+Xz117/zG9AHT5eUSutgsml/7ipfCo6E4gY=);strokeColor=none;strokeWidth=0;spacingTop=-3;spacingBottom=-3;spacingLeft=-3;spacingRight=-3;labelBackgroundColor=none;rounded=0;html=1;whiteSpace=wrap;" parent="174" vertex="1">
          <mxGeometry x="5" y="13" width="15" height="78" as="geometry" />
        </mxCell>
        <mxCell id="178" style="vsdxID=178;fillColor=#f4f4f4;gradientColor=none;shape=stencil(vVRLcsIwDD1NltFY8i9eU3oPTzHgaZowTijh9nXqDOBkaLso7GTJkp5+r+Crbm8PriDW9aF9dye/6fcFfymIfLN3wfdRKvi64KttG9wutMdmk94HO/4cpY/2c4wwJD/JgInRi9g5abQC5N+a1+Rgw1u0hslBCdDJzMLkwbECxKSbfrEs5PQaSjv4rgxtb3vfNpmttmHnypiq3NZ2l5m6k3OHGzXegqt94+6lJYRK368EDWidV2I0oMoKUaBMFlQSoPjXeth9iHE6lcghkjBQmQwjajCLGdLTQBpa9FFICYZnIDld9uZ88bs0++EgkSSQylEqlJBPe3kNcSMMPgukihhpdlvEQOadRDZbcwJRPQ5ifmHz5AzUDyc2FrSsR/Bfmn6loCdwxh8YMApX/tz6uk70e2uf821UJa7m6y8=);strokeColor=none;strokeWidth=0;spacingTop=-3;spacingBottom=-3;spacingLeft=-3;spacingRight=-3;labelBackgroundColor=none;rounded=0;html=1;whiteSpace=wrap;" parent="174" vertex="1">
          <mxGeometry x="1" y="12" width="54" height="11" as="geometry" />
        </mxCell>
        <mxCell id="179" style="vsdxID=179;fillColor=#f5a444;gradientColor=none;shape=stencil(vZbNcuMgDMefxsdoQBIgzt32PTytk3jWG2eIu+2+ffHadSK63Z7KjYg/+Behr4buLsf23DVoLlMaf3Yv/dN0bOhHg9ifjl3qp7xq6L6hu/2YukMan09Py+9zOyvn1a/x93zD63LOgLXzITR/FgMHCP6v5WHRD/3pVq/EzoAocZse825axZbBL9smrScoX79YVo0DJnWnjyC4Snbta3/ZpXFqp348KYKhTYdul7+32w/tQW1dXrru/MH8T0KKEIMmtAYhRMVoPbBXkMIQqBZksICugBQC9AoSaXP2KooGqJonI4NlDYmMYFFBkoUgGpKBpRakzfFusIhII+BFUeawfud+pwwQq1E6BF9AWnJApCBjzpNQZuN3ulIXAmt0KeAIiJ/LZ1ouCw3z505ABlPUDm9BdGLmLHBR3WoJ2NZ6KDFbEm4xb3Kt0DHvBfQ/z9CuWsTbsPFcI95C1I78GPGmHqGHWAKarZZdC4cUTvS1CGXrcjfPHLbGcW0STrfSHIsu1IJkU1SM3MakKGvg9BujQDW+PAtI0WlJAFkR/mcaqVDSvp6F8uI6SO37YVjmsNv9cvDKpmVoo/s3);strokeColor=none;strokeWidth=0;spacingTop=-3;spacingBottom=-3;spacingLeft=-3;spacingRight=-3;labelBackgroundColor=none;rounded=0;html=1;whiteSpace=wrap;" parent="174" vertex="1">
          <mxGeometry width="57" height="22" as="geometry" />
        </mxCell>
        <mxCell id="180" style="vsdxID=180;fillColor=#f4f4f4;gradientColor=#f5cc6e;shape=stencil(xZbbcoIwEIafhkt2ciIk19a+B1NRmVJwAq327buIgruO1gub3sXNJnz+mz0ketFti12ZKNH1oX0v99Wq3yb6JVGqarZlqHpcJXqZ6MW6DeUmtJ/Navy9KwbPYfXRfg03HMZzAoQeDinxPRqMB+uOltfRv66a3/yzS/8ivOFuOPmryT+cDmRg7Wg5X0nuy/AL8rSfFoeqS0PbF33VNsS7LsKmTPFb6bouNmSr25fl7sIsb9NJUJbSacgkpeN/GAF1ND4NngO6yXQ4C2oIYC6eiidu4xkBzlM8KQ1IqqC0YBQhdBnkWSxIZ8DmFFJpCyonkFpCTmX0FqSPBSnxnRkeaaSUhoaa5or34PNoiEKD4EK6HOhjdJhA7v+Cjfnr2Yu0FjxVcZCNMmJOq+cm9T1G0JIhTrGftP7roniHT1/x+VmdWUFLCOc2ECnKLFkwyi5L7r9ELE1KRSw7nsk4lB2vCKR1UweaGlDuolYdltLHqkNrI6s60drLgKccx8P5gWp4XbpjavhYe7nugVEfo5EgWMIMjTpjcWaDhJrrZIRgY06zSRFHHcdGxdvT6p8gPjD7klkZF/Ogva7qepzTL/f5YI6mcajXyx8=);strokeColor=none;strokeWidth=0;spacingTop=-3;spacingBottom=-3;spacingLeft=-3;spacingRight=-3;labelBackgroundColor=none;rounded=0;html=1;whiteSpace=wrap;" parent="174" vertex="1">
          <mxGeometry x="1" y="1" width="54" height="19" as="geometry" />
        </mxCell>
        <mxCell id="181" style="vsdxID=181;fillColor=none;gradientColor=none;strokeColor=none;spacingTop=-3;spacingBottom=-3;spacingLeft=-3;spacingRight=-3;labelBackgroundColor=none;rounded=0;html=1;whiteSpace=wrap;" parent="162" vertex="1">
          <mxGeometry x="108" y="143" width="14" height="35" as="geometry" />
        </mxCell>
        <mxCell id="182" style="vsdxID=182;fillColor=#FFFFFF;gradientColor=none;shape=stencil(jZDRCsIwDEW/Jq+lS2Da5zn/Y7DOFms7ujr1720Jw02Y+HaTnFySC9RMphs1oJxSDFf9sH0yQCdAtN7oaFNWQC1QM4SoLzHcfc/12BWyqFuYi8OT92TZQPlaV2cGnfW74LEW9T6rlFAbvJI/nJfhAiOJQ/XvIRvfLD5/DtY5jmk9/84ltzhTat8=);strokeColor=#FFFFFF;spacingTop=-3;spacingBottom=-3;spacingLeft=-3;spacingRight=-3;labelBackgroundColor=none;rounded=0;html=1;whiteSpace=wrap;" parent="181" vertex="1">
          <mxGeometry width="14" height="35" as="geometry" />
        </mxCell>
        <mxCell id="183" style="vsdxID=183;fillColor=#6b6b6b;gradientColor=#d3d3d3;shape=stencil(lZHRDsIgDEW/hkcWhOjG89T/IK7biDiWgm7+vUyIOo0zvrX3nraES0TpWtUD4cx5tEcYdOVbIraEc921gNqHiogdEWVtERq0566Kfa8mcqpO9jJtGOMcmyY4u8ZOsmyd35V9hBUegosJ3uQyK6LPMI1wXmSFiFrCVmy+9dGPVI3aUbReeW272QuMwgZouEdro5qZ5QaA/kNOLzS6g4XTMhPyOz6HF/b++Ka/4FA806i1MTHMV/89vSDF5MXuBg==);strokeColor=#f5a444;spacingTop=-3;spacingBottom=-3;spacingLeft=-3;spacingRight=-3;labelBackgroundColor=none;rounded=0;html=1;whiteSpace=wrap;" parent="181" vertex="1">
          <mxGeometry x="2" y="3" width="10" height="31" as="geometry" />
        </mxCell>
        <mxCell id="184" style="vsdxID=184;edgeStyle=none;startArrow=none;endArrow=none;startSize=5;endSize=5;strokeWidth=2;strokeColor=#d97250;spacingTop=-3;spacingBottom=-3;spacingLeft=-3;spacingRight=-3;verticalAlign=middle;html=1;labelBackgroundColor=none;rounded=0;" parent="181" edge="1">
          <mxGeometry relative="1" as="geometry">
            <Array as="points" />
            <mxPoint x="12" y="8" as="sourcePoint" />
            <mxPoint x="1" y="2" as="targetPoint" />
          </mxGeometry>
        </mxCell>
        <mxCell id="185" style="vsdxID=185;edgeStyle=none;startArrow=none;endArrow=none;startSize=5;endSize=5;strokeWidth=2;strokeColor=#d97250;spacingTop=-3;spacingBottom=-3;spacingLeft=-3;spacingRight=-3;verticalAlign=middle;html=1;labelBackgroundColor=none;rounded=0;" parent="181" edge="1">
          <mxGeometry relative="1" as="geometry">
            <Array as="points" />
            <mxPoint x="1" y="3" as="sourcePoint" />
            <mxPoint x="1" y="30" as="targetPoint" />
          </mxGeometry>
        </mxCell>
        <mxCell id="186" style="vsdxID=186;fillColor=none;gradientColor=none;labelBackgroundColor=none;rounded=0;strokeColor=none;html=1;whiteSpace=wrap;" parent="162" vertex="1">
          <mxGeometry x="125" y="77" width="75" height="139" as="geometry" />
        </mxCell>
        <mxCell id="187" style="vsdxID=187;fillColor=#a5a5a5;gradientColor=#a5a5a5;gradientDirection=east;shape=stencil(UzV2Ls5ILEhVNTIoLinKz04tz0wpyVA1dlE1MsrMy0gtyiwBslSNXVWNndPyi1LTi/JL81Ig/IJEkEoQKze/DGRCBUSfoYEBSI+RQSUq3w2iOCczD0kxqlJzCz1LM2IV4zHV0lLP1BDVEZZ6lhbIGoAMhAfSMnNyIP5Hlkf3MFAIEljGrgA=);strokeColor=none;strokeWidth=0;spacingTop=-3;spacingBottom=-3;spacingLeft=-3;spacingRight=-3;labelBackgroundColor=none;rounded=0;html=1;whiteSpace=wrap;" parent="186" vertex="1">
          <mxGeometry y="18" width="42" height="120" as="geometry" />
        </mxCell>
        <mxCell id="188" style="vsdxID=188;fillColor=#6b6b6b;gradientColor=none;shape=stencil(fZHdCsMgDIWfJrfiH6xed917FGqnzGmx7u/tpwtlW0HvTpIvB3ICol/NuGjgdE0xXPTDTsmAOALn1hsdbcoKxACin0PU5xhufsJ6GQtZ1DXci8MT92jZ4PSFFZNEfRonZJ31VVYpIlkdluTA/r0prdPbcIM7QbqG+R5vOLcPzOKbzGydw2B/5/skcwu/IIY3);strokeColor=none;strokeWidth=0;spacingTop=-3;spacingBottom=-3;spacingLeft=-3;spacingRight=-3;labelBackgroundColor=none;rounded=0;html=1;whiteSpace=wrap;" parent="186" vertex="1">
          <mxGeometry x="41" y="23" width="33" height="114" as="geometry" />
        </mxCell>
        <mxCell id="189" style="vsdxID=189;fillColor=#a5a5a5;gradientColor=none;shape=stencil(lZTbboMwDEC/Jq9WYuf63HX/Ual0RGVQUXb7+8GiqYWolvtmE9s6JxFWtLu2h0ujUF+ncTg3X/k4tYpeFGLu22bM0xwp2ivanYaxeRuHj/5Y8sthqVyi9+FzmfBd+vTSgfqnZBj+0tdS2eX+YaXxQExxSpDCqsFqQPu4wej1fKchRinMGpsTtAQkHksIgUGuHZ0Hb+SOPgB6KUxFzmm6BMGJJycwDHWtGRBSkmtGAk9SmIqc0wweDEoneweWefpaMyYg5nm2mv+5AKXi5iSNfuL6GIRaEAki8w9vBcmCE992RT0Htx10yl1XVtj9+XZnzZ/KvqP9Lw==);strokeColor=none;strokeWidth=0;spacingTop=-3;spacingBottom=-3;spacingLeft=-3;spacingRight=-3;labelBackgroundColor=none;rounded=0;html=1;whiteSpace=wrap;" parent="186" vertex="1">
          <mxGeometry y="26" width="42" height="101" as="geometry" />
        </mxCell>
        <mxCell id="190" style="vsdxID=190;fillColor=#FFFFFF;gradientColor=none;shape=stencil(zZfbbtswDIafxpchJFKUyNt1HbDHMFYnMZbZgeOt7duPqXOykagYNme9MWRKsvnr/3Qq6GG3LrdVgW7Xd+336rl+6tcFfS4Q62ZddXVvpYIeC3pYtl216tqfzdPwvi33LfelH+2v/Rdehn5u3wPd6/AmHiK9Rb4Mjcvum9V2h8aeKYkCpaFTd+iFSokh8BA9tnXjTysCh0OLRflS7xZd25d93TajRDZlt6oW9tvFclOuRlW756raXoT9ZaKbuqlu//z4flWVcowMbiLKCyY6Ra+PloLT+SSNs0RAH1UsKw2ELmIwvZ8Ix1kHQApRVEUxmZ361sjnRJwsn0VEjrboAfG24hiVFeMpvZMzaBAqg9ciB1xC8DMKywOXFFgzyBG5JBAn7vkkZshxUG4MmnW7G3TBZrVITJ4SOUGVa8wJsJGJlFzgZE9+l7mz8XdnLjiQHHMobGuBnxLnHIPmeWMPaUZRed5YwUtm4XaqewWTmYQWJsBQ3LYqGI5yR9xCdBw1UooknK7jFhQDB0nGkRX8u7idPb87buggZGzxElIE5YktGMkB5XEjDyfR/0bUaIvM40YCKYNbYGLbsHgyjSRGTJBixiqrlzSfqnGaX5tl3dT96zjLcTTv6h8n6f+Sp4yayGrLMMgEJm9rg7M9I3868w70v9Hk5XikvD5LJLGdUqbrALHYLHFS3PYpQfj4MLn5SLLC+dy/rDeb4dpwWT+9J1houGPQ428=);strokeColor=none;strokeWidth=0;spacingTop=-3;spacingBottom=-3;spacingLeft=-3;spacingRight=-3;labelBackgroundColor=none;rounded=0;html=1;whiteSpace=wrap;" parent="186" vertex="1">
          <mxGeometry x="2" y="29" width="15" height="81" as="geometry" />
        </mxCell>
        <mxCell id="191" style="vsdxID=191;fillColor=#6b6b6b;gradientColor=none;shape=stencil(xVfBktowDP2aHNFYlmTL5+32PzLdAJlSYALtbv++ooEFm42nhw29GTuSn/SeJNPQ02Hd7rvGu8Nx2H3vXvuX47qhL433/XbdDf3RVg09N/S03A3datj93L6Mv/ft6cvT6sfu18nD22iXFNSfrLz7Pe4QQ5S/O19Hg3b4ZqfD2QAloQPW0WY4GzHFCJ7HzRvXkrlmBL18s2jf+sNi2B3bY7/bjuduPNu0w6pb2LWL5aZdZUeH167b321/CJSRA0IKOVBEdgE0ZkhdhtIHYPlUlHiLctNvu6mrMQGF6ZCMG46QitwHFgeJ7nI/RessuS9Uld4Tf75eGHg6MEEvHtAXXDE6B4RZZLaVOTaOOc3HViF+w8QKknKgRIwexFdExQKK88GsiYoUIlVichiSgKM8Jh+TlXRKWUwVXh+jKqbs9kgQ0nRoEdVkL1zIKsXgyxZw8h0z3+og6sOEhYoGoeCArDBMbdpM6yoIYJwPZU1XouAqyTdoYq227FaRnNXCucv9C7MPElZ2e/KQKmyxQyTQu9HiSD6omCKy9wY2/wj0IZr+Lw30yoBYuUszLSq9Fs2jRWU9hysTECMLgi8yz+oQkO4SP8HpfxmAKCBxOjCbgFHvW5VNwHixm5qA3kMInxpYRfqkhhW0aFToBANIXtQFseBm7KY1SdUKhJOanIoCCRo9xOIxWyF0Fj3Z4vpmX/abzfjkvz0v3/i2Nf4/oOc/);strokeColor=none;strokeWidth=0;spacingTop=-3;spacingBottom=-3;spacingLeft=-3;spacingRight=-3;labelBackgroundColor=none;rounded=0;html=1;whiteSpace=wrap;" parent="186" vertex="1">
          <mxGeometry x="17" y="38" width="23" height="86" as="geometry" />
        </mxCell>
        <mxCell id="192" style="vsdxID=192;fillColor=#FFFFFF;gradientColor=none;shape=stencil(jZTLboMwEEW/xtsre8YPvE7T/4gUUqxSiAjN4+8LdaME2trejcfH6FwwI3hzanbHWpA8jUP/Xl/CfmwEvwii0DX1EMapErwVvDn0Q/029J/dPq6Pu5mcq4/+PD/hGs95DzcfInn7aWh48915jXwbuideSbnA7+s/4SXqHawvhglW/w/ntTMxnYKrymM6iyrxVlawhuFS2HrohEhePBNUV7BUHtQwbEJnBSuwK4W1BSdE8uKZoGSgbXlQljAJnSVMFUgVwwyVEMmL54Iicbl+XVxwwmX1OSGL73jir88JT8VjGh1C28Zh9ry/nl5TK04+3n4B);strokeColor=none;strokeWidth=0;spacingTop=-3;spacingBottom=-3;spacingLeft=-3;spacingRight=-3;labelBackgroundColor=none;rounded=0;html=1;whiteSpace=wrap;" parent="186" vertex="1">
          <mxGeometry x="35" y="50" width="2" height="71" as="geometry" />
        </mxCell>
        <mxCell id="193" style="vsdxID=193;fillColor=#FFFFFF;gradientColor=none;shape=stencil(vVPLcsMgDPwajmZklEzMOU3+g2mwzZQaj0we/ftAiKeBpsn00Nz0WEmrBTFcT70aNRMweXIf+mh2vmf4xoQwQ6/J+GAx3DBct450R24/7JI/qoiM1qc7xA6nVAexQsBX8mpeX/xtgloz/AqVDV/JW7Ci95ClK3ghuWxSARXN535LmANzS8kbeYVU6mSmipxX3rghI2AVdboK46rWqi5LTUetxx/huwQReS1ygsBXmDGsAUqCC/w/grnc5fDibfJtlvBHreFVOsfJTz7C/T1fIPFDgYPxfTStsTbd3G2+PLIQSgeKmzM=);strokeColor=none;strokeWidth=0;spacingTop=-3;spacingBottom=-3;spacingLeft=-3;spacingRight=-3;labelBackgroundColor=none;rounded=0;html=1;whiteSpace=wrap;" parent="186" vertex="1">
          <mxGeometry x="40" y="42" width="2" height="96" as="geometry" />
        </mxCell>
        <mxCell id="194" style="vsdxID=194;fillColor=none;gradientColor=none;shape=stencil(jZDNDoMgEISfZq8EQRHO1r6HiVhIKRjE/rx9ocQUm7TpbZj9ZrMM0G5RwyyB4CV4d5Y3PQYF9ACEaKuk1yEqoD3QbnJenrxb7Zjf85DIpC7umjbcc44xVDUpRfAjO5VAgr+cYw4YbYsA3sH4X7DlSLDvcDyjbvdn4B+7t+EGc4HqpsSjeP940sbkwsr5Z0PRyu3S/gk=);strokeColor=#6b6b6b;spacingTop=-3;spacingBottom=-3;spacingLeft=-3;spacingRight=-3;labelBackgroundColor=none;rounded=0;html=1;whiteSpace=wrap;" parent="186" vertex="1">
          <mxGeometry y="18" width="64" height="120" as="geometry" />
        </mxCell>
        <mxCell id="195" style="vsdxID=195;fillColor=#a5a5a5;gradientColor=#a5a5a5;shape=stencil(hZDdDsIgDIWfprdLKXPZ/ZzvsWRMiAgLw7+3F2yMw/hzd9p+PWkPyG7Rw6yAcInBH9TFjFGD3AKRcVoFE5MC2YPsJh/UPviTG7meh0xmdfTn7HDlvbquGpG3CG/cwUe1Y9gat4IFYoFumkrQdzyNWyoWngYf8dI7Hdb+8P5zdxKvjydjLQe2nr8nlFqcruzv);strokeColor=#6b6b6b;spacingTop=-3;spacingBottom=-3;spacingLeft=-3;spacingRight=-3;labelBackgroundColor=none;rounded=0;html=1;whiteSpace=wrap;" parent="186" vertex="1">
          <mxGeometry width="75" height="43" as="geometry" />
        </mxCell>
        <mxCell id="196" style="vsdxID=196;fillColor=none;gradientColor=none;shape=stencil(vVVLcoMwDD0Ny2hsyd91m96DaUjClELGoU16+5oaaEQGJl2UnS3pSU+yZGX0dD7mpyJDcW5D81Zcyl17zOg5QyzrYxHKNp4y2mb0tG9CcQjNR71L91PeWXan9+az83BNOItgZIdC8ZUkqADpR/KSAFVZ3wCMBOc4wAPhLSAPr1EbeoDSoE0ChB5BFrRKot5IaxCee3Xge2LXTX4tz5vQtHlbNnXSi6Sr8nAoNjHiZl/lB6Y6X4ridCee42jsHUdDjKPyoP00c+n+jyMvfAzvFAsvCVDNAxABmf2Cc8EdCzCP2hqEhW6Jr0i8W6wBqecBpMETByAovwzgadpYFjv/1tGev7QCZ9hDU2xozV3agfQKzShjV00GRmqwjnFUOLIeODpQuBZHkmMzDhzRDP/GONQCFP9bbOzhteblProzoGk+J6fjzA9lHrKyghQI3h+x0pPaSyHWSmsMNSTlwS8M69S8+3oXpunP6+ABQDz8bp99WVVped3qp9sqitKmo+03);strokeColor=#000000;spacingTop=-3;spacingBottom=-3;spacingLeft=-3;spacingRight=-3;labelBackgroundColor=none;rounded=0;html=1;whiteSpace=wrap;" parent="162" vertex="1">
          <mxGeometry x="49" y="33" width="150" height="182" as="geometry" />
        </mxCell>
        <mxCell id="197" value="&lt;font style=&quot;font-size:14px;font-family:SimHei;color:#000000;direction:ltr;letter-spacing:0px;line-height:120%;opacity:1&quot;&gt;算法…&lt;br/&gt;&lt;/font&gt;" style="text;vsdxID=162;fillColor=none;gradientColor=none;labelBackgroundColor=none;rounded=0;strokeColor=none;html=1;whiteSpace=wrap;verticalAlign=middle;align=center;;html=1;" parent="162" vertex="1">
          <mxGeometry x="79.49" y="209.57" width="60.68" height="28.23" as="geometry" />
        </mxCell>
        <mxCell id="198" style="vsdxID=197;fillColor=none;gradientColor=none;strokeColor=none;labelBackgroundColor=none;rounded=0;html=1;whiteSpace=wrap;" parent="161" vertex="1">
          <mxGeometry x="29" y="109" width="75" height="100" as="geometry" />
        </mxCell>
        <mxCell id="199" value="" style="verticalAlign=middle;align=center;vsdxID=198;fillColor=#FF00FF;gradientColor=none;fillOpacity=0;strokeOpacity=0;shape=stencil(vVXLcsIwDPyaHKOx5feZ0v/wlACZpgnjhEL/vk4dUmQGpj2QmyPJ0a68kgqx6vf+UBXI+iF079Wp3gz7QrwUiHW7r0I9xFMh1oVYbbtQ7UJ3bDfp++DHyPH00X2Ofzine2hAqvEWsq9kERLcj+E1xfvwFp1hipcSrE7x4XIBwfFkmoIY+aEWoO3kL/257svQDX6ou5ZENz7sqjJmK7eN3xFXf6qqw415wtfU7RUfBpzSMQa4vc+HK0BL+XAOSPmomfMUYjWwJ1KiENX0HjNACQIJPo4gc3x2MXxmznUBqMBYClADpxV0sch6KYScadCcYjQWaBG1zjvBOXBuKYyx7UTWWLGOmRAtgs4wxpcWyylR3UgxA+iAUyk6M5f++QBRAMuKGKWXTSfO6HyKmHGx+ZQn1wqkeTBuxSzBq3GLhhAyURWCznADqJaiFNMLc5NePnglB0ZlUudgaTvGsXJnL/2bEv8DpXj4XZHbumnShr325ys1mtI6Futv);labelBackgroundColor=none;rounded=0;html=1;whiteSpace=wrap;" parent="198" vertex="1">
          <mxGeometry x="-7" width="75" height="100" as="geometry" />
        </mxCell>
        <mxCell id="200" style="vsdxID=199;fillColor=#d8d8d8;gradientColor=#bababa;shape=stencil(vZXJbsIwEEC/JseMvC9nSv/DKgaipglyQqF/X6fGoWMK6iXcnFnsN5mt4qth7w6+YmQYQ//uT81m3Ff8pWKs6fY+NGM8VXxd8dW2D34X+mO3Sd8HN1lOp4/+c7rhnPyoAqomL0a+ksQokPpH8pocXHiL2pAdSNSL5BEuLpQRIDLJLmZKgZDoXmvB2otN7c7NUId+dGPTd0lPkq51Yefr+Ga9bd0OqYaT94cb8Z+UXMzPZ0huwFDEaBioglEC5c9ilCAtRlTAMaAFKjBgNHkaIONANCaM0HMScz0QXD4c5IKEbdP5+48LBVbdD0jwmT4HJGyu9nynjlXB0a0cFFsuItyPTJd98yBBQoApEiQJSIXiKf6QALZgMDg9BCiORQmw8sFskcBMMVr0lTe3jcEDS5tF81M27U3PKoEbggHuWW3ByGfxaTDFHzSz5B8jfxHCeLiun23Ttml7/daX6yqK0qrj628=);strokeColor=#000000;spacingTop=-3;spacingBottom=-3;spacingLeft=-3;spacingRight=-3;labelBackgroundColor=none;rounded=0;html=1;whiteSpace=wrap;" parent="198" vertex="1">
          <mxGeometry y="35" width="75" height="65" as="geometry" />
        </mxCell>
        <mxCell id="201" value="" style="verticalAlign=middle;align=center;vsdxID=200;fillColor=#d8d8d8;gradientColor=#bababa;shape=stencil(vVHLDsIgEPwajiQI6RfU+h8bu22JCGRB2/69kG1iazx58DazM/vIjjBtmiCi0CplCjecbZ8nYc5Ca+snJJsLEqYTph0C4Ujh4XvmEaqzont41gkL96naodXKrGF6YSfQtUi0OXXDVlqPfJNP6usotUhYbJIUMmQb/GGrAxpRljVycDBuc1hKM2LclX8/7H9nFfB+82Cd45T2+mcspcSRmu4F);strokeColor=#000000;spacingTop=-3;spacingBottom=-3;spacingLeft=-3;spacingRight=-3;labelBackgroundColor=none;rounded=0;html=1;whiteSpace=wrap;" parent="198" vertex="1">
          <mxGeometry x="16" width="44" height="43" as="geometry" />
        </mxCell>
        <mxCell id="202" style="vsdxID=201;edgeStyle=none;startArrow=none;endArrow=none;startSize=5;endSize=5;strokeColor=#000000;spacingTop=-3;spacingBottom=-3;spacingLeft=-3;spacingRight=-3;verticalAlign=middle;html=1;labelBackgroundColor=#ffffff;rounded=0;" parent="198" edge="1">
          <mxGeometry relative="1" as="geometry">
            <Array as="points" />
            <mxPoint x="9" y="86" as="sourcePoint" />
            <mxPoint x="16" y="45" as="targetPoint" />
          </mxGeometry>
        </mxCell>
        <mxCell id="203" style="vsdxID=202;edgeStyle=none;startArrow=none;endArrow=none;startSize=5;endSize=5;strokeColor=#000000;spacingTop=-3;spacingBottom=-3;spacingLeft=-3;spacingRight=-3;verticalAlign=middle;html=1;labelBackgroundColor=#ffffff;rounded=0;" parent="198" edge="1">
          <mxGeometry relative="1" as="geometry">
            <Array as="points" />
            <mxPoint x="62" y="96" as="sourcePoint" />
            <mxPoint x="59" y="52" as="targetPoint" />
          </mxGeometry>
        </mxCell>
        <mxCell id="204" style="vsdxID=203;fillColor=#d8d8d8;gradientColor=#bababa;shape=stencil(ZZDRDsIgDEW/hkcWBMXsec7/aFzHiHMsBd38eyGQuOlbe+9pC5epxg8wI5PCB3J3XGwXBqYuTEo7DUg2xIqplqmmd4SG3HPqcj9DIlP1cK+0Yc1zIk1I8d521wwC3aJDBdS6UqcMU6Hlsa7qohXqIPYLpa7OdSE4rNZzcgGCddPu/AhkkMeDvB/B7Cy/IM5/cnliLL4fy5lsvd8QopQDVO0H);strokeColor=#000000;spacingTop=-3;spacingBottom=-3;spacingLeft=-3;spacingRight=-3;labelBackgroundColor=none;rounded=0;html=1;whiteSpace=wrap;" parent="198" vertex="1">
          <mxGeometry x="20" y="34" width="33" height="8" as="geometry" />
        </mxCell>
        <mxCell id="205" style="vsdxID=204;fillColor=#d8d8d8;gradientColor=none;shape=stencil(vVVLcsIwDD1NltFEdvxbU3oPTzGQKU0YJy1w+yo1FORMabsgO1uSrff0LeSi3/p9KETVD7F7DYdmNWwL+VQI0bTbEJuBToVcFnKx7mLYxO69XaX73o+W4+mt+xh/OKZ3wkCtxleiOiWJrMF9CZ6TvY8vpIxn+1qB0ck+Xh5IUCaJzkYV+1BLuKhLf2z6MnaDH5quZcY7HzehJGfleuc3TNUfQthPxGd4u6a9oVMBcjbGANqf6aACYTkdRBDI6Ciwmn1qNVT2cZQ4RPLuOMIapGAAUUCdA7SzATRgDQdINcILAjUgD6GjKOu5EGKlQWVpNhbQMZBa563gHDg3F0jqO5l1FgUyK0UrQPNUO0q1nK8W1aQWM4AOUHKABjTOBVBIqLIgUu053i43aT19oxYP7Bc+o6buNYXozpCqacCqbOYiOMVIGaoMwQe5eWiLcVLkXuqJ+/pOptxkkQi8lvKv2+nfnPAPnOhwXZRpx97q8qVKorSQ5fIT);strokeColor=#000000;strokeWidth=3;spacingTop=-3;spacingBottom=-3;spacingLeft=-3;spacingRight=-3;labelBackgroundColor=none;rounded=0;html=1;whiteSpace=wrap;" parent="198" vertex="1">
          <mxGeometry width="75" height="100" as="geometry" />
        </mxCell>
        <mxCell id="206" value="&lt;font style=&quot;font-size:11px;font-family:仿宋;color:#000000;direction:ltr;letter-spacing:0px;line-height:120%;opacity:1&quot;&gt;&lt;b&gt;资源拥有者&lt;/b&gt;&lt;/font&gt;&lt;font style=&quot;font-size:16px;font-family:仿宋;color:#000000;direction:ltr;letter-spacing:0px;line-height:120%;opacity:1&quot;&gt;&lt;br/&gt;&lt;/font&gt;" style="text;vsdxID=197;fillColor=none;gradientColor=none;strokeColor=none;labelBackgroundColor=none;rounded=0;html=1;whiteSpace=wrap;verticalAlign=middle;align=center;;html=1;" parent="198" vertex="1">
          <mxGeometry x="-0.39" y="92.99" width="76.43" height="31.61" as="geometry" />
        </mxCell>
        <mxCell id="207" value="&lt;font style=&quot;font-size: 25px ; font-family: &amp;#34;simhei&amp;#34; ; color: #000000 ; direction: ltr ; letter-spacing: 0px ; line-height: 120% ; opacity: 1&quot;&gt;资源节点&lt;br&gt;&lt;/font&gt;" style="verticalAlign=middle;align=center;vsdxID=207;fillColor=none;gradientColor=none;shape=stencil(nZBLDoAgDERP0z3SIyjew0SURgSD+Lu9kMZoXLhwN9O+tukAlrNpJg1SzDH4QW/URgNYgZTkjA4UkwJUgGXng+6DX1zLfmoymdXo17xh5zmRJ6Q42BWCfc2oJfdAr+Yv+AP9Cb7OJ3H/2JG1HNGz/84klThPVCc=);strokeColor=none;labelBackgroundColor=none;rounded=0;html=1;whiteSpace=wrap;" parent="1" vertex="1">
          <mxGeometry x="514" y="1502" width="140" height="48" as="geometry" />
        </mxCell>
        <mxCell id="208" value="&lt;font style=&quot;font-size:14px;font-family:仿宋;color:#000000;direction:ltr;letter-spacing:0px;line-height:120%;opacity:1&quot;&gt;标准API服务&lt;/font&gt;&lt;font style=&quot;font-size:14px;font-family:仿宋;color:#000000;direction:ltr;letter-spacing:0px;line-height:120%;opacity:1&quot;&gt;&lt;br/&gt;&lt;/font&gt;" style="verticalAlign=middle;align=center;vsdxID=214;fillColor=#fbf6f5;gradientColor=none;shape=stencil(vVHLDsIgEPwajiQI6RfU+h8bu22JCGRB2/69kG1iazx58DazM/vIjjBtmiCi0CplCjecbZ8nYc5Ca+snJJsLEqYTph0C4Ujh4XvmEaqzont41gkL96naodXKrGF6YSfQtUi0OXXDVlqPfJNP6usotUhYbJIUMmQb/GGrAxpRljVycDBuc1hKM2LclX8/7H9nFfB+82Cd45T2+mcspcSRmu4F);labelBackgroundColor=none;rounded=0;html=1;whiteSpace=wrap;" parent="1" vertex="1">
          <mxGeometry x="266" y="1254" width="71" height="72" as="geometry" />
        </mxCell>
        <mxCell id="209" value="&lt;font style=&quot;font-size:14px;font-family:仿宋;color:#000000;direction:ltr;letter-spacing:0px;line-height:120%;opacity:1&quot;&gt;标准API服务&lt;br/&gt;&lt;/font&gt;" style="verticalAlign=middle;align=center;vsdxID=215;fillColor=#fbf6f5;gradientColor=none;shape=stencil(vVHLDsIgEPwajiQI6RfU+h8bu22JCGRB2/69kG1iazx58DazM/vIjjBtmiCi0CplCjecbZ8nYc5Ca+snJJsLEqYTph0C4Ujh4XvmEaqzont41gkL96naodXKrGF6YSfQtUi0OXXDVlqPfJNP6usotUhYbJIUMmQb/GGrAxpRljVycDBuc1hKM2LclX8/7H9nFfB+82Cd45T2+mcspcSRmu4F);labelBackgroundColor=none;rounded=0;html=1;whiteSpace=wrap;" parent="1" vertex="1">
          <mxGeometry x="788" y="1262" width="71" height="72" as="geometry" />
        </mxCell>
        <mxCell id="210" style="vsdxID=219;fillColor=none;gradientColor=none;labelBackgroundColor=none;rounded=0;strokeColor=none;html=1;whiteSpace=wrap;" parent="1" vertex="1">
          <mxGeometry x="617" y="978" width="101" height="103" as="geometry" />
        </mxCell>
        <mxCell id="211" style="vsdxID=220;fillColor=#FFFFFF;gradientColor=none;shape=stencil(nZE9DsIwDIVP4xWliRiYS7kAJ4iIIRYhqdxQfk5PWhepdGBoJvu9z7b0AqbuvG0RtOoypys+yGUPZg9aU/TIlEsFpgFTnxPjhdM9OulbW0itRgWdzFQDrZXl05HeOGnVZvfztgLJllvqh+tPYZVYr2lSSX8QNFCcoV9zFfwHXQkuzpdizEeSoxAk3rm/zLNI8hem+QA=);strokeColor=#789440;labelBackgroundColor=none;rounded=1;html=1;whiteSpace=wrap;" parent="210" vertex="1">
          <mxGeometry width="101" height="103" as="geometry" />
        </mxCell>
        <mxCell id="212" style="vsdxID=221;fillColor=none;gradientColor=none;labelBackgroundColor=none;rounded=0;strokeColor=none;html=1;whiteSpace=wrap;" parent="210" vertex="1">
          <mxGeometry width="59" height="76" as="geometry" />
        </mxCell>
        <mxCell id="213" style="vsdxID=222;fillColor=#000000;gradientColor=none;fillOpacity=0;shape=stencil(vVfbjpswEP0aHjOyx1eet9v/QF2SoNIQEdrd/n2HEljGVoaNFOUN8Dnj8dx8KMzL5Vid6wLVZei7n/V78zYcC/OtQGxOx7pvBnoqzGthXvZdXx/67vfpbXo/VyNyfPrV/RktfEw86wDdyEL1d/pSRlD+/5fvE6FtTitCWUJARvABjBYIHjTH05Zhja/6H7TaX/FoIE7Lqr8ydFyc/DQaLbeqAf0Vs6s+msuu74ZqaLrTtK6mtbbqD/WOdtzt2+rAli7vdX1efZbOlAXBleDtXYQAQcDTaZKoIbgH2jdLtGa8BSVt4MGVnICgpR1yggI04pEdT6kzoOIjd0AoAyPYCLqUS9HmpWh4KRoIPFXWgo5PK8UsCpYqRWrgnKDAo1griteWieAFl7RSHG7BC5WSwRGC1EoeTOQE8l/Kol16aZVFp3kWA2jDrKKfrT4hi2kM0IlDOIOb2ftbrWV5yjFAKRDutE/DT/Fpom6DbTqpxvSxfCfpw6XjlvQFlrvMInXAgxtQOA8NBF6O1P5CN+n5slzPICkVaV0S3onRsjGN1jzkbvow3l5PC1iY23u52gwYoeEt2ATvQOolm15thHeS4MBlGKxChnw+ZE4ED8E9K2SjSuNnmjv0qxqtBLxLnmyIutyhUTayIOc6c4OQzBRAPrKCA6FNvqBjE4furCqKRxIhkqCCYNq2z/2hkZUIsiiLGbD8vCQQjaCWtu1zf+6dU3YZMjOeakq69Tftp/naujbSfHlun2QFCvHZtk8Pn39R+6Ztp5+w9Xr610Wfpj828/oP);strokeColor=none;strokeWidth=0;spacingTop=-3;spacingBottom=-3;spacingLeft=-3;spacingRight=-3;labelBackgroundColor=none;rounded=0;html=1;whiteSpace=wrap;" parent="212" vertex="1">
          <mxGeometry x="7" y="10" width="43" height="56" as="geometry" />
        </mxCell>
        <mxCell id="214" style="vsdxID=223;fillColor=#d19c38;gradientColor=none;shape=stencil(hZHNDsIgEISfhitZd0Hrudb3aFIqRCwNxb+3FyTGYqzeZne/mYSBUT3pdlQMYQreHdXVdEEz2jFEM2jlTYiKUcOo7p1XB+/OQ5fnsU1kUid3SQm37AMukwfhnmchOIjnZp9xa4YZLjccqDDAMrwCKLORb3EZj+dKFIZXwFe8zJZrXskf8L9nRvGuqDfW5obn989K4yp/BzUP);strokeColor=#a87c2d;spacingTop=-3;spacingBottom=-3;spacingLeft=-3;spacingRight=-3;labelBackgroundColor=none;rounded=0;html=1;whiteSpace=wrap;" parent="212" vertex="1">
          <mxGeometry x="10" y="34" width="41" height="30" as="geometry" />
        </mxCell>
        <mxCell id="215" style="vsdxID=224;fillColor=#7bb4d2;gradientColor=none;shape=stencil(tVJLDoIwED1NlzT9gbBWvEejBRorJUNVvL3FwUhNjCt3M+/TeekMkdux04Mhgo0B/Mnc7DF0RO6IELbvDNgQKyJrIreNB9OCv/RH7Ac9K+fq7K/zCxP6clqp2STYHQHO2LPfo9rZfqWuSqrKVJ7TolobNBwiC4tBCqqQZrA4FKMckSmd+HqSUbZEmjI92TEDH3Swvl9o5JyG1mRxWtY43SbUeDNmWMH8e76iiuMkTxOWueJU5EnINOKmoCX/X8b003+tKBbv7TbWOTyONf95DRHCS5L1Aw==);strokeColor=none;strokeWidth=0;spacingTop=-3;spacingBottom=-3;spacingLeft=-3;spacingRight=-3;labelBackgroundColor=none;rounded=0;html=1;whiteSpace=wrap;" parent="212" vertex="1">
          <mxGeometry x="25" y="44" width="24" height="19" as="geometry" />
        </mxCell>
        <mxCell id="216" style="vsdxID=225;fillColor=#e6f6f9;gradientColor=#7bb4d2;shape=stencil(tZJNbsMgEIVPw9IjDNhm1mlyD5RgG5UaC5O/2xeXRIG23rW7mXnvDZ/EEL5bRjVrwugSvHvXV3MKI+FvhDEzjdqbECvC94Tveuf14N15OqV+VqtzrT7cZd1wSzkBiGuI0Xsa0K/ukLzWTJkXEWRXmDsGkucB5Y9R9Y9A1wJLMvXPBIJgabS5FSXI+uGp1M0slXdBBeOmHJFa5QddxRer3qqhkJar1vOP8a+MTYstCFlSNsgbqEXByaDlBSbLLH+DWW9jCgEUS0jRAJaIG5/5L3ixeN1Ub6xNJ5nr328wjtL98v0n);strokeColor=none;strokeWidth=0;spacingTop=-3;spacingBottom=-3;spacingLeft=-3;spacingRight=-3;labelBackgroundColor=none;rounded=0;html=1;whiteSpace=wrap;" parent="212" vertex="1">
          <mxGeometry x="10" y="47" width="16" height="16" as="geometry" />
        </mxCell>
        <mxCell id="217" style="vsdxID=226;fillColor=#f4f8b1;gradientColor=#d19c38;gradientDirection=east;shape=stencil(rZPNbsMgDMefhmMsAgzIueveA60kQWMhctjavf2IoBrpFC2H3ey/f/7AMoSfltHMljC6RAxv9uoucST8mTDmptGii8ki/Ez4qQ9oBwwf0yX7s1nJ1XoPn2uFW87T0Kk1idGvLChos/CSce+mCm8p3dIMuD6OSwma7eMSFN/wtGYNvqYIFvaJQhkcCyw0qCLt1eMcWl2Qxtzc0mCIJrow1f2oNzjYJvVrem+GTWi5Wjv/kg89/u4fgjsBQuzjGqTe8KwDyva3JRRo8bAuec/4+xb+a1ttPWEyfq6yd97no67jj1ecpPwD+Pkb);strokeColor=#a87c2d;spacingTop=-3;spacingBottom=-3;spacingLeft=-3;spacingRight=-3;labelBackgroundColor=none;rounded=0;html=1;whiteSpace=wrap;" parent="212" vertex="1">
          <mxGeometry x="9" y="46" width="18" height="19" as="geometry" />
        </mxCell>
        <mxCell id="218" style="vsdxID=227;fillColor=#f4f8b1;gradientColor=#d9b771;shape=stencil(hZDNDsIgEISfZq9kZYvWc63v0aRUiAgNpf68vSAxFmPjbXb3mwkMUDOpbpTAcQreneVN90EBHYBzbZX0OkQF1AI1g/Py5N1s+zyPXSKTurhrSrhnn9gxpOTi+MgbfE3HDBttF/AGsUArzvZ8HY/nuioM74CfeJkttqwW6/Cfd0fx+fGgjcmFLe/fDcVVbpfaJw==);strokeColor=#a87c2d;spacingTop=-3;spacingBottom=-3;spacingLeft=-3;spacingRight=-3;labelBackgroundColor=none;rounded=0;html=1;whiteSpace=wrap;" parent="212" vertex="1">
          <mxGeometry x="10" y="29" width="41" height="30" as="geometry" />
        </mxCell>
        <mxCell id="219" style="vsdxID=228;fillColor=#d19c38;gradientColor=none;shape=stencil(hZHNDsIgEISfhitZd0Hrudb3aFIqRCwNxb+3FyTGYqzeZne/mYSBUT3pdlQMYQreHdXVdEEz2jFEM2jlTYiKUcOo7p1XB+/OQ5fnsU1kUid3SQm37AMukwfhnmchOIjnZp9xa4YZLjccqDDAMrwCKLORb3EZj+dKFIZXwFe8zJZrXskf8L9nRvGuqDfW5obn989K4yp/BzUP);strokeColor=#a87c2d;spacingTop=-3;spacingBottom=-3;spacingLeft=-3;spacingRight=-3;labelBackgroundColor=none;rounded=0;html=1;whiteSpace=wrap;" parent="212" vertex="1">
          <mxGeometry x="9" y="25" width="41" height="30" as="geometry" />
        </mxCell>
        <mxCell id="220" style="vsdxID=229;fillColor=#7bb4d2;gradientColor=none;shape=stencil(rVLLjoMwDPyaHLFCTKCc+/iPaBsg2pQgk7b07zdssirpob3szZ4Z2yPbDPfzoCbNBJ89uW99N2c/MDwwIcw4aDI+RAyPDPedI92Tu47nmE9qVa7Rxd3WDkusa0A2a5HgjwiUnP/mp6i2Ztyo2x3IXC2hbrd6RV+BpaRHASK1p1RRcZAYoSWf+NeTA6+SoFCLmQtyXnnjxkRHzirqdRHGFZ1VfUbNd62nDVy+MYjVroS2fvEouESom8xmbrKRULb/6vLN2j8dKQTP+3bG2vgeW/71HwIUfwmPPw==);strokeColor=none;strokeWidth=0;spacingTop=-3;spacingBottom=-3;spacingLeft=-3;spacingRight=-3;labelBackgroundColor=none;rounded=0;html=1;whiteSpace=wrap;" parent="212" vertex="1">
          <mxGeometry x="24" y="34" width="24" height="19" as="geometry" />
        </mxCell>
        <mxCell id="221" style="vsdxID=230;fillColor=#e6f6f9;gradientColor=#7bb4d2;shape=stencil(tZJNbsMgEIVPw9IjDNhm1mlyD5RgG5UaC5O/2xeXRIG23rW7mXnvwScYwnfLqGZNGF2Cd+/6ak5hJPyNMGamUXsTYkX4nvBd77wevDtPp9TPanWu1Ye7rCfcUk4A4hpi9J4G9Ks7JK81U+ZFBNkV5o6B5HlA+WNU/SPQtcCSTP0zgSBYGm2eihJk/fBU6maWyruggnFTjkit8oOu4o1Vb9VQSMtV6/nH+FfGpsUWhCwpG+QN1KLgZNDyApNllr/BrLcxhQDalZCiASyfcuMz/wUvFq+d6o21aSVz/fsOxlHaX77/BA==);strokeColor=none;strokeWidth=0;spacingTop=-3;spacingBottom=-3;spacingLeft=-3;spacingRight=-3;labelBackgroundColor=none;rounded=0;html=1;whiteSpace=wrap;" parent="212" vertex="1">
          <mxGeometry x="9" y="38" width="16" height="16" as="geometry" />
        </mxCell>
        <mxCell id="222" style="vsdxID=231;fillColor=#f4f8b1;gradientColor=#d19c38;gradientDirection=east;shape=stencil(rZPNjsIgEMefhmMnFBDo2XXfgyhtiWxpKK769ksDZqmmsQdvM//5zQeTAdH91KtRI4Kn4N1ZX80p9Ih+IULM0GtvQrQQPSC6b53XnXeX4ZT8Uc3kbP2437nCLeVJaMScRPA9CQLqJHwn3JqhwGuMlzQBKrfjnIMk6zgHQRc8LlnljzHiM7vDkAf3GWYSRJbW6lEKtcxIpW5mqrwLKhg3lP2wVb7TVexXtVZ1i9B01Xp8kTc9/uFvghsGjK3jErhc8KQBTNa3xQTI3dO6+CPj/S18alt1OWE0/q+yNdamoy7jz1ccpfQD6OEP);strokeColor=#a87c2d;spacingTop=-3;spacingBottom=-3;spacingLeft=-3;spacingRight=-3;labelBackgroundColor=none;rounded=0;html=1;whiteSpace=wrap;" parent="212" vertex="1">
          <mxGeometry x="7" y="36" width="18" height="19" as="geometry" />
        </mxCell>
        <mxCell id="223" style="vsdxID=232;fillColor=#f4f8b1;gradientColor=#d9b771;gradientDirection=east;shape=stencil(hZDNDsIgEISfZq9kZYvWc63v0aRUiAgNpf68vSAxFmPjbXb3mwkMUDOpbpTAcQreneVN90EBHYBzbZX0OkQF1AI1g/Py5N1s+zyPXSKTurhrSrhnn9gxpOTi+MgbfE3HDBttF/AGsUArzvZ8HY/nuioM74CfeJkttqwW6/Cfd0fx+fGgjcmFLe/fDcVVbpfaJw==);strokeColor=#a87c2d;spacingTop=-3;spacingBottom=-3;spacingLeft=-3;spacingRight=-3;labelBackgroundColor=none;rounded=0;html=1;whiteSpace=wrap;" parent="212" vertex="1">
          <mxGeometry x="9" y="19" width="41" height="30" as="geometry" />
        </mxCell>
        <mxCell id="224" style="vsdxID=233;fillColor=#d19c38;gradientColor=none;shape=stencil(hVLbEoIgEP0aHmXWRS2fu/wHk6hMJM5KZX8fhk3SZXpbzm0XFiY2Qyt7xRAGR/aorrpyLRNbhqi7VpF2vmJix8SmtqQasueuCudeTsqpOtnLlDAGH/B88iDcwjnLOGQPZB/kRncLeb7iICID/BanAHE28hJ/yz29ziLDM+CrPM7OC77Ol2JJB8/SLMa0QCh56A40m7BE4S9cFAH++yQwJnLUQ0LWSadtFw1iJDUq8W2T2sgmooarUv0HPA/qi9dyam1M2O2Sf1+mh8JHELs7);strokeColor=#a87c2d;spacingTop=-3;spacingBottom=-3;spacingLeft=-3;spacingRight=-3;labelBackgroundColor=none;rounded=0;html=1;whiteSpace=wrap;" parent="212" vertex="1">
          <mxGeometry x="10" y="15" width="41" height="30" as="geometry" />
        </mxCell>
        <mxCell id="225" style="vsdxID=234;fillColor=#7bb4d2;gradientColor=none;shape=stencil(rVJLbsMgED0NSyPMx4Z1mtwDJdhGpcYak8S5fXHHUUyltpvuZt6HeWKGiMM82MkRzuYE8d3d/SUNRLwRzv04OPApV0QciTh0EVwP8TpesJ/sqlyrj3hbX1jQp6huVxNnDwRqxr76E6qDH3dqo6nUpVzRxuwNFs6Zhc0gOJUNGmBzSEaZQGgpRz7fzAK5CSq7+LmCmGzycdxo5IKF3lV5XNUF2xfUfHdu2sH1zwGNUZIaVUasOW8bqmWRsszYaqrqfw35y7f/taRcvPbb+RDwPPb893vIEN6SOH4C);strokeColor=none;strokeWidth=0;spacingTop=-3;spacingBottom=-3;spacingLeft=-3;spacingRight=-3;labelBackgroundColor=none;rounded=0;html=1;whiteSpace=wrap;" parent="212" vertex="1">
          <mxGeometry x="25" y="24" width="24" height="19" as="geometry" />
        </mxCell>
        <mxCell id="226" style="vsdxID=235;fillColor=#e6f6f9;gradientColor=#7bb4d2;shape=stencil(tZJNbsMgEIVPw9IjDNhm1mlyD5RgG5UaC5O/2xeXRIG23rW7mXnvwScYwnfLqGZNGF2Cd+/6ak5hJPyNMGamUXsTYkX4nvBd77wevDtPp9TPanWu1Ye7rCfcUk4A4hpi9J4G9Ks7JK81U+ZFBNkV5o6B5HlA+WNU/SPQtcCSTP0zgSBYGm2eihJk/fBU6maWyruggnFTjkit8oOu4o1Vb9VQSMtV6/nH+FfGpsUWhCwpG+QN1KLgZNDyApNllr/BrLcxhQDalZCiASyfcuMz/wUvFq+d6o21aSVz/fsOxlHaX77/BA==);strokeColor=none;strokeWidth=0;spacingTop=-3;spacingBottom=-3;spacingLeft=-3;spacingRight=-3;labelBackgroundColor=none;rounded=0;html=1;whiteSpace=wrap;" parent="212" vertex="1">
          <mxGeometry x="10" y="28" width="16" height="16" as="geometry" />
        </mxCell>
        <mxCell id="227" style="vsdxID=236;fillColor=#f4f8b1;gradientColor=#d19c38;gradientDirection=east;shape=stencil(rZNLbsMgEIZPw9IjXgG8TtN7oAbbqNRYmDTp7YuFq0IqJC+6m/nnmwejAbHzOunFIIrXGPy7udtrnBB7QZTaeTLBxmQhdkHsPPhgxuBv8zX7i97Izfrwn1uFR85T0MstieKvLEggWXjNuLNzgROMa5oCU8dxIUDRNi5AsorHJavDW4qEnT1h2AcPO8wVSJGlVj3GgKgd6fTDrl3wUUfr57IfdjqMpkv9usHpsQqtd2OWP/Khx//4h+CeA+dtXIFQFU97wLS9LS5Bkad1naBX1brat/Bf2yLlhMn4vcrBOpePuow/X3GS8g9gl28=);strokeColor=#a87c2d;spacingTop=-3;spacingBottom=-3;spacingLeft=-3;spacingRight=-3;labelBackgroundColor=none;rounded=0;html=1;whiteSpace=wrap;" parent="212" vertex="1">
          <mxGeometry x="9" y="27" width="18" height="19" as="geometry" />
        </mxCell>
        <mxCell id="228" style="vsdxID=237;fillColor=#f4f8d6;gradientColor=#d9b771;gradientDirection=east;shape=stencil(hZDNDsIgEISfZq9kZYvWc63v0aRUiAgNpf68vSAxFmPjbXb3mwkMUDOpbpTAcQreneVN90EBHYBzbZX0OkQF1AI1g/Py5N1s+zyPXSKTurhrSrhnn9gxpOTi+MgbfE3HDBttF/AGsUArzvZ8HY/nuioM74CfeJkttqwW6/Cfd0fx+fGgjcmFLe/fDcVVbpfaJw==);strokeColor=#a87c2d;spacingTop=-3;spacingBottom=-3;spacingLeft=-3;spacingRight=-3;labelBackgroundColor=none;rounded=0;html=1;whiteSpace=wrap;" parent="212" vertex="1">
          <mxGeometry x="10" y="9" width="41" height="30" as="geometry" />
        </mxCell>
        <mxCell id="229" style="vsdxID=238;fillColor=#a87c2d;gradientColor=none;shape=stencil(lZTdbsMgDEafhluL8FPq6657j0pNF7QsqdJsa99+zlC3AgrFd5AcW99JwELvLt3h3AolL/M0vrff/jh3Qr8IpfzQtZOfaSX0XujdaZzat2n8HI5hfz4s5LL6GL+WDtdQZwGXGiVvYW8kyOb3yWvAez884I2UES7rUQVWrdNZDsI1A09jly0tdWdYNoQzaAuSYWoJZ5hm0WPTOMpGgXPrvdFAE/8j4jcc3oLarvNJGIKxGk6TlzQddeZoauI5mtqBq9Z0BFdrZsnTc2viJFsDWEiCeD8cfxeDCkqfJi9wYArx80SudDeeCzwRRorDErZUwBK2CMgRvl/3OjrLT4v/WXzyfR9G+eP7dHbTozD39f4H);strokeColor=#a87c2d;spacingTop=-3;spacingBottom=-3;spacingLeft=-3;spacingRight=-3;labelBackgroundColor=none;rounded=0;html=1;whiteSpace=wrap;" parent="212" vertex="1">
          <mxGeometry x="26" y="22" width="24" height="43" as="geometry" />
        </mxCell>
        <mxCell id="230" style="vsdxID=239;fillColor=none;gradientColor=none;shape=stencil(dY/dDoIwDIWfprektuALIL4HCYM1zo2M+ff2blYjmHh3Tvudpge4XWw/GyBcUgwnc5MhWeADEIm3JkrKCrgDbscQzRTDxQ/q576QRZ3DtVy4a472VVOXFOFDJ/hyR4Wd+BW8Q9ygNVXI//Et/Am/0Sy+P43inFZa73875JH25+4J);strokeColor=#f7f1e6;strokeWidth=2;spacingTop=-3;spacingBottom=-3;spacingLeft=-3;spacingRight=-3;labelBackgroundColor=none;rounded=0;html=1;whiteSpace=wrap;" parent="212" vertex="1">
          <mxGeometry x="28" y="11" width="22" height="27" as="geometry" />
        </mxCell>
        <mxCell id="231" style="vsdxID=240;fillColor=none;gradientColor=none;shape=stencil(vZbbUoMwEIafhkt2cj5ca30PxtKWEaET0Na3N0ihJCnrdEZ7F5J/N+TbQ5Lxp+5QHMuMka537Vt5qrb9IePPGWNVcyhd1ftRxjcZf9q1rty79qPZjt/HYlAOo/f2c/BwHu0oIYMNI1/jN5NA1M/MyyivqwaTc6B8XS4tEB0YkHWxAC0CLSegxFJfuFe/6i56RsGOencxoAq0HKfWfAoG1FwkeXGuuty1fdFXbbP8P1IXbl/mfr98Vxf7YKk7leUxmb55IgNchbsLoBhd4DzUmwhvRMAfhiYILA0QJE59UNTDEGgwYQAUByRhBIiQmJLAKErAyoiABhknQeRUL/Lk3wkIf4KwBqYiuim3FjQLEVhg4i4DDZwiBhKsSSCjjE1caJ5xmGVWgbKhUwqS/Slk7EwJhCHL76ImNWhEzyems14AMYiBAhkCkb5asR1SAwIMqRXr4xJ3C2KROPrlqFv45iCmGM3nlEnPEuJhcUwg+IYtkZZ5w8DfGgylZsNy5AbdIb7yuACFhDGRs+kKWvv/qDsMtx7S8+k1cedqlFPcZ6869sp8fT4qiL++Kfzg+h7ZVXU9PmeW6/H7xU+Nbx+++QY=);strokeColor=#000000;spacingTop=-3;spacingBottom=-3;spacingLeft=-3;spacingRight=-3;labelBackgroundColor=none;rounded=0;html=1;whiteSpace=wrap;" parent="212" vertex="1">
          <mxGeometry x="8" y="9" width="43" height="56" as="geometry" />
        </mxCell>
        <mxCell id="232" value="&lt;font style=&quot;font-size:11px;font-family:SimHei;color:#7f7f7f;direction:ltr;letter-spacing:0px;line-height:120%;opacity:1&quot;&gt;元数据&lt;br/&gt;&lt;/font&gt;" style="text;vsdxID=221;fillColor=none;gradientColor=none;labelBackgroundColor=none;rounded=0;strokeColor=none;html=1;whiteSpace=wrap;verticalAlign=middle;align=center;;html=1;" parent="212" vertex="1">
          <mxGeometry x="2.6" y="65.17" width="50.81" height="24.84" as="geometry" />
        </mxCell>
        <mxCell id="233" value="&lt;font style=&quot;font-size:14px;font-family:仿宋;color:#000000;direction:ltr;letter-spacing:0px;line-height:120%;opacity:1&quot;&gt;地点&lt;br/&gt;时间&lt;br/&gt;类型&lt;br/&gt;说明&lt;br/&gt;标签&lt;br/&gt;…&lt;br/&gt;&lt;/font&gt;" style="verticalAlign=middle;align=center;vsdxID=241;fillColor=none;gradientColor=none;shape=stencil(nZBLDoAgDERP0z3SIyjew0SURgSD+Lu9kMZoXLhwN9O+tukAlrNpJg1SzDH4QW/URgNYgZTkjA4UkwJUgGXng+6DX1zLfmoymdXo17xh5zmRJ6Q42BWCfc2oJfdAr+Yv+AP9Cb7OJ3H/2JG1HNGz/84klThPVCc=);strokeColor=none;labelBackgroundColor=none;rounded=0;html=1;whiteSpace=wrap;" parent="210" vertex="1">
          <mxGeometry x="55" y="1" width="45" height="102" as="geometry" />
        </mxCell>
        <mxCell id="234" style="vsdxID=242;fillColor=none;gradientColor=none;labelBackgroundColor=none;rounded=0;strokeColor=none;html=1;whiteSpace=wrap;" parent="1" vertex="1">
          <mxGeometry x="787" y="978" width="101" height="103" as="geometry" />
        </mxCell>
        <mxCell id="235" style="vsdxID=243;fillColor=#FFFFFF;gradientColor=none;shape=stencil(nZE9DsIwDIVP4xWliRiYS7kAJ4iIIRYhqdxQfk5PWhepdGBoJvu9z7b0AqbuvG0RtOoypys+yGUPZg9aU/TIlEsFpgFTnxPjhdM9OulbW0itRgWdzFQDrZXl05HeOGnVZvfztgLJllvqh+tPYZVYr2lSSX8QNFCcoV9zFfwHXQkuzpdizEeSoxAk3rm/zLNI8hem+QA=);strokeColor=#789440;labelBackgroundColor=none;rounded=1;html=1;whiteSpace=wrap;" parent="234" vertex="1">
          <mxGeometry width="101" height="103" as="geometry" />
        </mxCell>
        <mxCell id="236" style="vsdxID=244;fillColor=none;gradientColor=none;labelBackgroundColor=none;rounded=0;strokeColor=none;html=1;whiteSpace=wrap;" parent="234" vertex="1">
          <mxGeometry width="59" height="76" as="geometry" />
        </mxCell>
        <mxCell id="237" style="vsdxID=245;fillColor=#000000;gradientColor=none;fillOpacity=0;shape=stencil(vVfbjpswEP0aHjOyx1eet9v/QF2SoNIQEdrd/n2HEljGVoaNFOUN8Dnj8dx8KMzL5Vid6wLVZei7n/V78zYcC/OtQGxOx7pvBnoqzGthXvZdXx/67vfpbXo/VyNyfPrV/RktfEw86wDdyEL1d/pSRlD+/5fvE6FtTitCWUJARvABjBYIHjTH05Zhja/6H7TaX/FoIE7Lqr8ydFyc/DQaLbeqAf0Vs6s+msuu74ZqaLrTtK6mtbbqD/WOdtzt2+rAli7vdX1efZbOlAXBleDtXYQAQcDTaZKoIbgH2jdLtGa8BSVt4MGVnICgpR1yggI04pEdT6kzoOIjd0AoAyPYCLqUS9HmpWh4KRoIPFXWgo5PK8UsCpYqRWrgnKDAo1griteWieAFl7RSHG7BC5WSwRGC1EoeTOQE8l/Kol16aZVFp3kWA2jDrKKfrT4hi2kM0IlDOIOb2ftbrWV5yjFAKRDutE/DT/Fpom6DbTqpxvSxfCfpw6XjlvQFlrvMInXAgxtQOA8NBF6O1P5CN+n5slzPICkVaV0S3onRsjGN1jzkbvow3l5PC1iY23u52gwYoeEt2ATvQOolm15thHeS4MBlGKxChnw+ZE4ED8E9K2SjSuNnmjv0qxqtBLxLnmyIutyhUTayIOc6c4OQzBRAPrKCA6FNvqBjE4furCqKRxIhkqCCYNq2z/2hkZUIsiiLGbD8vCQQjaCWtu1zf+6dU3YZMjOeakq69Tftp/naujbSfHlun2QFCvHZtk8Pn39R+6Ztp5+w9Xr610Wfpj828/oP);strokeColor=none;strokeWidth=0;spacingTop=-3;spacingBottom=-3;spacingLeft=-3;spacingRight=-3;labelBackgroundColor=none;rounded=0;html=1;whiteSpace=wrap;" parent="236" vertex="1">
          <mxGeometry x="7" y="10" width="43" height="56" as="geometry" />
        </mxCell>
        <mxCell id="238" style="vsdxID=246;fillColor=#e6b8b5;gradientColor=none;shape=stencil(hZHNDsIgEISfhitZd0Hrudb3aFIqRCwNxb+3FyTGYqzeZne/mYSBUT3pdlQMYQreHdXVdEEz2jFEM2jlTYiKUcOo7p1XB+/OQ5fnsU1kUid3SQm37AMukwfhnmchOIjnZp9xa4YZLjccqDDAMrwCKLORb3EZj+dKFIZXwFe8zJZrXskf8L9nRvGuqDfW5obn989K4yp/BzUP);strokeColor=#cc827b;spacingTop=-3;spacingBottom=-3;spacingLeft=-3;spacingRight=-3;labelBackgroundColor=none;rounded=0;html=1;whiteSpace=wrap;" parent="236" vertex="1">
          <mxGeometry x="10" y="34" width="41" height="30" as="geometry" />
        </mxCell>
        <mxCell id="239" style="vsdxID=247;fillColor=#7bb4d2;gradientColor=none;shape=stencil(tVJLDoIwED1NlzT9gbBWvEejBRorJUNVvL3FwUhNjCt3M+/TeekMkdux04Mhgo0B/Mnc7DF0RO6IELbvDNgQKyJrIreNB9OCv/RH7Ac9K+fq7K/zCxP6clqp2STYHQHO2LPfo9rZfqWuSqrKVJ7TolobNBwiC4tBCqqQZrA4FKMckSmd+HqSUbZEmjI92TEDH3Swvl9o5JyG1mRxWtY43SbUeDNmWMH8e76iiuMkTxOWueJU5EnINOKmoCX/X8b003+tKBbv7TbWOTyONf95DRHCS5L1Aw==);strokeColor=none;strokeWidth=0;spacingTop=-3;spacingBottom=-3;spacingLeft=-3;spacingRight=-3;labelBackgroundColor=none;rounded=0;html=1;whiteSpace=wrap;" parent="236" vertex="1">
          <mxGeometry x="25" y="44" width="24" height="19" as="geometry" />
        </mxCell>
        <mxCell id="240" style="vsdxID=248;fillColor=#e6f6f9;gradientColor=#7bb4d2;shape=stencil(tZJNbsMgEIVPw9IjDNhm1mlyD5RgG5UaC5O/2xeXRIG23rW7mXnvDZ/EEL5bRjVrwugSvHvXV3MKI+FvhDEzjdqbECvC94Tveuf14N15OqV+VqtzrT7cZd1wSzkBiGuI0Xsa0K/ukLzWTJkXEWRXmDsGkucB5Y9R9Y9A1wJLMvXPBIJgabS5FSXI+uGp1M0slXdBBeOmHJFa5QddxRer3qqhkJar1vOP8a+MTYstCFlSNsgbqEXByaDlBSbLLH+DWW9jCgEUS0jRAJaIG5/5L3ixeN1Ub6xNJ5nr328wjtL98v0n);strokeColor=none;strokeWidth=0;spacingTop=-3;spacingBottom=-3;spacingLeft=-3;spacingRight=-3;labelBackgroundColor=none;rounded=0;html=1;whiteSpace=wrap;" parent="236" vertex="1">
          <mxGeometry x="10" y="47" width="16" height="16" as="geometry" />
        </mxCell>
        <mxCell id="241" style="vsdxID=249;fillColor=#fbecdf;gradientColor=#e6b8b5;gradientDirection=east;shape=stencil(rZPNbsMgDMefhmMsAgzIueveA60kQWMhctjavf2IoBrpFC2H3ey/f/7AMoSfltHMljC6RAxv9uoucST8mTDmptGii8ki/Ez4qQ9oBwwf0yX7s1nJ1XoPn2uFW87T0Kk1idGvLChos/CSce+mCm8p3dIMuD6OSwma7eMSFN/wtGYNvqYIFvaJQhkcCyw0qCLt1eMcWl2Qxtzc0mCIJrow1f2oNzjYJvVrem+GTWi5Wjv/kg89/u4fgjsBQuzjGqTe8KwDyva3JRRo8bAuec/4+xb+a1ttPWEyfq6yd97no67jj1ecpPwD+Pkb);strokeColor=#cc827b;spacingTop=-3;spacingBottom=-3;spacingLeft=-3;spacingRight=-3;labelBackgroundColor=none;rounded=0;html=1;whiteSpace=wrap;" parent="236" vertex="1">
          <mxGeometry x="9" y="46" width="18" height="19" as="geometry" />
        </mxCell>
        <mxCell id="242" style="vsdxID=250;fillColor=#fbecdf;gradientColor=#ebccc9;shape=stencil(hZDNDsIgEISfZq9kZYvWc63v0aRUiAgNpf68vSAxFmPjbXb3mwkMUDOpbpTAcQreneVN90EBHYBzbZX0OkQF1AI1g/Py5N1s+zyPXSKTurhrSrhnn9gxpOTi+MgbfE3HDBttF/AGsUArzvZ8HY/nuioM74CfeJkttqwW6/Cfd0fx+fGgjcmFLe/fDcVVbpfaJw==);strokeColor=#cc827b;spacingTop=-3;spacingBottom=-3;spacingLeft=-3;spacingRight=-3;labelBackgroundColor=none;rounded=0;html=1;whiteSpace=wrap;" parent="236" vertex="1">
          <mxGeometry x="10" y="29" width="41" height="30" as="geometry" />
        </mxCell>
        <mxCell id="243" style="vsdxID=251;fillColor=#e6b8b5;gradientColor=none;shape=stencil(hZHNDsIgEISfhitZd0Hrudb3aFIqRCwNxb+3FyTGYqzeZne/mYSBUT3pdlQMYQreHdXVdEEz2jFEM2jlTYiKUcOo7p1XB+/OQ5fnsU1kUid3SQm37AMukwfhnmchOIjnZp9xa4YZLjccqDDAMrwCKLORb3EZj+dKFIZXwFe8zJZrXskf8L9nRvGuqDfW5obn989K4yp/BzUP);strokeColor=#cc827b;spacingTop=-3;spacingBottom=-3;spacingLeft=-3;spacingRight=-3;labelBackgroundColor=none;rounded=0;html=1;whiteSpace=wrap;" parent="236" vertex="1">
          <mxGeometry x="9" y="25" width="41" height="30" as="geometry" />
        </mxCell>
        <mxCell id="244" style="vsdxID=252;fillColor=#7bb4d2;gradientColor=none;shape=stencil(rVLLjoMwDPyaHLFCTKCc+/iPaBsg2pQgk7b07zdssirpob3szZ4Z2yPbDPfzoCbNBJ89uW99N2c/MDwwIcw4aDI+RAyPDPedI92Tu47nmE9qVa7Rxd3WDkusa0A2a5HgjwiUnP/mp6i2Ztyo2x3IXC2hbrd6RV+BpaRHASK1p1RRcZAYoSWf+NeTA6+SoFCLmQtyXnnjxkRHzirqdRHGFZ1VfUbNd62nDVy+MYjVroS2fvEouESom8xmbrKRULb/6vLN2j8dKQTP+3bG2vgeW/71HwIUfwmPPw==);strokeColor=none;strokeWidth=0;spacingTop=-3;spacingBottom=-3;spacingLeft=-3;spacingRight=-3;labelBackgroundColor=none;rounded=0;html=1;whiteSpace=wrap;" parent="236" vertex="1">
          <mxGeometry x="24" y="34" width="24" height="19" as="geometry" />
        </mxCell>
        <mxCell id="245" style="vsdxID=253;fillColor=#e6f6f9;gradientColor=#7bb4d2;shape=stencil(tZJNbsMgEIVPw9IjDNhm1mlyD5RgG5UaC5O/2xeXRIG23rW7mXnvwScYwnfLqGZNGF2Cd+/6ak5hJPyNMGamUXsTYkX4nvBd77wevDtPp9TPanWu1Ye7rCfcUk4A4hpi9J4G9Ks7JK81U+ZFBNkV5o6B5HlA+WNU/SPQtcCSTP0zgSBYGm2eihJk/fBU6maWyruggnFTjkit8oOu4o1Vb9VQSMtV6/nH+FfGpsUWhCwpG+QN1KLgZNDyApNllr/BrLcxhQDalZCiASyfcuMz/wUvFq+d6o21aSVz/fsOxlHaX77/BA==);strokeColor=none;strokeWidth=0;spacingTop=-3;spacingBottom=-3;spacingLeft=-3;spacingRight=-3;labelBackgroundColor=none;rounded=0;html=1;whiteSpace=wrap;" parent="236" vertex="1">
          <mxGeometry x="9" y="38" width="16" height="16" as="geometry" />
        </mxCell>
        <mxCell id="246" style="vsdxID=254;fillColor=#fbecdf;gradientColor=#e6b8b5;gradientDirection=east;shape=stencil(rZPNjsIgEMefhmMnFBDo2XXfgyhtiWxpKK769ksDZqmmsQdvM//5zQeTAdH91KtRI4Kn4N1ZX80p9Ih+IULM0GtvQrQQPSC6b53XnXeX4ZT8Uc3kbP2437nCLeVJaMScRPA9CQLqJHwn3JqhwGuMlzQBKrfjnIMk6zgHQRc8LlnljzHiM7vDkAf3GWYSRJbW6lEKtcxIpW5mqrwLKhg3lP2wVb7TVexXtVZ1i9B01Xp8kTc9/uFvghsGjK3jErhc8KQBTNa3xQTI3dO6+CPj/S18alt1OWE0/q+yNdamoy7jz1ccpfQD6OEP);strokeColor=#cc827b;spacingTop=-3;spacingBottom=-3;spacingLeft=-3;spacingRight=-3;labelBackgroundColor=none;rounded=0;html=1;whiteSpace=wrap;" parent="236" vertex="1">
          <mxGeometry x="7" y="36" width="18" height="19" as="geometry" />
        </mxCell>
        <mxCell id="247" style="vsdxID=255;fillColor=#fbecdf;gradientColor=#ebccc9;gradientDirection=east;shape=stencil(hZDNDsIgEISfZq9kZYvWc63v0aRUiAgNpf68vSAxFmPjbXb3mwkMUDOpbpTAcQreneVN90EBHYBzbZX0OkQF1AI1g/Py5N1s+zyPXSKTurhrSrhnn9gxpOTi+MgbfE3HDBttF/AGsUArzvZ8HY/nuioM74CfeJkttqwW6/Cfd0fx+fGgjcmFLe/fDcVVbpfaJw==);strokeColor=#cc827b;spacingTop=-3;spacingBottom=-3;spacingLeft=-3;spacingRight=-3;labelBackgroundColor=none;rounded=0;html=1;whiteSpace=wrap;" parent="236" vertex="1">
          <mxGeometry x="9" y="19" width="41" height="30" as="geometry" />
        </mxCell>
        <mxCell id="248" style="vsdxID=256;fillColor=#e6b8b5;gradientColor=none;shape=stencil(hVLbEoIgEP0aHmXWRS2fu/wHk6hMJM5KZX8fhk3SZXpbzm0XFiY2Qyt7xRAGR/aorrpyLRNbhqi7VpF2vmJix8SmtqQasueuCudeTsqpOtnLlDAGH/B88iDcwjnLOGQPZB/kRncLeb7iICID/BanAHE28hJ/yz29ziLDM+CrPM7OC77Ol2JJB8/SLMa0QCh56A40m7BE4S9cFAH++yQwJnLUQ0LWSadtFw1iJDUq8W2T2sgmooarUv0HPA/qi9dyam1M2O2Sf1+mh8JHELs7);strokeColor=#cc827b;spacingTop=-3;spacingBottom=-3;spacingLeft=-3;spacingRight=-3;labelBackgroundColor=none;rounded=0;html=1;whiteSpace=wrap;" parent="236" vertex="1">
          <mxGeometry x="10" y="15" width="41" height="30" as="geometry" />
        </mxCell>
        <mxCell id="249" style="vsdxID=257;fillColor=#7bb4d2;gradientColor=none;shape=stencil(rVJLbsMgED0NSyPMx4Z1mtwDJdhGpcYak8S5fXHHUUyltpvuZt6HeWKGiMM82MkRzuYE8d3d/SUNRLwRzv04OPApV0QciTh0EVwP8TpesJ/sqlyrj3hbX1jQp6huVxNnDwRqxr76E6qDH3dqo6nUpVzRxuwNFs6Zhc0gOJUNGmBzSEaZQGgpRz7fzAK5CSq7+LmCmGzycdxo5IKF3lV5XNUF2xfUfHdu2sH1zwGNUZIaVUasOW8bqmWRsszYaqrqfw35y7f/taRcvPbb+RDwPPb893vIEN6SOH4C);strokeColor=none;strokeWidth=0;spacingTop=-3;spacingBottom=-3;spacingLeft=-3;spacingRight=-3;labelBackgroundColor=none;rounded=0;html=1;whiteSpace=wrap;" parent="236" vertex="1">
          <mxGeometry x="25" y="24" width="24" height="19" as="geometry" />
        </mxCell>
        <mxCell id="250" style="vsdxID=258;fillColor=#e6f6f9;gradientColor=#7bb4d2;shape=stencil(tZJNbsMgEIVPw9IjDNhm1mlyD5RgG5UaC5O/2xeXRIG23rW7mXnvwScYwnfLqGZNGF2Cd+/6ak5hJPyNMGamUXsTYkX4nvBd77wevDtPp9TPanWu1Ye7rCfcUk4A4hpi9J4G9Ks7JK81U+ZFBNkV5o6B5HlA+WNU/SPQtcCSTP0zgSBYGm2eihJk/fBU6maWyruggnFTjkit8oOu4o1Vb9VQSMtV6/nH+FfGpsUWhCwpG+QN1KLgZNDyApNllr/BrLcxhQDalZCiASyfcuMz/wUvFq+d6o21aSVz/fsOxlHaX77/BA==);strokeColor=none;strokeWidth=0;spacingTop=-3;spacingBottom=-3;spacingLeft=-3;spacingRight=-3;labelBackgroundColor=none;rounded=0;html=1;whiteSpace=wrap;" parent="236" vertex="1">
          <mxGeometry x="10" y="28" width="16" height="16" as="geometry" />
        </mxCell>
        <mxCell id="251" style="vsdxID=259;fillColor=#fbecdf;gradientColor=#e6b8b5;gradientDirection=east;shape=stencil(rZNLbsMgEIZPw9IjXgG8TtN7oAbbqNRYmDTp7YuFq0IqJC+6m/nnmwejAbHzOunFIIrXGPy7udtrnBB7QZTaeTLBxmQhdkHsPPhgxuBv8zX7i97Izfrwn1uFR85T0MstieKvLEggWXjNuLNzgROMa5oCU8dxIUDRNi5AsorHJavDW4qEnT1h2AcPO8wVSJGlVj3GgKgd6fTDrl3wUUfr57IfdjqMpkv9usHpsQqtd2OWP/Khx//4h+CeA+dtXIFQFU97wLS9LS5Bkad1naBX1brat/Bf2yLlhMn4vcrBOpePuow/X3GS8g9gl28=);strokeColor=#cc827b;spacingTop=-3;spacingBottom=-3;spacingLeft=-3;spacingRight=-3;labelBackgroundColor=none;rounded=0;html=1;whiteSpace=wrap;" parent="236" vertex="1">
          <mxGeometry x="9" y="27" width="18" height="19" as="geometry" />
        </mxCell>
        <mxCell id="252" style="vsdxID=260;fillColor=#fbf4ee;gradientColor=#ebccc9;gradientDirection=east;shape=stencil(hZDNDsIgEISfZq9kZYvWc63v0aRUiAgNpf68vSAxFmPjbXb3mwkMUDOpbpTAcQreneVN90EBHYBzbZX0OkQF1AI1g/Py5N1s+zyPXSKTurhrSrhnn9gxpOTi+MgbfE3HDBttF/AGsUArzvZ8HY/nuioM74CfeJkttqwW6/Cfd0fx+fGgjcmFLe/fDcVVbpfaJw==);strokeColor=#cc827b;spacingTop=-3;spacingBottom=-3;spacingLeft=-3;spacingRight=-3;labelBackgroundColor=none;rounded=0;html=1;whiteSpace=wrap;" parent="236" vertex="1">
          <mxGeometry x="10" y="9" width="41" height="30" as="geometry" />
        </mxCell>
        <mxCell id="253" style="vsdxID=261;fillColor=#cc827b;gradientColor=none;shape=stencil(lZTdbsMgDEafhluL8FPq6657j0pNF7QsqdJsa99+zlC3AgrFd5AcW99JwELvLt3h3AolL/M0vrff/jh3Qr8IpfzQtZOfaSX0XujdaZzat2n8HI5hfz4s5LL6GL+WDtdQZwGXGiVvYW8kyOb3yWvAez884I2UES7rUQVWrdNZDsI1A09jly0tdWdYNoQzaAuSYWoJZ5hm0WPTOMpGgXPrvdFAE/8j4jcc3oLarvNJGIKxGk6TlzQddeZoauI5mtqBq9Z0BFdrZsnTc2viJFsDWEiCeD8cfxeDCkqfJi9wYArx80SudDeeCzwRRorDErZUwBK2CMgRvl/3OjrLT4v/WXzyfR9G+eP7dHbTozD39f4H);strokeColor=#cc827b;spacingTop=-3;spacingBottom=-3;spacingLeft=-3;spacingRight=-3;labelBackgroundColor=none;rounded=0;html=1;whiteSpace=wrap;" parent="236" vertex="1">
          <mxGeometry x="26" y="22" width="24" height="43" as="geometry" />
        </mxCell>
        <mxCell id="254" style="vsdxID=262;fillColor=none;gradientColor=none;shape=stencil(dY/dDoIwDIWfprektuALIL4HCYM1zo2M+ff2blYjmHh3Tvudpge4XWw/GyBcUgwnc5MhWeADEIm3JkrKCrgDbscQzRTDxQ/q576QRZ3DtVy4a472VVOXFOFDJ/hyR4Wd+BW8Q9ygNVXI//Et/Am/0Sy+P43inFZa73875JH25+4J);strokeColor=#fbf5f4;strokeWidth=2;spacingTop=-3;spacingBottom=-3;spacingLeft=-3;spacingRight=-3;labelBackgroundColor=none;rounded=0;html=1;whiteSpace=wrap;" parent="236" vertex="1">
          <mxGeometry x="28" y="11" width="22" height="27" as="geometry" />
        </mxCell>
        <mxCell id="255" style="vsdxID=263;fillColor=none;gradientColor=none;shape=stencil(vZbbUoMwEIafhkt2cj5ca30PxtKWEaET0Na3N0ihJCnrdEZ7F5J/N+TbQ5Lxp+5QHMuMka537Vt5qrb9IePPGWNVcyhd1ftRxjcZf9q1rty79qPZjt/HYlAOo/f2c/BwHu0oIYMNI1/jN5NA1M/MyyivqwaTc6B8XS4tEB0YkHWxAC0CLSegxFJfuFe/6i56RsGOencxoAq0HKfWfAoG1FwkeXGuuty1fdFXbbP8P1IXbl/mfr98Vxf7YKk7leUxmb55IgNchbsLoBhd4DzUmwhvRMAfhiYILA0QJE59UNTDEGgwYQAUByRhBIiQmJLAKErAyoiABhknQeRUL/Lk3wkIf4KwBqYiuim3FjQLEVhg4i4DDZwiBhKsSSCjjE1caJ5xmGVWgbKhUwqS/Slk7EwJhCHL76ImNWhEzyems14AMYiBAhkCkb5asR1SAwIMqRXr4xJ3C2KROPrlqFv45iCmGM3nlEnPEuJhcUwg+IYtkZZ5w8DfGgylZsNy5AbdIb7yuACFhDGRs+kKWvv/qDsMtx7S8+k1cedqlFPcZ6869sp8fT4qiL++Kfzg+h7ZVXU9PmeW6/H7xU+Nbx+++QY=);strokeColor=#000000;spacingTop=-3;spacingBottom=-3;spacingLeft=-3;spacingRight=-3;labelBackgroundColor=none;rounded=0;html=1;whiteSpace=wrap;" parent="236" vertex="1">
          <mxGeometry x="8" y="9" width="43" height="56" as="geometry" />
        </mxCell>
        <mxCell id="256" value="&lt;font style=&quot;font-size:11px;font-family:SimHei;color:#7f7f7f;direction:ltr;letter-spacing:0px;line-height:120%;opacity:1&quot;&gt;元数据&lt;br/&gt;&lt;/font&gt;" style="text;vsdxID=244;fillColor=none;gradientColor=none;labelBackgroundColor=none;rounded=0;strokeColor=none;html=1;whiteSpace=wrap;verticalAlign=middle;align=center;;html=1;" parent="236" vertex="1">
          <mxGeometry x="3" y="64.94" width="50.81" height="24.84" as="geometry" />
        </mxCell>
        <mxCell id="257" value="&lt;font style=&quot;font-size:14px;font-family:仿宋;color:#000000;direction:ltr;letter-spacing:0px;line-height:120%;opacity:1&quot;&gt;地点&lt;br/&gt;时间&lt;br/&gt;类型&lt;br/&gt;说明&lt;br/&gt;标签&lt;br/&gt;…&lt;br/&gt;&lt;/font&gt;" style="verticalAlign=middle;align=center;vsdxID=264;fillColor=none;gradientColor=none;shape=stencil(nZBLDoAgDERP0z3SIyjew0SURgSD+Lu9kMZoXLhwN9O+tukAlrNpJg1SzDH4QW/URgNYgZTkjA4UkwJUgGXng+6DX1zLfmoymdXo17xh5zmRJ6Q42BWCfc2oJfdAr+Yv+AP9Cb7OJ3H/2JG1HNGz/84klThPVCc=);strokeColor=none;labelBackgroundColor=none;rounded=0;html=1;whiteSpace=wrap;" parent="234" vertex="1">
          <mxGeometry x="55" y="1" width="45" height="102" as="geometry" />
        </mxCell>
        <mxCell id="258" style="vsdxID=265;fillColor=none;gradientColor=none;labelBackgroundColor=none;rounded=0;strokeColor=none;html=1;whiteSpace=wrap;" parent="1" vertex="1">
          <mxGeometry x="1019" y="978" width="101" height="103" as="geometry" />
        </mxCell>
        <mxCell id="259" style="vsdxID=266;fillColor=#FFFFFF;gradientColor=none;shape=stencil(nZE9DsIwDIVP4xWliRiYS7kAJ4iIIRYhqdxQfk5PWhepdGBoJvu9z7b0AqbuvG0RtOoypys+yGUPZg9aU/TIlEsFpgFTnxPjhdM9OulbW0itRgWdzFQDrZXl05HeOGnVZvfztgLJllvqh+tPYZVYr2lSSX8QNFCcoV9zFfwHXQkuzpdizEeSoxAk3rm/zLNI8hem+QA=);strokeColor=#789440;labelBackgroundColor=none;rounded=1;html=1;whiteSpace=wrap;" parent="258" vertex="1">
          <mxGeometry width="101" height="103" as="geometry" />
        </mxCell>
        <mxCell id="260" style="vsdxID=267;fillColor=none;gradientColor=none;labelBackgroundColor=none;rounded=0;strokeColor=none;html=1;whiteSpace=wrap;" parent="258" vertex="1">
          <mxGeometry width="59" height="76" as="geometry" />
        </mxCell>
        <mxCell id="261" style="vsdxID=268;fillColor=#000000;gradientColor=none;fillOpacity=0;shape=stencil(vVfbjpswEP0aHjOyx1eet9v/QF2SoNIQEdrd/n2HEljGVoaNFOUN8Dnj8dx8KMzL5Vid6wLVZei7n/V78zYcC/OtQGxOx7pvBnoqzGthXvZdXx/67vfpbXo/VyNyfPrV/RktfEw86wDdyEL1d/pSRlD+/5fvE6FtTitCWUJARvABjBYIHjTH05Zhja/6H7TaX/FoIE7Lqr8ydFyc/DQaLbeqAf0Vs6s+msuu74ZqaLrTtK6mtbbqD/WOdtzt2+rAli7vdX1efZbOlAXBleDtXYQAQcDTaZKoIbgH2jdLtGa8BSVt4MGVnICgpR1yggI04pEdT6kzoOIjd0AoAyPYCLqUS9HmpWh4KRoIPFXWgo5PK8UsCpYqRWrgnKDAo1griteWieAFl7RSHG7BC5WSwRGC1EoeTOQE8l/Kol16aZVFp3kWA2jDrKKfrT4hi2kM0IlDOIOb2ftbrWV5yjFAKRDutE/DT/Fpom6DbTqpxvSxfCfpw6XjlvQFlrvMInXAgxtQOA8NBF6O1P5CN+n5slzPICkVaV0S3onRsjGN1jzkbvow3l5PC1iY23u52gwYoeEt2ATvQOolm15thHeS4MBlGKxChnw+ZE4ED8E9K2SjSuNnmjv0qxqtBLxLnmyIutyhUTayIOc6c4OQzBRAPrKCA6FNvqBjE4furCqKRxIhkqCCYNq2z/2hkZUIsiiLGbD8vCQQjaCWtu1zf+6dU3YZMjOeakq69Tftp/naujbSfHlun2QFCvHZtk8Pn39R+6Ztp5+w9Xr610Wfpj828/oP);strokeColor=none;strokeWidth=0;spacingTop=-3;spacingBottom=-3;spacingLeft=-3;spacingRight=-3;labelBackgroundColor=none;rounded=0;html=1;whiteSpace=wrap;" parent="260" vertex="1">
          <mxGeometry x="7" y="10" width="43" height="56" as="geometry" />
        </mxCell>
        <mxCell id="262" style="vsdxID=269;fillColor=#d8d8d8;gradientColor=none;shape=stencil(hZHNDsIgEISfhitZd0Hrudb3aFIqRCwNxb+3FyTGYqzeZne/mYSBUT3pdlQMYQreHdXVdEEz2jFEM2jlTYiKUcOo7p1XB+/OQ5fnsU1kUid3SQm37AMukwfhnmchOIjnZp9xa4YZLjccqDDAMrwCKLORb3EZj+dKFIZXwFe8zJZrXskf8L9nRvGuqDfW5obn989K4yp/BzUP);strokeColor=#acacac;spacingTop=-3;spacingBottom=-3;spacingLeft=-3;spacingRight=-3;labelBackgroundColor=none;rounded=0;html=1;whiteSpace=wrap;" parent="260" vertex="1">
          <mxGeometry x="10" y="34" width="41" height="30" as="geometry" />
        </mxCell>
        <mxCell id="263" style="vsdxID=270;fillColor=#7bb4d2;gradientColor=none;shape=stencil(tVJLDoIwED1NlzT9gbBWvEejBRorJUNVvL3FwUhNjCt3M+/TeekMkdux04Mhgo0B/Mnc7DF0RO6IELbvDNgQKyJrIreNB9OCv/RH7Ac9K+fq7K/zCxP6clqp2STYHQHO2LPfo9rZfqWuSqrKVJ7TolobNBwiC4tBCqqQZrA4FKMckSmd+HqSUbZEmjI92TEDH3Swvl9o5JyG1mRxWtY43SbUeDNmWMH8e76iiuMkTxOWueJU5EnINOKmoCX/X8b003+tKBbv7TbWOTyONf95DRHCS5L1Aw==);strokeColor=none;strokeWidth=0;spacingTop=-3;spacingBottom=-3;spacingLeft=-3;spacingRight=-3;labelBackgroundColor=none;rounded=0;html=1;whiteSpace=wrap;" parent="260" vertex="1">
          <mxGeometry x="25" y="44" width="24" height="19" as="geometry" />
        </mxCell>
        <mxCell id="264" style="vsdxID=271;fillColor=#e6f6f9;gradientColor=#7bb4d2;shape=stencil(tZJNbsMgEIVPw9IjDNhm1mlyD5RgG5UaC5O/2xeXRIG23rW7mXnvDZ/EEL5bRjVrwugSvHvXV3MKI+FvhDEzjdqbECvC94Tveuf14N15OqV+VqtzrT7cZd1wSzkBiGuI0Xsa0K/ukLzWTJkXEWRXmDsGkucB5Y9R9Y9A1wJLMvXPBIJgabS5FSXI+uGp1M0slXdBBeOmHJFa5QddxRer3qqhkJar1vOP8a+MTYstCFlSNsgbqEXByaDlBSbLLH+DWW9jCgEUS0jRAJaIG5/5L3ixeN1Ub6xNJ5nr328wjtL98v0n);strokeColor=none;strokeWidth=0;spacingTop=-3;spacingBottom=-3;spacingLeft=-3;spacingRight=-3;labelBackgroundColor=none;rounded=0;html=1;whiteSpace=wrap;" parent="260" vertex="1">
          <mxGeometry x="10" y="47" width="16" height="16" as="geometry" />
        </mxCell>
        <mxCell id="265" style="vsdxID=272;fillColor=#f1f1f1;gradientColor=#d8d8d8;gradientDirection=east;shape=stencil(rZPNbsMgDMefhmMsAgzIueveA60kQWMhctjavf2IoBrpFC2H3ey/f/7AMoSfltHMljC6RAxv9uoucST8mTDmptGii8ki/Ez4qQ9oBwwf0yX7s1nJ1XoPn2uFW87T0Kk1idGvLChos/CSce+mCm8p3dIMuD6OSwma7eMSFN/wtGYNvqYIFvaJQhkcCyw0qCLt1eMcWl2Qxtzc0mCIJrow1f2oNzjYJvVrem+GTWi5Wjv/kg89/u4fgjsBQuzjGqTe8KwDyva3JRRo8bAuec/4+xb+a1ttPWEyfq6yd97no67jj1ecpPwD+Pkb);strokeColor=#acacac;spacingTop=-3;spacingBottom=-3;spacingLeft=-3;spacingRight=-3;labelBackgroundColor=none;rounded=0;html=1;whiteSpace=wrap;" parent="260" vertex="1">
          <mxGeometry x="9" y="46" width="18" height="19" as="geometry" />
        </mxCell>
        <mxCell id="266" style="vsdxID=273;fillColor=#f1f1f1;gradientColor=#e1e1e1;shape=stencil(hZDNDsIgEISfZq9kZYvWc63v0aRUiAgNpf68vSAxFmPjbXb3mwkMUDOpbpTAcQreneVN90EBHYBzbZX0OkQF1AI1g/Py5N1s+zyPXSKTurhrSrhnn9gxpOTi+MgbfE3HDBttF/AGsUArzvZ8HY/nuioM74CfeJkttqwW6/Cfd0fx+fGgjcmFLe/fDcVVbpfaJw==);strokeColor=#acacac;spacingTop=-3;spacingBottom=-3;spacingLeft=-3;spacingRight=-3;labelBackgroundColor=none;rounded=0;html=1;whiteSpace=wrap;" parent="260" vertex="1">
          <mxGeometry x="10" y="29" width="41" height="30" as="geometry" />
        </mxCell>
        <mxCell id="267" style="vsdxID=274;fillColor=#d8d8d8;gradientColor=none;shape=stencil(hZHNDsIgEISfhitZd0Hrudb3aFIqRCwNxb+3FyTGYqzeZne/mYSBUT3pdlQMYQreHdXVdEEz2jFEM2jlTYiKUcOo7p1XB+/OQ5fnsU1kUid3SQm37AMukwfhnmchOIjnZp9xa4YZLjccqDDAMrwCKLORb3EZj+dKFIZXwFe8zJZrXskf8L9nRvGuqDfW5obn989K4yp/BzUP);strokeColor=#acacac;spacingTop=-3;spacingBottom=-3;spacingLeft=-3;spacingRight=-3;labelBackgroundColor=none;rounded=0;html=1;whiteSpace=wrap;" parent="260" vertex="1">
          <mxGeometry x="9" y="25" width="41" height="30" as="geometry" />
        </mxCell>
        <mxCell id="268" style="vsdxID=275;fillColor=#7bb4d2;gradientColor=none;shape=stencil(rVLLjoMwDPyaHLFCTKCc+/iPaBsg2pQgk7b07zdssirpob3szZ4Z2yPbDPfzoCbNBJ89uW99N2c/MDwwIcw4aDI+RAyPDPedI92Tu47nmE9qVa7Rxd3WDkusa0A2a5HgjwiUnP/mp6i2Ztyo2x3IXC2hbrd6RV+BpaRHASK1p1RRcZAYoSWf+NeTA6+SoFCLmQtyXnnjxkRHzirqdRHGFZ1VfUbNd62nDVy+MYjVroS2fvEouESom8xmbrKRULb/6vLN2j8dKQTP+3bG2vgeW/71HwIUfwmPPw==);strokeColor=none;strokeWidth=0;spacingTop=-3;spacingBottom=-3;spacingLeft=-3;spacingRight=-3;labelBackgroundColor=none;rounded=0;html=1;whiteSpace=wrap;" parent="260" vertex="1">
          <mxGeometry x="24" y="34" width="24" height="19" as="geometry" />
        </mxCell>
        <mxCell id="269" style="vsdxID=276;fillColor=#e6f6f9;gradientColor=#7bb4d2;shape=stencil(tZJNbsMgEIVPw9IjDNhm1mlyD5RgG5UaC5O/2xeXRIG23rW7mXnvwScYwnfLqGZNGF2Cd+/6ak5hJPyNMGamUXsTYkX4nvBd77wevDtPp9TPanWu1Ye7rCfcUk4A4hpi9J4G9Ks7JK81U+ZFBNkV5o6B5HlA+WNU/SPQtcCSTP0zgSBYGm2eihJk/fBU6maWyruggnFTjkit8oOu4o1Vb9VQSMtV6/nH+FfGpsUWhCwpG+QN1KLgZNDyApNllr/BrLcxhQDalZCiASyfcuMz/wUvFq+d6o21aSVz/fsOxlHaX77/BA==);strokeColor=none;strokeWidth=0;spacingTop=-3;spacingBottom=-3;spacingLeft=-3;spacingRight=-3;labelBackgroundColor=none;rounded=0;html=1;whiteSpace=wrap;" parent="260" vertex="1">
          <mxGeometry x="9" y="38" width="16" height="16" as="geometry" />
        </mxCell>
        <mxCell id="270" style="vsdxID=277;fillColor=#f1f1f1;gradientColor=#d8d8d8;gradientDirection=east;shape=stencil(rZPNjsIgEMefhmMnFBDo2XXfgyhtiWxpKK769ksDZqmmsQdvM//5zQeTAdH91KtRI4Kn4N1ZX80p9Ih+IULM0GtvQrQQPSC6b53XnXeX4ZT8Uc3kbP2437nCLeVJaMScRPA9CQLqJHwn3JqhwGuMlzQBKrfjnIMk6zgHQRc8LlnljzHiM7vDkAf3GWYSRJbW6lEKtcxIpW5mqrwLKhg3lP2wVb7TVexXtVZ1i9B01Xp8kTc9/uFvghsGjK3jErhc8KQBTNa3xQTI3dO6+CPj/S18alt1OWE0/q+yNdamoy7jz1ccpfQD6OEP);strokeColor=#acacac;spacingTop=-3;spacingBottom=-3;spacingLeft=-3;spacingRight=-3;labelBackgroundColor=none;rounded=0;html=1;whiteSpace=wrap;" parent="260" vertex="1">
          <mxGeometry x="7" y="36" width="18" height="19" as="geometry" />
        </mxCell>
        <mxCell id="271" style="vsdxID=278;fillColor=#f1f1f1;gradientColor=#e1e1e1;gradientDirection=east;shape=stencil(hZDNDsIgEISfZq9kZYvWc63v0aRUiAgNpf68vSAxFmPjbXb3mwkMUDOpbpTAcQreneVN90EBHYBzbZX0OkQF1AI1g/Py5N1s+zyPXSKTurhrSrhnn9gxpOTi+MgbfE3HDBttF/AGsUArzvZ8HY/nuioM74CfeJkttqwW6/Cfd0fx+fGgjcmFLe/fDcVVbpfaJw==);strokeColor=#acacac;spacingTop=-3;spacingBottom=-3;spacingLeft=-3;spacingRight=-3;labelBackgroundColor=none;rounded=0;html=1;whiteSpace=wrap;" parent="260" vertex="1">
          <mxGeometry x="9" y="19" width="41" height="30" as="geometry" />
        </mxCell>
        <mxCell id="272" style="vsdxID=279;fillColor=#d8d8d8;gradientColor=none;shape=stencil(hVLbEoIgEP0aHmXWRS2fu/wHk6hMJM5KZX8fhk3SZXpbzm0XFiY2Qyt7xRAGR/aorrpyLRNbhqi7VpF2vmJix8SmtqQasueuCudeTsqpOtnLlDAGH/B88iDcwjnLOGQPZB/kRncLeb7iICID/BanAHE28hJ/yz29ziLDM+CrPM7OC77Ol2JJB8/SLMa0QCh56A40m7BE4S9cFAH++yQwJnLUQ0LWSadtFw1iJDUq8W2T2sgmooarUv0HPA/qi9dyam1M2O2Sf1+mh8JHELs7);strokeColor=#acacac;spacingTop=-3;spacingBottom=-3;spacingLeft=-3;spacingRight=-3;labelBackgroundColor=none;rounded=0;html=1;whiteSpace=wrap;" parent="260" vertex="1">
          <mxGeometry x="10" y="15" width="41" height="30" as="geometry" />
        </mxCell>
        <mxCell id="273" style="vsdxID=280;fillColor=#7bb4d2;gradientColor=none;shape=stencil(rVJLbsMgED0NSyPMx4Z1mtwDJdhGpcYak8S5fXHHUUyltpvuZt6HeWKGiMM82MkRzuYE8d3d/SUNRLwRzv04OPApV0QciTh0EVwP8TpesJ/sqlyrj3hbX1jQp6huVxNnDwRqxr76E6qDH3dqo6nUpVzRxuwNFs6Zhc0gOJUNGmBzSEaZQGgpRz7fzAK5CSq7+LmCmGzycdxo5IKF3lV5XNUF2xfUfHdu2sH1zwGNUZIaVUasOW8bqmWRsszYaqrqfw35y7f/taRcvPbb+RDwPPb893vIEN6SOH4C);strokeColor=none;strokeWidth=0;spacingTop=-3;spacingBottom=-3;spacingLeft=-3;spacingRight=-3;labelBackgroundColor=none;rounded=0;html=1;whiteSpace=wrap;" parent="260" vertex="1">
          <mxGeometry x="25" y="24" width="24" height="19" as="geometry" />
        </mxCell>
        <mxCell id="274" style="vsdxID=281;fillColor=#e6f6f9;gradientColor=#7bb4d2;shape=stencil(tZJNbsMgEIVPw9IjDNhm1mlyD5RgG5UaC5O/2xeXRIG23rW7mXnvwScYwnfLqGZNGF2Cd+/6ak5hJPyNMGamUXsTYkX4nvBd77wevDtPp9TPanWu1Ye7rCfcUk4A4hpi9J4G9Ks7JK81U+ZFBNkV5o6B5HlA+WNU/SPQtcCSTP0zgSBYGm2eihJk/fBU6maWyruggnFTjkit8oOu4o1Vb9VQSMtV6/nH+FfGpsUWhCwpG+QN1KLgZNDyApNllr/BrLcxhQDalZCiASyfcuMz/wUvFq+d6o21aSVz/fsOxlHaX77/BA==);strokeColor=none;strokeWidth=0;spacingTop=-3;spacingBottom=-3;spacingLeft=-3;spacingRight=-3;labelBackgroundColor=none;rounded=0;html=1;whiteSpace=wrap;" parent="260" vertex="1">
          <mxGeometry x="10" y="28" width="16" height="16" as="geometry" />
        </mxCell>
        <mxCell id="275" style="vsdxID=282;fillColor=#f1f1f1;gradientColor=#d8d8d8;gradientDirection=east;shape=stencil(rZNLbsMgEIZPw9IjXgG8TtN7oAbbqNRYmDTp7YuFq0IqJC+6m/nnmwejAbHzOunFIIrXGPy7udtrnBB7QZTaeTLBxmQhdkHsPPhgxuBv8zX7i97Izfrwn1uFR85T0MstieKvLEggWXjNuLNzgROMa5oCU8dxIUDRNi5AsorHJavDW4qEnT1h2AcPO8wVSJGlVj3GgKgd6fTDrl3wUUfr57IfdjqMpkv9usHpsQqtd2OWP/Khx//4h+CeA+dtXIFQFU97wLS9LS5Bkad1naBX1brat/Bf2yLlhMn4vcrBOpePuow/X3GS8g9gl28=);strokeColor=#acacac;spacingTop=-3;spacingBottom=-3;spacingLeft=-3;spacingRight=-3;labelBackgroundColor=none;rounded=0;html=1;whiteSpace=wrap;" parent="260" vertex="1">
          <mxGeometry x="9" y="27" width="18" height="19" as="geometry" />
        </mxCell>
        <mxCell id="276" style="vsdxID=283;fillColor=#f7f7f7;gradientColor=#e1e1e1;gradientDirection=east;shape=stencil(hZDNDsIgEISfZq9kZYvWc63v0aRUiAgNpf68vSAxFmPjbXb3mwkMUDOpbpTAcQreneVN90EBHYBzbZX0OkQF1AI1g/Py5N1s+zyPXSKTurhrSrhnn9gxpOTi+MgbfE3HDBttF/AGsUArzvZ8HY/nuioM74CfeJkttqwW6/Cfd0fx+fGgjcmFLe/fDcVVbpfaJw==);strokeColor=#acacac;spacingTop=-3;spacingBottom=-3;spacingLeft=-3;spacingRight=-3;labelBackgroundColor=none;rounded=0;html=1;whiteSpace=wrap;" parent="260" vertex="1">
          <mxGeometry x="10" y="9" width="41" height="30" as="geometry" />
        </mxCell>
        <mxCell id="277" style="vsdxID=284;fillColor=#acacac;gradientColor=none;shape=stencil(lZTdbsMgDEafhluL8FPq6657j0pNF7QsqdJsa99+zlC3AgrFd5AcW99JwELvLt3h3AolL/M0vrff/jh3Qr8IpfzQtZOfaSX0XujdaZzat2n8HI5hfz4s5LL6GL+WDtdQZwGXGiVvYW8kyOb3yWvAez884I2UES7rUQVWrdNZDsI1A09jly0tdWdYNoQzaAuSYWoJZ5hm0WPTOMpGgXPrvdFAE/8j4jcc3oLarvNJGIKxGk6TlzQddeZoauI5mtqBq9Z0BFdrZsnTc2viJFsDWEiCeD8cfxeDCkqfJi9wYArx80SudDeeCzwRRorDErZUwBK2CMgRvl/3OjrLT4v/WXzyfR9G+eP7dHbTozD39f4H);strokeColor=#acacac;spacingTop=-3;spacingBottom=-3;spacingLeft=-3;spacingRight=-3;labelBackgroundColor=none;rounded=0;html=1;whiteSpace=wrap;" parent="260" vertex="1">
          <mxGeometry x="26" y="22" width="24" height="43" as="geometry" />
        </mxCell>
        <mxCell id="278" style="vsdxID=285;fillColor=none;gradientColor=none;shape=stencil(dY/dDoIwDIWfprektuALIL4HCYM1zo2M+ff2blYjmHh3Tvudpge4XWw/GyBcUgwnc5MhWeADEIm3JkrKCrgDbscQzRTDxQ/q576QRZ3DtVy4a472VVOXFOFDJ/hyR4Wd+BW8Q9ygNVXI//Et/Am/0Sy+P43inFZa73875JH25+4J);strokeColor=#fafafa;strokeWidth=2;spacingTop=-3;spacingBottom=-3;spacingLeft=-3;spacingRight=-3;labelBackgroundColor=none;rounded=0;html=1;whiteSpace=wrap;" parent="260" vertex="1">
          <mxGeometry x="28" y="11" width="22" height="27" as="geometry" />
        </mxCell>
        <mxCell id="279" style="vsdxID=286;fillColor=none;gradientColor=none;shape=stencil(vZbbUoMwEIafhkt2cj5ca30PxtKWEaET0Na3N0ihJCnrdEZ7F5J/N+TbQ5Lxp+5QHMuMka537Vt5qrb9IePPGWNVcyhd1ftRxjcZf9q1rty79qPZjt/HYlAOo/f2c/BwHu0oIYMNI1/jN5NA1M/MyyivqwaTc6B8XS4tEB0YkHWxAC0CLSegxFJfuFe/6i56RsGOencxoAq0HKfWfAoG1FwkeXGuuty1fdFXbbP8P1IXbl/mfr98Vxf7YKk7leUxmb55IgNchbsLoBhd4DzUmwhvRMAfhiYILA0QJE59UNTDEGgwYQAUByRhBIiQmJLAKErAyoiABhknQeRUL/Lk3wkIf4KwBqYiuim3FjQLEVhg4i4DDZwiBhKsSSCjjE1caJ5xmGVWgbKhUwqS/Slk7EwJhCHL76ImNWhEzyems14AMYiBAhkCkb5asR1SAwIMqRXr4xJ3C2KROPrlqFv45iCmGM3nlEnPEuJhcUwg+IYtkZZ5w8DfGgylZsNy5AbdIb7yuACFhDGRs+kKWvv/qDsMtx7S8+k1cedqlFPcZ6869sp8fT4qiL++Kfzg+h7ZVXU9PmeW6/H7xU+Nbx+++QY=);strokeColor=#000000;spacingTop=-3;spacingBottom=-3;spacingLeft=-3;spacingRight=-3;labelBackgroundColor=none;rounded=0;html=1;whiteSpace=wrap;" parent="260" vertex="1">
          <mxGeometry x="8" y="9" width="43" height="56" as="geometry" />
        </mxCell>
        <mxCell id="280" value="&lt;font style=&quot;font-size:11px;font-family:SimHei;color:#7f7f7f;direction:ltr;letter-spacing:0px;line-height:120%;opacity:1&quot;&gt;元数据&lt;br/&gt;&lt;/font&gt;" style="text;vsdxID=267;fillColor=none;gradientColor=none;labelBackgroundColor=none;rounded=0;strokeColor=none;html=1;whiteSpace=wrap;verticalAlign=middle;align=center;;html=1;" parent="260" vertex="1">
          <mxGeometry x="2.6" y="65.25" width="50.81" height="24.84" as="geometry" />
        </mxCell>
        <mxCell id="281" value="&lt;font style=&quot;font-size:14px;font-family:仿宋;color:#000000;direction:ltr;letter-spacing:0px;line-height:120%;opacity:1&quot;&gt;地点&lt;br/&gt;时间&lt;br/&gt;类型&lt;br/&gt;说明&lt;br/&gt;标签&lt;br/&gt;…&lt;br/&gt;&lt;/font&gt;" style="verticalAlign=middle;align=center;vsdxID=287;fillColor=none;gradientColor=none;shape=stencil(nZBLDoAgDERP0z3SIyjew0SURgSD+Lu9kMZoXLhwN9O+tukAlrNpJg1SzDH4QW/URgNYgZTkjA4UkwJUgGXng+6DX1zLfmoymdXo17xh5zmRJ6Q42BWCfc2oJfdAr+Yv+AP9Cb7OJ3H/2JG1HNGz/84klThPVCc=);strokeColor=none;labelBackgroundColor=none;rounded=0;html=1;whiteSpace=wrap;" parent="258" vertex="1">
          <mxGeometry x="55" y="1" width="45" height="102" as="geometry" />
        </mxCell>
        <mxCell id="282" value="&lt;font style=&quot;font-size:14px;font-family:仿宋;color:#000000;direction:ltr;letter-spacing:0px;line-height:120%;opacity:1&quot;&gt;标准API服务&lt;br/&gt;&lt;/font&gt;" style="verticalAlign=middle;align=center;vsdxID=289;fillColor=#fbf6f5;gradientColor=none;shape=stencil(vVHLDsIgEPwajiQI6RfU+h8bu22JCGRB2/69kG1iazx58DazM/vIjjBtmiCi0CplCjecbZ8nYc5Ca+snJJsLEqYTph0C4Ujh4XvmEaqzont41gkL96naodXKrGF6YSfQtUi0OXXDVlqPfJNP6usotUhYbJIUMmQb/GGrAxpRljVycDBuc1hKM2LclX8/7H9nFfB+82Cd45T2+mcspcSRmu4F);labelBackgroundColor=none;rounded=0;html=1;whiteSpace=wrap;" parent="1" vertex="1">
          <mxGeometry x="526" y="1242" width="71" height="72" as="geometry" />
        </mxCell>
        <mxCell id="283" value="&lt;font style=&quot;font-size:16px;font-family:SimSun;color:#000000;direction:ltr;letter-spacing:0px;line-height:120%;opacity:1&quot;&gt;6.访问资源&lt;br/&gt;&lt;/font&gt;" style="vsdxID=288;edgeStyle=none;startArrow=none;endArrow=none;startSize=9;endSize=9;strokeColor=#7f7f7f;spacingTop=0;spacingBottom=0;spacingLeft=0;spacingRight=0;verticalAlign=middle;html=1;labelBackgroundColor=#ffffff;rounded=0;align=center;entryX=0.22535211267605634;entryY=0.06944444444444445;entryDx=0;entryDy=0;entryPerimeter=0;" parent="1" source="39" target="282" edge="1">
          <mxGeometry relative="1" as="geometry">
            <mxPoint x="-1" as="offset" />
            <Array as="points" />
          </mxGeometry>
        </mxCell>
        <mxCell id="284" value="" style="vsdxID=213;edgeStyle=none;startArrow=none;endArrow=classic;startSize=9;endSize=9;strokeColor=#595959;spacingTop=0;spacingBottom=0;spacingLeft=0;spacingRight=0;verticalAlign=middle;html=1;labelBackgroundColor=#FFFFFF;rounded=0;align=center;exitX=0.6237623762376238;exitY=0;exitDx=0;exitDy=0;exitPerimeter=0;entryX=0.9255725190839694;entryY=1.025369978858351;entryDx=0;entryDy=0;entryPerimeter=0;" parent="1" source="258" target="3" edge="1">
          <mxGeometry relative="1" as="geometry">
            <mxPoint x="5" y="-1" as="offset" />
            <Array as="points" />
          </mxGeometry>
        </mxCell>
        <mxCell id="285" value="" style="vsdxID=212;edgeStyle=none;startArrow=none;endArrow=classic;startSize=9;endSize=9;strokeColor=#595959;spacingTop=0;spacingBottom=0;spacingLeft=0;spacingRight=0;verticalAlign=middle;html=1;labelBackgroundColor=#FFFFFF;rounded=0;align=center;exitX=0.7128712871287128;exitY=0;exitDx=0;exitDy=0;exitPerimeter=0;entryX=0.5057251908396947;entryY=1.025369978858351;entryDx=0;entryDy=0;entryPerimeter=0;" parent="1" source="234" target="3" edge="1">
          <mxGeometry relative="1" as="geometry">
            <mxPoint x="4" y="-1" as="offset" />
            <Array as="points" />
          </mxGeometry>
        </mxCell>
        <mxCell id="286" value="" style="vsdxID=211;edgeStyle=none;startArrow=none;endArrow=classic;startSize=9;endSize=9;strokeColor=#d9958f;spacingTop=0;spacingBottom=0;spacingLeft=0;spacingRight=0;verticalAlign=middle;html=1;labelBackgroundColor=#ffffff;rounded=0;align=center;exitX=0.7722772277227723;exitY=0;exitDx=0;exitDy=0;exitPerimeter=0;entryX=0.20038167938931298;entryY=1.025369978858351;entryDx=0;entryDy=0;entryPerimeter=0;" parent="1" source="210" target="3" edge="1">
          <mxGeometry relative="1" as="geometry">
            <mxPoint x="3" y="-1" as="offset" />
            <Array as="points" />
          </mxGeometry>
        </mxCell>
        <mxCell id="287" value="&lt;font style=&quot;font-size:16px;font-family:SimSun;color:#000000;direction:ltr;letter-spacing:0px;line-height:120%;opacity:1&quot;&gt;6.访问资源&lt;br/&gt;&lt;/font&gt;" style="vsdxID=210;edgeStyle=none;startArrow=none;endArrow=none;startSize=9;endSize=9;strokeColor=#205867;spacingTop=0;spacingBottom=0;spacingLeft=0;spacingRight=0;verticalAlign=middle;html=1;labelBackgroundColor=#ffffff;rounded=0;align=center;exitX=1;exitY=1;exitDx=0;exitDy=0;entryX=0.1267605633802817;entryY=0.1527777777777778;entryDx=0;entryDy=0;entryPerimeter=0;jumpStyle=arc;" parent="1" source="39" target="209" edge="1">
          <mxGeometry relative="1" as="geometry">
            <mxPoint x="-29" y="-29" as="offset" />
            <Array as="points">
              <mxPoint x="614.45" y="1101.78" />
              <mxPoint x="763.28" y="1240.84" />
            </Array>
          </mxGeometry>
        </mxCell>
        <mxCell id="290" value="&lt;font style=&quot;font-size:16px;font-family:SimSun;color:#000000;direction:ltr;letter-spacing:0px;line-height:120%;opacity:1&quot;&gt;3.请求资源&lt;br/&gt;&lt;/font&gt;" style="vsdxID=38;edgeStyle=none;startArrow=none;endArrow=block;startSize=9;endSize=9;strokeColor=#923931;spacingTop=0;spacingBottom=0;spacingLeft=0;spacingRight=0;verticalAlign=middle;html=1;labelBackgroundColor=#ffffff;rounded=0;align=center;entryX=-0.009541984732824428;entryY=0.48846960167714887;entryDx=0;entryDy=0;entryPerimeter=0;" parent="1" source="39" target="2" edge="1">
          <mxGeometry relative="1" as="geometry">
            <mxPoint x="1" as="offset" />
            <Array as="points" />
          </mxGeometry>
        </mxCell>
        <mxCell id="292" value="&lt;font style=&quot;font-size:16px;font-family:SimSun;color:#000000;direction:ltr;letter-spacing:0px;line-height:120%;opacity:1&quot;&gt;5.返回给用户资源统一访问API&lt;br/&gt;&lt;/font&gt;" style="vsdxID=40;edgeStyle=none;startArrow=none;endArrow=block;startSize=9;endSize=9;strokeColor=#31859b;spacingTop=0;spacingBottom=0;spacingLeft=0;spacingRight=0;verticalAlign=middle;html=1;labelBackgroundColor=#ffffff;rounded=0;align=center;exitX=-0.009541984732824428;exitY=0.36268343815513626;exitDx=0;exitDy=0;exitPerimeter=0;entryX=1;entryY=0.5;entryDx=0;entryDy=0;" parent="1" source="2" target="39" edge="1">
          <mxGeometry x="-0.0256" y="-23" relative="1" as="geometry">
            <mxPoint as="offset" />
            <Array as="points" />
          </mxGeometry>
        </mxCell>
        <mxCell id="293" value="&lt;font style=&quot;font-size:16px;font-family:SimSun;color:#000000;direction:ltr;letter-spacing:0px;line-height:120%;opacity:1&quot;&gt;6.访问资源&lt;br/&gt;&lt;/font&gt;" style="vsdxID=41;edgeStyle=none;dashed=1;startArrow=none;endArrow=block;startSize=9;endSize=9;strokeColor=#205867;spacingTop=0;spacingBottom=0;spacingLeft=0;spacingRight=0;verticalAlign=middle;html=1;labelBackgroundColor=#ffffff;rounded=0;align=center;exitX=1;exitY=0.75;exitDx=0;exitDy=0;entryX=-0.009541984732824428;entryY=0.6142557651991615;entryDx=0;entryDy=0;entryPerimeter=0;" parent="1" source="39" target="2" edge="1">
          <mxGeometry relative="1" as="geometry">
            <mxPoint x="-1" as="offset" />
            <Array as="points" />
          </mxGeometry>
        </mxCell>
        <mxCell id="294" value="" style="vsdxID=218;edgeStyle=none;startArrow=block;endArrow=none;startSize=9;endSize=9;strokeColor=#595959;spacingTop=0;spacingBottom=0;spacingLeft=0;spacingRight=0;verticalAlign=middle;html=1;labelBackgroundColor=#FFFFFF;rounded=0;align=center;exitX=-0.29333333333333333;exitY=0.25824175824175827;exitDx=0;exitDy=0;exitPerimeter=0;entryX=0.8309859154929577;entryY=0.8611111111111112;entryDx=0;entryDy=0;entryPerimeter=0;" parent="1" source="196" target="209" edge="1">
          <mxGeometry relative="1" as="geometry">
            <mxPoint x="-1" as="offset" />
            <Array as="points" />
          </mxGeometry>
        </mxCell>
        <mxCell id="295" value="" style="vsdxID=217;edgeStyle=none;startArrow=block;endArrow=none;startSize=9;endSize=9;strokeColor=#595959;spacingTop=0;spacingBottom=0;spacingLeft=0;spacingRight=0;verticalAlign=middle;html=1;labelBackgroundColor=#FFFFFF;rounded=0;align=center;exitX=-0.24561403508771928;exitY=0.045454545454545456;exitDx=0;exitDy=0;exitPerimeter=0;entryX=0.7887323943661971;entryY=0.9027777777777778;entryDx=0;entryDy=0;entryPerimeter=0;" parent="1" source="133" target="282" edge="1">
          <mxGeometry relative="1" as="geometry">
            <mxPoint x="-1" as="offset" />
            <Array as="points" />
          </mxGeometry>
        </mxCell>
        <mxCell id="296" value="" style="vsdxID=216;edgeStyle=none;startArrow=block;endArrow=none;startSize=9;endSize=9;strokeColor=#31859b;spacingTop=0;spacingBottom=0;spacingLeft=0;spacingRight=0;verticalAlign=middle;html=1;labelBackgroundColor=#ffffff;rounded=0;align=center;exitX=0.2037037037037037;exitY=0;exitDx=0;exitDy=0;exitPerimeter=0;entryX=0.5915492957746479;entryY=0.9861111111111112;entryDx=0;entryDy=0;entryPerimeter=0;" parent="1" source="88" target="208" edge="1">
          <mxGeometry relative="1" as="geometry">
            <mxPoint x="-7" y="-1" as="offset" />
            <Array as="points" />
          </mxGeometry>
        </mxCell>
        <mxCell id="297" value="&lt;font style=&quot;font-size:16px;font-family:SimSun;color:#000000;direction:ltr;letter-spacing:0px;line-height:120%;opacity:1&quot;&gt;1.注册/分享资源&lt;br/&gt;&lt;/font&gt;" style="vsdxID=209;edgeStyle=none;startArrow=none;endArrow=none;startSize=9;endSize=9;strokeColor=#d9958f;spacingTop=0;spacingBottom=0;spacingLeft=0;spacingRight=0;verticalAlign=middle;html=1;labelBackgroundColor=#ffffff;rounded=0;align=center;exitX=4.9772727272727275;exitY=0.09302325581395349;exitDx=0;exitDy=0;exitPerimeter=0;entryX=0.15841584158415842;entryY=1;entryDx=0;entryDy=0;entryPerimeter=0;jumpStyle=arc;" parent="1" source="109" target="210" edge="1">
          <mxGeometry relative="1" as="geometry">
            <mxPoint x="42" y="-64" as="offset" />
            <Array as="points">
              <mxPoint x="528.7" y="1233.57" />
            </Array>
          </mxGeometry>
        </mxCell>
        <mxCell id="298" parent="1" vertex="1">
          <mxGeometry x="193" y="708" as="geometry" />
        </mxCell>
        <mxCell id="299" value="&lt;font style=&quot;font-size:16px;font-family:SimSun;color:#000000;direction:ltr;letter-spacing:0px;line-height:120%;opacity:1&quot;&gt;6.访问资源&lt;br/&gt;&lt;/font&gt;" style="vsdxID=208;edgeStyle=none;startArrow=none;endArrow=none;startSize=9;endSize=9;strokeColor=#205867;spacingTop=0;spacingBottom=0;spacingLeft=0;spacingRight=0;verticalAlign=middle;html=1;labelBackgroundColor=#ffffff;rounded=0;align=center;entryX=0.4084507042253521;entryY=0;entryDx=0;entryDy=0;entryPerimeter=0;" parent="1" source="298" target="208" edge="1">
          <mxGeometry relative="1" as="geometry">
            <mxPoint x="-1" as="offset" />
            <Array as="points" />
          </mxGeometry>
        </mxCell>
        <mxCell id="300" value="&lt;font style=&quot;font-size:16px;font-family:SimSun;color:#000000;direction:ltr;letter-spacing:0px;line-height:120%;opacity:1&quot;&gt;注册分享资源&lt;br/&gt;&lt;/font&gt;" style="vsdxID=72;edgeStyle=none;startArrow=none;endArrow=none;startSize=9;endSize=9;strokeColor=#595959;spacingTop=0;spacingBottom=0;spacingLeft=0;spacingRight=0;verticalAlign=middle;html=1;labelBackgroundColor=#FFFFFF;rounded=0;align=center;exitX=3.2045454545454546;exitY=0;exitDx=0;exitDy=0;exitPerimeter=0;entryX=0.40594059405940597;entryY=1;entryDx=0;entryDy=0;entryPerimeter=0;" parent="1" source="201" target="258" edge="1">
          <mxGeometry relative="1" as="geometry">
            <mxPoint x="3" y="-31" as="offset" />
            <Array as="points" />
          </mxGeometry>
        </mxCell>
        <mxCell id="301" value="&lt;font style=&quot;font-size:16px;font-family:SimSun;color:#000000;direction:ltr;letter-spacing:0px;line-height:120%;opacity:1&quot;&gt;注册/分享资源&lt;br/&gt;&lt;/font&gt;" style="vsdxID=71;edgeStyle=none;startArrow=none;endArrow=none;startSize=9;endSize=9;strokeColor=#595959;spacingTop=0;spacingBottom=0;spacingLeft=0;spacingRight=0;verticalAlign=middle;html=1;labelBackgroundColor=#FFFFFF;rounded=0;align=center;exitX=0.8674698795180723;exitY=0.42168674698795183;exitDx=0;exitDy=0;exitPerimeter=0;entryX=0.33663366336633666;entryY=1;entryDx=0;entryDy=0;entryPerimeter=0;" parent="1" source="115" target="234" edge="1">
          <mxGeometry relative="1" as="geometry">
            <mxPoint x="15" y="-49" as="offset" />
            <Array as="points" />
          </mxGeometry>
        </mxCell>
      </root>
    </mxGraphModel>
  </diagram>
</mxfile>
